{
.appVersion = "3516";
.formatVersion = 3;
DisplayStrings = (
"ŦħɨÐƗҒѢŧЄЭҞӺӾғҟӻ₣"
);
axes = (
{
name = Weight;
tag = wght;
}
);
classes = (
{
code = "A Aacute Abreve Abreveacute Abrevedotbelow Abrevegrave Abrevehookabove Abrevetilde Acaron Acircumflex Acircumflexacute Acircumflexdotbelow Acircumflexgrave Acircumflexhookabove Acircumflextilde Adblgrave Adieresis Adieresismacron Adotbelow Agrave Ahookabove Ainvertedbreve Amacron Aogonek Aring Aringacute Atilde AE AEacute";
name = Adiacritics;
},
{
code = "Y Yacute Ycircumflex Ydieresis Ydotaccent Ydotbelow Ygrave Yhookabove Ymacron Ytilde ";
name = Ydiacritics;
},
{
automatic = 1;

glyphs = (
{
glyphname = A;
kernLeft = KO_A;
kernRight = KO_A;
lastChange = "2026-03-20 12:00:31 +0000";
layers = (
{
anchors = (
{
name = bottom;
pos = (387,0);
},
{
name = ogonek;
pos = (753,0);
},
{
name = top;
pos = (387,700);
}
);
background = {
anchors = (
{
name = bottom;
pos = (387,0);
},
{
name = ogonek;
pos = (696,10);
},
{
name = top;
pos = (387,700);
}
);
shapes = (
{
pos = (0,700);
ref = V;
scale = (1,-1);
}
);
};
layerId = "0EDB233F-674C-46BF-8D38-84A6CD2C2EDF";
shapes = (
{
closed = 1;
nodes = (
(229,0,l),
(351,423,l),
(374,532,ls),
(377,550,o),
(396,550,o),
(399,532,cs),
(422,423,l),
(544,0,l),
(753,0,l),
(537,700,l),
(235,700,l),
(20,0,l)
);
},
{
closed = 1;
nodes = (
(528,133,l),
(496,293,l),
(262,293,l),
(231,133,l)
);
}
);
width = 773;
},
{
anchors = (
{
name = bottom;
pos = (310,0);
},
{
name = ogonek;
pos = (601,0);
},
{
name = top;
pos = (311,700);
}
);
layerId = "9C56164D-AE66-4588-951C-3236F4A2688E";
shapes = (
{
closed = 1;
nodes = (
(56,0,l),
(276,570,l),
(303,651,ls),
(306,660,o),
(315,660,o),
(318,651,cs),
(346,570,l),
(564,0,l),
(601,0,l),
(333,700,l),
(289,700,l),
(20,0,l)
);
},
{
closed = 1;
nodes = (
(496,227,l),
(482,258,l),
(140,258,l),
(129,227,l)
);
}
);
width = 621;
},
{
anchors = (
{
name = bottom;
pos = (345,0);
},
{
name = ogonek;
pos = (670,0);
},
{
name = top;
pos = (345,700);
}
);
layerId = "0F6921E6-B6DE-4419-A3CD-177DEB844CC2";
shapes = (
{
closed = 1;
nodes = (
(129,0,l),
(304,502,l),
(336,605,ls),
(339,615,o),
(350,615,o),
(353,605,cs),
(383,502,l),
(560,0,l),
(670,0,l),
(425,700,l),
(262,700,l),
(20,0,l)
);
},
{
closed = 1;
nodes = (
(537,181,l),
(512,272,l),
(198,272,l),
(173,181,l)
);
}
);
width = 690;
}
);
metricRight = V;
unicode = 65;
userData = {
KernOnName = A;
com.schriftgestaltung.Glyphs.ColorIndex = 3;
com.schriftgestaltung.Glyphs.layer.rightMetricsKey = "==V";
com.schriftgestaltung.Glyphs.rightMetricsKey = V;
};
},
{
glyphname = AE;
kernLeft = KO_A;
kernRight = KO_E;
lastChange = "2026-03-20 12:00:31 +0000";
layers = (
{
anchors = (
{
name = bottom;
pos = (511,0);
},
{
name = top;
pos = (567,700);
}
);
layerId = "0EDB233F-674C-46BF-8D38-84A6CD2C2EDF";
shapes = (
{
closed = 1;
nodes = (
(228,0,l),
(272,137,l),
(452,137,l),
(452,0,l),
(981,0,l),
(981,180,l),
(652,180,l),
(652,275,l),
(942,275,l),
(942,425,l),
(652,425,l),
(652,520,l),
(981,520,l),
(981,700,l),
(239,700,l),
(20,0,l)
);
},
{
closed = 1;
nodes = (
(379,532,l),
(452,532,l),
(452,295,l),
(313,295,l)
);
}
);
width = 1033;
},
{
anchors = (
{
name = bottom;
pos = (458,0);
},
{
name = top;
pos = (455,700);
}
);
layerId = "9C56164D-AE66-4588-951C-3236F4A2688E";
shapes = (
{
closed = 1;
nodes = (
(58,0,l),
(146,227,l),
(429,227,l),
(429,0,l),
(858,0,l),
(858,32,l),
(463,32,l),
(463,334,l),
(840,334,l),
(840,366,l),
(463,366,l),
(463,668,l),
(858,668,l),
(858,700,l),
(291,700,l),
(20,0,l)
);
},
{
closed = 1;
nodes = (
(315,669,l),
(429,668,l),
(429,258,l),
(156,258,l)
);
}
);
width = 924;
},
{
anchors = (
{
name = bottom;
pos = (459,0);
},
{
name = top;
pos = (473,700);
}
);
layerId = "0F6921E6-B6DE-4419-A3CD-177DEB844CC2";
shapes = (
{
closed = 1;
nodes = (
(128,0,l),
(194,181,l),
(419,181,l),
(419,0,l),
(893,0,l),
(893,97,l),
(517,97,l),
(517,304,l),
(876,304,l),
(876,396,l),
(517,396,l),
(517,605,l),
(893,605,l),
(893,700,l),
(275,700,l),
(20,0,l)
);
},
{
closed = 1;
nodes = (
(345,605,l),
(419,605,l),
(419,272,l),
(223,272,l)
);
}
);
width = 971;
}
);
metricLeft = A;
metricRight = E;
unicode = 198;
userData = {
com.schriftgestaltung.Glyphs.leftMetricsKey = A;
com.schriftgestaltung.Glyphs.rightMetricsKey = E;
};
},
{
glyphname = B;
kernLeft = KO_H;
kernRight = KO_B;
lastChange = "2026-03-20 12:00:31 +0000";
layers = (
{
anchors = (
{
name = bottom;
pos = (335,0);
},
{
name = center;
pos = (167,221);
},
{
name = top;
pos = (335,700);
}
);
layerId = "0EDB233F-674C-46BF-8D38-84A6CD2C2EDF";
shapes = (
{
closed = 1;
nodes = (
(449,0,ls),
(599,0,o),
(695,74,o),
(695,203,cs),
(695,289,o),
(658,348,o),
(589,367,c),
(644,394,o),
(673,446,o),
(673,508,cs),
(673,631,o),
(571,700,o),
(415,700,cs),
(76,700,l),
(76,0,l)
);
},
{
closed = 1;
nodes = (
(276,281,l),
(435,281,ls),
(472,281,o),
(503,260,o),
(503,221,cs),
(503,182,o),
(472,160,o),
(435,160,cs),
(276,160,l)
);
},
{
closed = 1;
nodes = (
(276,540,l),
(415,540,ls),
(452,540,o),
(483,519,o),
(483,480,cs),
(483,441,o),
(452,420,o),
(415,420,cs),
(276,420,l)
);
}
);
width = 743;
},
{
anchors = (
{
name = bottom;
pos = (295,0);
},
{
name = center;
pos = (121,183);
},
{
name = top;
pos = (295,700);
}
);
layerId = "9C56164D-AE66-4588-951C-3236F4A2688E";
shapes = (
{
closed = 1;
nodes = (
(371,0,ls),
(500,0,o),
(594,67,o),
(594,183,cs),
(594,266,o),
(543,326,o),
(448,353,c),
(536,376,o),
(582,433,o),
(582,516,cs),
(582,631,o),
(499,700,o),
(370,700,cs),
(101,700,l),
(101,0,l)
);
},
{
closed = 1;
nodes = (
(136,336,l),
(371,336,ls),
(473,336,o),
(559,278,o),
(559,183,cs),
(559,88,o),
(480,31,o),
(371,31,cs),
(136,31,l)
);
},
{
closed = 1;
nodes = (
(136,669,l),
(370,669,ls),
(478,669,o),
(548,611,o),
(548,515,cs),
(548,421,o),
(478,367,o),
(370,367,cs),
(136,367,l)
);
}
);
width = 673;
},
{
anchors = (
{
name = bottom;
pos = (319,0);
},
{
name = center;
pos = (141,192);
},
{
name = top;
pos = (319,700);
}
);
layerId = "0F6921E6-B6DE-4419-A3CD-177DEB844CC2";
shapes = (
{
closed = 1;
nodes = (
(387,0,ls),
(534,0,o),
(625,70,o),
(625,192,cs),
(625,271,o),
(581,334,o),
(500,358,c),
(569,385,o),
(609,440,o),
(609,511,cs),
(609,631,o),
(522,700,o),
(379,700,cs),
(89,700,l),
(89,0,l)
);
},
{
closed = 1;
nodes = (
(192,307,l),
(387,307,ls),
(468,307,o),
(523,263,o),
(523,195,cs),
(523,127,o),
(470,89,o),
(387,89,cs),
(192,89,l)
);
},
{
closed = 1;
nodes = (
(192,611,l),
(379,611,ls),
(458,611,o),
(507,572,o),
(507,505,cs),
(507,437,o),
(458,395,o),
(379,395,cs),
(192,395,l)
);
}
);
width = 696;
}
);
metricLeft = H;
unicode = 66;
userData = {
KernOnName = B;
com.schriftgestaltung.Glyphs.ColorIndex = 3;
com.schriftgestaltung.Glyphs.layer.leftMetricsKey = "==H";
com.schriftgestaltung.Glyphs.leftMetricsKey = H;
};
},
{
glyphname = Bstroke;
lastChange = "2026-03-20 12:00:31 +0000";
layers = (
{
layerId = "0EDB233F-674C-46BF-8D38-84A6CD2C2EDF";
shapes = (
{
alignment = -1;
pos = (56,0);
ref = B;
},
{
closed = 1;
nodes = (
(417,180,l),
(417,257,l),
(30,257,l),
(30,180,l)
);
}
);
width = 799;
},
{
layerId = "9C56164D-AE66-4588-951C-3236F4A2688E";
shapes = (
{
alignment = -1;
pos = (30,0);
ref = B;
},
{
closed = 1;
nodes = (
(280,168,l),
(280,197,l),
(21,197,l),
(21,168,l)
);
}
);
width = 703;
},
{
layerId = "0F6921E6-B6DE-4419-A3CD-177DEB844CC2";
shapes = (
{
alignment = -1;
pos = (37,0);
ref = B;
},
{
closed = 1;
nodes = (
(331,150,l),
(331,234,l),
(25,234,l),
(25,150,l)
);
}
);
width = 733;
}
);
metricLeft = t;
metricRight = B;
unicode = 579;
},
{
glyphname = C;
kernLeft = KO_O;
kernRight = KO_C;
lastChange = "2026-03-20 12:00:31 +0000";
layers = (
{
anchors = (
{
name = bottom;
pos = (410,0);
},
{
name = center;
pos = (379,355);
},
{
name = top;
pos = (410,700);
}
);
background = {
anchors = (
{
name = bottom;
pos = (370,0);
},
{
name = center;
pos = (370,350);
},
{
name = ogonek;
pos = (452,0);
},
{
name = top;
pos = (370,675);
},
{
name = topleft;
pos = (65,700);
},
{
name = topright;
pos = (486,700);
}
);
};
layerId = "0EDB233F-674C-46BF-8D38-84A6CD2C2EDF";
shapes = (
{
closed = 1;
nodes = (
(518,-12,o),
(585,5,o),
(641,37,c),
(587,185,l),
(554,169,o),
(509,160,o),
(469,160,cs),
(333,160,o),
(255,230,o),
(255,350,cs),
(255,470,o),
(333,540,o),
(469,540,cs),
(509,540,o),
(554,531,o),
(587,515,c),
(641,663,l),
(585,695,o),
(518,712,o),
(442,712,cs),
(196,712,o),
(40,572,o),
(40,350,cs),
(40,128,o),
(196,-12,o),
(442,-12,cs)
);
}
);
width = 679;
},
{
anchors = (
{
name = bottom;
pos = (404,0);
},
{
name = center;
pos = (309,350);
},
{
name = top;
pos = (394,700);
}
);
layerId = "9C56164D-AE66-4588-951C-3236F4A2688E";
shapes = (
{
closed = 1;
nodes = (
(497,-12,o),
(567,13,o),
(623,59,c),
(610,90,l),
(560,45,o),
(494,20,o),
(414,20,cs),
(224,20,o),
(101,149,o),
(101,351,cs),
(101,551,o),
(224,680,o),
(414,680,cs),
(486,680,o),
(548,659,o),
(596,622,c),
(606,654,l),
(554,691,o),
(489,712,o),
(414,712,cs),
(204,712,o),
(63,568,o),
(63,351,cs),
(63,133,o),
(204,-12,o),
(414,-12,cs)
);
}
);
width = 674;
},
{
anchors = (
{
name = bottom;
pos = (402,0);
},
{
name = center;
pos = (318,350);
},
{
name = top;
pos = (394,700);
}
);
layerId = "0F6921E6-B6DE-4419-A3CD-177DEB844CC2";
shapes = (
{
closed = 1;
nodes = (
(488,-12,o),
(549,9,o),
(601,48,c),
(570,134,l),
(529,104,o),
(479,85,o),
(414,85,cs),
(255,85,o),
(163,189,o),
(163,350,cs),
(163,511,o),
(255,615,o),
(414,615,cs),
(479,615,o),
(529,596,o),
(569,567,c),
(600,653,l),
(549,691,o),
(487,712,o),
(414,712,cs),
(192,712,o),
(52,558,o),
(52,350,cs),
(52,142,o),
(192,-12,o),
(414,-12,cs)
);
}
);
width = 646;
}
);
metricLeft = O;
metricRight = "=I/2";
unicode = 67;
userData = {
KernOnName = C;
com.schriftgestaltung.Glyphs.ColorIndex = 3;
com.schriftgestaltung.Glyphs.layer.leftMetricsKey = "==O";
com.schriftgestaltung.Glyphs.leftMetricsKey = O;
};
},
{
glyphname = D;
kernLeft = KO_H;
kernRight = KO_O;
lastChange = "2026-03-20 12:00:31 +0000";
layers = (
{
anchors = (
{
name = bottom;
pos = (375,0);
},
{
name = center;
pos = (180,350);
},
{
name = ogonek;
pos = (422,0);
},
{
name = top;
pos = (375,700);
},
{
name = topleft;
pos = (70,700);
},
{
name = topright;
pos = (453,700);
}
);
background = {
shapes = (
{
pos = (-14,0);
ref = O;
}
);
};
layerId = "0EDB233F-674C-46BF-8D38-84A6CD2C2EDF";
shapes = (
{
closed = 1;
nodes = (
(384,0,ls),
(620,0,o),
(768,134,o),
(768,351,cs),
(768,566,o),
(620,700,o),
(384,700,cs),
(76,700,l),
(76,0,l)
);
},
{
closed = 1;
nodes = (
(286,520,l),
(384,520,ls),
(486,520,o),
(553,458,o),
(553,350,cs),
(553,242,o),
(486,180,o),
(384,180,cs),
(286,180,l)
);
}
);
width = 808;
},
{
anchors = (
{
name = bottom;
pos = (351,0);
},
{
name = center;
pos = (119,350);
},
{
name = ogonek;
pos = (384,0);
},
{
name = top;
pos = (351,700);
},
{
name = topleft;
pos = (32,700);
},
{
name = topright;
pos = (415,700);
}
);
layerId = "9C56164D-AE66-4588-951C-3236F4A2688E";
shapes = (
{
closed = 1;
nodes = (
(325,0,ls),
(535,0,o),
(675,139,o),
(675,351,cs),
(675,561,o),
(535,700,o),
(325,700,cs),
(101,700,l),
(101,0,l)
);
},
{
closed = 1;
nodes = (
(135,668,l),
(325,668,ls),
(515,668,o),
(637,544,o),
(637,351,cs),
(637,156,o),
(515,32,o),
(325,32,cs),
(135,32,l)
);
}
);
width = 738;
},
{
anchors = (
{
name = bottom;
pos = (356,0);
},
{
name = center;
pos = (141,350);
},
{
name = ogonek;
pos = (346,0);
},
{
name = top;
pos = (356,700);
},
{
name = topleft;
pos = (-6,700);
},
{
name = topright;
pos = (377,700);
}
);
layerId = "0F6921E6-B6DE-4419-A3CD-177DEB844CC2";
shapes = (
{
closed = 1;
nodes = (
(346,0,ls),
(558,0,o),
(691,148,o),
(691,351,cs),
(691,552,o),
(558,700,o),
(346,700,cs),
(89,700,l),
(89,0,l)
);
},
{
closed = 1;
nodes = (
(188,603,l),
(346,603,ls),
(494,603,o),
(580,505,o),
(580,351,cs),
(580,196,o),
(494,97,o),
(346,97,cs),
(188,97,l)
);
}
);
width = 743;
}
);
metricLeft = H;
metricRight = O;
unicode = 68;
userData = {
com.schriftgestaltung.Glyphs.ColorIndex = 3;
com.schriftgestaltung.Glyphs.layer.leftMetricsKey = "==H";
com.schriftgestaltung.Glyphs.layer.rightMetricsKey = "==O";
com.schriftgestaltung.Glyphs.leftMetricsKey = H;
com.schriftgestaltung.Glyphs.rightMetricsKey = O;
};
},
{
glyphname = DZcaron;
lastChange = "2026-03-20 12:00:31 +0000";
layers = (
{
anchors = (
{
name = bottom;
pos = (1120,0);
},
{
name = center;
pos = (180,350);
},
{
name = ogonek;
pos = (422,0);
},
{
name = top;
pos = (1120,914);
},
{
name = topleft;
pos = (70,700);
},
{
name = topright;
pos = (453,700);
}
);
background = {
shapes = (
{
closed = 1;
nodes = (
(384,0,ls),
(620,0,o),
(768,134,o),
(768,351,cs),
(768,566,o),
(620,700,o),
(384,700,cs),
(76,700,l),
(76,0,l)
);
},
{
closed = 1;
nodes = (
(286,520,l),
(384,520,ls),
(486,520,o),
(553,458,o),
(553,350,cs),
(553,242,o),
(486,180,o),
(384,180,cs),
(286,180,l)
);
},
{
closed = 1;
nodes = (
(1411,0,l),
(1411,180,l),
(1105,180,ls),
(1089,180,o),
(1084,191,o),
(1100,205,cs),
(1182,275,l),
(1411,539,l),
(1411,700,l),
(837,700,l),
(837,520,l),
(1154,520,l),
(1171,520,o),
(1176,507,o),
(1160,494,cs),
(1072,420,l),
(839,161,l),
(839,0,l)
);
},
{
closed = 1;
nodes = (
(1217,772,l),
(1306,914,l),
(1168,914,l),
(1141,876,l),
(1128,846,ls),
(1125,838,o),
(1113,838,o),
(1110,846,cs),
(1097,876,l),
(1070,914,l),
(932,914,l),
(1021,772,l)
);
}
);
};
layerId = "0EDB233F-674C-46BF-8D38-84A6CD2C2EDF";
shapes = (
{
closed = 1;
nodes = (
(384,0,ls),
(620,0,o),
(768,134,o),
(768,351,cs),
(768,566,o),
(620,700,o),
(384,700,cs),
(76,700,l),
(76,0,l)
);
},
{
closed = 1;
nodes = (
(286,520,l),
(384,520,ls),
(486,520,o),
(553,458,o),
(553,350,cs),
(553,242,o),
(486,180,o),
(384,180,cs),
(286,180,l)
);
},
{
closed = 1;
nodes = (
(1412,0,l),
(1412,180,l),
(1106,180,ls),
(1090,180,o),
(1085,191,o),
(1101,205,cs),
(1183,275,l),
(1412,539,l),
(1412,700,l),
(838,700,l),
(838,520,l),
(1155,520,l),
(1172,520,o),
(1177,507,o),
(1161,494,cs),
(1073,420,l),
(840,161,l),
(840,0,l)
);
},
{
closed = 1;
nodes = (
(1218,772,l),
(1307,914,l),
(1169,914,l),
(1142,876,l),
(1129,846,ls),
(1126,838,o),
(1114,838,o),
(1111,846,cs),
(1098,876,l),
(1071,914,l),
(933,914,l),
(1022,772,l)
);
}
);
width = 1450;
},
{
anchors = (
{
name = bottom;
pos = (942,0);
},
{
name = center;
pos = (119,350);
},
{
name = ogonek;
pos = (384,0);
},
{
name = top;
pos = (942,863);
},
{
name = topleft;
pos = (32,700);
},
{
name = topright;
pos = (415,700);
}
);
layerId = "9C56164D-AE66-4588-951C-3236F4A2688E";
shapes = (
{
closed = 1;
nodes = (
(325,0,ls),
(535,0,o),
(675,139,o),
(675,351,cs),
(675,561,o),
(535,700,o),
(325,700,cs),
(101,700,l),
(101,0,l)
);
},
{
closed = 1;
nodes = (
(135,668,l),
(325,668,ls),
(515,668,o),
(637,544,o),
(637,351,cs),
(637,156,o),
(515,32,o),
(325,32,cs),
(135,32,l)
);
},
{
closed = 1;
nodes = (
(1166,0,l),
(1166,32,l),
(756,32,ls),
(745,32,o),
(742,38,o),
(752,48,cs),
(782,79,l),
(1162,672,l),
(1162,700,l),
(722,700,l),
(722,668,l),
(1113,668,l),
(1121,668,o),
(1126,661,o),
(1118,653,cs),
(1089,621,l),
(709,27,l),
(709,0,l)
);
},
{
closed = 1;
nodes = (
(958,794,l),
(1050,936,l),
(1020,936,l),
(960,848,l),
(947,820,ls),
(944,814,o),
(936,814,o),
(933,820,cs),
(920,848,l),
(861,936,l),
(830,936,l),
(922,794,l)
);
}
);
width = 1217;
},
{
anchors = (
{
name = bottom;
pos = (993,0);
},
{
name = center;
pos = (141,350);
},
{
name = ogonek;
pos = (346,0);
},
{
name = top;
pos = (993,903);
},
{
name = topleft;
pos = (-6,700);
},
{
name = topright;
pos = (377,700);
}
);
layerId = "0F6921E6-B6DE-4419-A3CD-177DEB844CC2";
shapes = (
{
closed = 1;
nodes = (
(346,0,ls),
(558,0,o),
(691,148,o),
(691,351,cs),
(691,552,o),
(558,700,o),
(346,700,cs),
(89,700,l),
(89,0,l)
);
},
{
closed = 1;
nodes = (
(188,603,l),
(346,603,ls),
(494,603,o),
(580,505,o),
(580,351,cs),
(580,196,o),
(494,97,o),
(346,97,cs),
(188,97,l)
);
},
{
closed = 1;
nodes = (
(1249,0,l),
(1249,97,l),
(882,97,ls),
(875,97,o),
(871,105,o),
(877,111,cs),
(934,177,l),
(1248,635,l),
(1248,700,l),
(747,700,l),
(747,603,l),
(1106,603,l),
(1112,603,o),
(1116,595,o),
(1111,589,cs),
(1052,518,l),
(737,64,l),
(737,0,l)
);
},
{
closed = 1;
nodes = (
(1042,783,l),
(1135,925,l),
(1052,925,l),
(1011,865,l),
(999,836,ls),
(995,828,o),
(989,828,o),
(985,836,cs),
(974,865,l),
(933,925,l),
(850,925,l),
(943,783,l)
);
}
);
width = 1294;
}
);
unicode = 452;
},
{
glyphname = Dcroat;
kernRight = KO_O;
lastChange = "2026-03-20 12:00:31 +0000";
layers = (
{
layerId = "0EDB233F-674C-46BF-8D38-84A6CD2C2EDF";
shapes = (
{
closed = 1;
nodes = (
(420,0,ls),
(656,0,o),
(804,134,o),
(804,351,cs),
(804,566,o),
(656,700,o),
(420,700,cs),
(112,700,l),
(112,422,l),
(30,422,l),
(30,268,l),
(112,268,l),
(112,0,l)
);
},
{
closed = 1;
nodes = (
(322,268,l),
(403,268,l),
(403,422,l),
(322,422,l),
(322,520,l),
(420,520,ls),
(522,520,o),
(589,458,o),
(589,350,cs),
(589,242,o),
(522,180,o),
(420,180,cs),
(322,180,l)
);
}
);
width = 844;
},
{
layerId = "9C56164D-AE66-4588-951C-3236F4A2688E";
shapes = (
{
closed = 1;
nodes = (
(357,0,ls),
(567,0,o),
(706,139,o),
(706,351,cs),
(706,561,o),
(567,700,o),
(357,700,cs),
(133,700,l),
(133,364,l),
(21,364,l),
(21,336,l),
(133,336,l),
(133,0,l)
);
},
{
closed = 1;
nodes = (
(167,336,l),
(280,336,l),
(280,364,l),
(167,364,l),
(167,668,l),
(357,668,ls),
(547,668,o),
(669,544,o),
(669,351,cs),
(669,156,o),
(547,32,o),
(357,32,cs),
(167,32,l)
);
}
);
width = 770;
},
{
layerId = "0F6921E6-B6DE-4419-A3CD-177DEB844CC2";
shapes = (
{
closed = 1;
nodes = (
(384,0,ls),
(595,0,o),
(728,148,o),
(728,351,cs),
(728,552,o),
(595,700,o),
(384,700,cs),
(127,700,l),
(127,392,l),
(25,392,l),
(25,308,l),
(127,308,l),
(127,0,l)
);
},
{
closed = 1;
nodes = (
(226,308,l),
(331,308,l),
(331,392,l),
(226,392,l),
(226,603,l),
(384,603,ls),
(531,603,o),
(618,505,o),
(618,351,cs),
(618,196,o),
(531,97,o),
(384,97,cs),
(226,97,l)
);
}
);
width = 780;
}
);
unicode = 272;
userData = {
KernOnName = Dcroat;
};
},
{
glyphname = Dzcaron;
lastChange = "2026-03-20 12:00:31 +0000";
layers = (
{
layerId = "0EDB233F-674C-46BF-8D38-84A6CD2C2EDF";
shapes = (
{
closed = 1;
nodes = (
(384,0,ls),
(620,0,o),
(768,134,o),
(768,351,cs),
(768,566,o),
(620,700,o),
(384,700,cs),
(76,700,l),
(76,0,l)
);
},
{
closed = 1;
nodes = (
(286,520,l),
(384,520,ls),
(486,520,o),
(553,458,o),
(553,350,cs),
(553,242,o),
(486,180,o),
(384,180,cs),
(286,180,l)
);
},
{
closed = 1;
nodes = (
(1300,0,l),
(1300,154,l),
(1062,154,ls),
(1050,154,o),
(1046,163,o),
(1058,171,cs),
(1097,198,l),
(1300,407,l),
(1300,546,l),
(840,546,l),
(840,391,l),
(1076,391,ls),
(1086,391,o),
(1093,383,o),
(1080,374,cs),
(1041,348,l),
(840,140,l),
(840,0,l)
);
},
{
closed = 1;
nodes = (
(1168,618,l),
(1257,760,l),
(1119,760,l),
(1092,722,l),
(1079,692,ls),
(1076,684,o),
(1064,684,o),
(1061,692,cs),
(1048,722,l),
(1021,760,l),
(883,760,l),
(972,618,l)
);
}
);
width = 1332;
},
{
layerId = "9C56164D-AE66-4588-951C-3236F4A2688E";
shapes = (
{
closed = 1;
nodes = (
(325,0,ls),
(535,0,o),
(675,139,o),
(675,351,cs),
(675,561,o),
(535,700,o),
(325,700,cs),
(101,700,l),
(101,0,l)
);
},
{
closed = 1;
nodes = (
(135,668,l),
(325,668,ls),
(515,668,o),
(637,544,o),
(637,351,cs),
(637,156,o),
(515,32,o),
(325,32,cs),
(135,32,l)
);
},
{
closed = 1;
nodes = (
(1136,0,l),
(1136,31,l),
(818,31,ls),
(809,31,o),
(805,35,o),
(812,42,cs),
(850,87,l),
(1136,513,l),
(1136,524,l),
(760,524,l),
(760,493,l),
(1079,493,ls),
(1087,493,o),
(1090,486,o),
(1084,480,cs),
(1047,437,l),
(760,10,l),
(760,0,l)
);
},
{
closed = 1;
nodes = (
(964,618,l),
(1056,760,l),
(1026,760,l),
(966,672,l),
(953,644,ls),
(950,638,o),
(942,638,o),
(939,644,cs),
(926,672,l),
(867,760,l),
(836,760,l),
(928,618,l)
);
}
);
width = 1186;
},
{
layerId = "0F6921E6-B6DE-4419-A3CD-177DEB844CC2";
shapes = (
{
closed = 1;
nodes = (
(346,0,ls),
(558,0,o),
(691,148,o),
(691,351,cs),
(691,552,o),
(558,700,o),
(346,700,cs),
(89,700,l),
(89,0,l)
);
},
{
closed = 1;
nodes = (
(188,603,l),
(346,603,ls),
(494,603,o),
(580,505,o),
(580,351,cs),
(580,196,o),
(494,97,o),
(346,97,cs),
(188,97,l)
);
},
{
closed = 1;
nodes = (
(1185,0,l),
(1185,85,l),
(904,85,ls),
(899,85,o),
(886,89,o),
(900,101,cs),
(939,136,l),
(1185,471,l),
(1185,535,l),
(776,535,l),
(776,450,l),
(1056,450,ls),
(1064,450,o),
(1072,444,o),
(1060,433,cs),
(1023,399,l),
(776,64,l),
(776,0,l)
);
},
{
closed = 1;
nodes = (
(1029,618,l),
(1122,760,l),
(1039,760,l),
(998,700,l),
(986,671,ls),
(982,663,o),
(976,663,o),
(972,671,cs),
(961,700,l),
(920,760,l),
(837,760,l),
(930,618,l)
);
}
);
width = 1234;
}
);
unicode = 453;
},
{
color = 4;
glyphname = Eth;
kernRight = KO_O;
lastChange = "2026-03-20 13:06:54 +0000";
layers = (
{
anchors = (
{
name = bottom;
pos = (422,0);
},
{
name = top;
pos = (422,700);
}
);
layerId = "0EDB233F-674C-46BF-8D38-84A6CD2C2EDF";
shapes = (
{
alignment = -1;
pos = (36,0);
ref = D;
},
{
closed = 1;
nodes = (
(403,268,l),
(403,422,l),
(30,422,l),
(30,268,l)
);
}
);
width = 844;
},
{
anchors = (
{
name = bottom;
pos = (385,0);
},
{
name = top;
pos = (385,700);
}
);
layerId = "9C56164D-AE66-4588-951C-3236F4A2688E";
shapes = (
{
alignment = -1;
pos = (32,0);
ref = D;
},
{
closed = 1;
nodes = (
(279,335,l),
(279,364,l),
(20,364,l),
(20,335,l)
);
}
);
width = 770;
},
{
anchors = (
{
name = bottom;
pos = (390,0);
},
{
name = top;
pos = (390,700);
}
);
layerId = "0F6921E6-B6DE-4419-A3CD-177DEB844CC2";
shapes = (
{
alignment = -1;
pos = (37,0);
ref = D;
},
{
closed = 1;
nodes = (
(331,308,l),
(331,392,l),
(25,392,l),
(25,308,l)
);
}
);
width = 780;
}
);
metricLeft = t;
unicode = 208;
userData = {
com.schriftgestaltung.Glyphs.rightMetricsKey = O;
};
},
{
glyphname = E;
kernLeft = KO_H;
kernRight = KO_E;
lastChange = "2026-03-20 12:00:31 +0000";
layers = (
{
anchors = (
{
name = bottom;
pos = (350,0);
},
{
name = ogonek;
pos = (580,0);
},
{
name = top;
pos = (350,700);
},
{
name = topleft;
pos = (49,700);
}
);
layerId = "0EDB233F-674C-46BF-8D38-84A6CD2C2EDF";
shapes = (
{
closed = 1;
nodes = (
(605,0,l),
(605,165,l),
(276,165,l),
(276,273,l),
(567,273,l),
(567,427,l),
(276,427,l),
(276,535,l),
(605,535,l),
(605,700,l),
(76,700,l),
(76,0,l)
);
}
);
width = 657;
},
{
anchors = (
{
name = bottom;
pos = (309,0);
},
{
name = ogonek;
pos = (507,0);
},
{
name = top;
pos = (309,700);
},
{
name = topleft;
pos = (14,700);
}
);
layerId = "9C56164D-AE66-4588-951C-3236F4A2688E";
shapes = (
{
closed = 1;
nodes = (
(529,0,l),
(529,32,l),
(136,32,l),
(136,334,l),
(511,334,l),
(511,366,l),
(136,366,l),
(136,668,l),
(529,668,l),
(529,700,l),
(101,700,l),
(101,0,l)
);
}
);
width = 596;
},
{
anchors = (
{
name = bottom;
pos = (327,0);
},
{
name = ogonek;
pos = (529,0);
},
{
name = top;
pos = (327,700);
},
{
name = topleft;
pos = (19,700);
}
);
layerId = "0F6921E6-B6DE-4419-A3CD-177DEB844CC2";
shapes = (
{
closed = 1;
nodes = (
(563,0,l),
(563,97,l),
(190,97,l),
(190,304,l),
(545,304,l),
(545,396,l),
(190,396,l),
(190,603,l),
(563,603,l),
(563,700,l),
(89,700,l),
(89,0,l)
);
}
);
width = 641;
}
);
metricLeft = H;
unicode = 69;
userData = {
KernOnName = E;
com.schriftgestaltung.Glyphs.ColorIndex = 3;
com.schriftgestaltung.Glyphs.layer.leftMetricsKey = "==H";
com.schriftgestaltung.Glyphs.leftMetricsKey = H;
};
},
{
glyphname = Ecircumflexdotbelow;
kernLeft = KO_H;
kernRight = KO_E;
lastChange = "2026-03-20 12:00:31 +0000";
layers = (
{
anchors = (
{
name = bottom;
pos = (350,-204);
},
{
name = ogonek;
pos = (580,0);
},
{
name = top;
pos = (350,920);
},
{
name = topleft;
pos = (49,700);
}
);
layerId = "0EDB233F-674C-46BF-8D38-84A6CD2C2EDF";
shapes = (
{
closed = 1;
nodes = (
(458,-204,l),
(458,-72,l),
(241,-72,l),
(241,-204,l)
);
},
{
closed = 1;
nodes = (
(300,772,l),
(327,810,l),
(340,840,ls),
(343,848,o),
(355,848,o),
(358,840,cs),
(371,810,l),
(398,772,l),
(536,772,l),
(447,914,l),
(251,914,l),
(162,772,l)
);
},
{
ref = E;
}
);
width = 657;
},
{
anchors = (
{
name = bottom;
pos = (309,-226);
},
{
name = ogonek;
pos = (507,0);
},
{
name = top;
pos = (309,891);
},
{
name = topleft;
pos = (14,700);
}
);
layerId = "9C56164D-AE66-4588-951C-3236F4A2688E";
shapes = (
{
closed = 1;
nodes = (
(326,-226,l),
(326,-108,l),
(292,-108,l),
(292,-226,l)
);
},
{
closed = 1;
nodes = (
(229,794,l),
(289,883,l),
(302,910,ls),
(305,916,o),
(313,916,o),
(316,910,cs),
(329,883,l),
(389,794,l),
(419,794,l),
(327,936,l),
(291,936,l),
(199,794,l)
);
},
{
ref = E;
}
);
width = 596;
},
{
anchors = (
{
name = bottom;
pos = (327,-215);
},
{
name = ogonek;
pos = (529,0);
},
{
name = top;
pos = (327,915);
},
{
name = topleft;
pos = (19,700);
}
);
layerId = "0F6921E6-B6DE-4419-A3CD-177DEB844CC2";
shapes = (
{
closed = 1;
nodes = (
(378,-215,l),
(378,-97,l),
(276,-97,l),
(276,-215,l)
);
},
{
closed = 1;
nodes = (
(267,783,l),
(308,843,l),
(319,873,ls),
(323,880,o),
(329,881,o),
(333,873,cs),
(345,843,l),
(386,783,l),
(469,783,l),
(376,925,l),
(277,925,l),
(184,783,l)
);
},
{
ref = E;
}
);
width = 641;
}
);
unicode = 7878;
},
{
glyphname = Edotbelow;
kernLeft = KO_H;
kernRight = KO_E;
lastChange = "2026-03-20 12:00:31 +0000";
layers = (
{
anchors = (
{
name = bottom;
pos = (350,-204);
},
{
name = ogonek;
pos = (580,0);
},
{
name = top;
pos = (350,700);
},
{
name = topleft;
pos = (49,700);
}
);
background = {
shapes = (
{
ref = E;
},
{
pos = (49,0);
ref = dotbelowcomb;
}
);
};
layerId = "0EDB233F-674C-46BF-8D38-84A6CD2C2EDF";
shapes = (
{
closed = 1;
nodes = (
(605,0,l),
(605,165,l),
(276,165,l),
(276,273,l),
(567,273,l),
(567,427,l),
(276,427,l),
(276,535,l),
(605,535,l),
(605,700,l),
(76,700,l),
(76,0,l)
);
},
{
closed = 1;
nodes = (
(458,-204,l),
(458,-72,l),
(241,-72,l),
(241,-204,l)
);
}
);
width = 657;
},
{
anchors = (
{
name = bottom;
pos = (309,-226);
},
{
name = ogonek;
pos = (507,0);
},
{
name = top;
pos = (309,700);
},
{
name = topleft;
pos = (14,700);
}
);
layerId = "9C56164D-AE66-4588-951C-3236F4A2688E";
shapes = (
{
closed = 1;
nodes = (
(529,0,l),
(529,32,l),
(136,32,l),
(136,334,l),
(511,334,l),
(511,366,l),
(136,366,l),
(136,668,l),
(529,668,l),
(529,700,l),
(101,700,l),
(101,0,l)
);
},
{
closed = 1;
nodes = (
(326,-226,l),
(326,-108,l),
(292,-108,l),
(292,-226,l)
);
}
);
width = 596;
},
{
anchors = (
{
name = bottom;
pos = (327,-215);
},
{
name = ogonek;
pos = (529,0);
},
{
name = top;
pos = (327,700);
},
{
name = topleft;
pos = (19,700);
}
);
layerId = "0F6921E6-B6DE-4419-A3CD-177DEB844CC2";
shapes = (
{
closed = 1;
nodes = (
(563,0,l),
(563,97,l),
(190,97,l),
(190,304,l),
(545,304,l),
(545,396,l),
(190,396,l),
(190,603,l),
(563,603,l),
(563,700,l),
(89,700,l),
(89,0,l)
);
},
{
closed = 1;
nodes = (
(378,-215,l),
(378,-97,l),
(276,-97,l),
(276,-215,l)
);
}
);
width = 641;
}
);
unicode = 7864;
},
{
glyphname = Schwa;
kernRight = KO_O;
lastChange = "2026-03-20 12:00:31 +0000";
layers = (
{
anchors = (
{
name = "abkhasian-hook.case";
pos = (636,412);
},
{
name = bottom;
pos = (388,0);
},
{
name = top;
pos = (387,700);
}
);
layerId = "0EDB233F-674C-46BF-8D38-84A6CD2C2EDF";
shapes = (
{
closed = 1;
nodes = (
(580,-12,o),
(735,121,o),
(735,341,cs),
(735,544,o),
(623,711,o),
(357,711,cs),
(273,711,o),
(168,689,o),
(87,647,c),
(106,503,l),
(186,538,o),
(263,554,o),
(336,554,cs),
(483,554,o),
(547,479,o),
(547,341,cs),
(547,238,o),
(507,148,o),
(369,148,cs),
(271,148,o),
(223,195,o),
(215,258,c),
(636,258,l),
(636,412,l),
(57,412,l),
(40,304,l),
(41,115,o),
(154,-12,o),
(369,-12,cs)
);
}
);
width = 775;
},
{
anchors = (
{
name = "abkhasian-hook.case";
pos = (683,331);
},
{
name = bottom;
pos = (383,0);
},
{
name = top;
pos = (383,700);
}
);
layerId = "9C56164D-AE66-4588-951C-3236F4A2688E";
shapes = (
{
closed = 1;
nodes = (
(567,-11,o),
(703,134,o),
(703,355,cs),
(703,571,o),
(565,712,o),
(372,712,cs),
(283,712,o),
(193,693,o),
(118,642,c),
(128,613,l),
(206,665,o),
(278,680,o),
(372,680,cs),
(542,680,o),
(667,554,o),
(667,355,cs),
(667,147,o),
(540,20,o),
(372,20,cs),
(145,20,o),
(94,187,o),
(94,301,c),
(683,301,l),
(683,331,l),
(66,331,l),
(63,305,l),
(68,158,o),
(129,-11,o),
(372,-11,cs)
);
}
);
width = 766;
},
{
anchors = (
{
name = "abkhasian-hook.case";
pos = (636,367);
},
{
name = bottom;
pos = (375,0);
},
{
name = top;
pos = (375,700);
}
);
layerId = "0F6921E6-B6DE-4419-A3CD-177DEB844CC2";
shapes = (
{
closed = 1;
nodes = (
(621,-8,o),
(703,201,o),
(703,341,cs),
(703,536,o),
(595,712,o),
(348,712,cs),
(260,712,o),
(171,691,o),
(102,645,c),
(120,559,l),
(189,600,o),
(275,618,o),
(345,618,cs),
(494,618,o),
(590,524,o),
(590,341,cs),
(590,189,o),
(496,85,o),
(364,85,cs),
(193,85,o),
(146,198,o),
(142,286,c),
(637,286,l),
(636,367,l),
(56,367,l),
(52,317,l),
(52,166,o),
(124,-8,o),
(364,-8,cs)
);
}
);
width = 755;
}
);
metricLeft = O;
metricRight = O;
unicode = 399;
},
{
glyphname = Ezh;
lastChange = "2026-03-20 12:00:31 +0000";
layers = (
{
anchors = (
{
name = bottom;
pos = (306,0);
},
{
name = top;
pos = (306,700);
}
);
background = {
shapes = (
{
ref = three;
}
);
};
layerId = "0EDB233F-674C-46BF-8D38-84A6CD2C2EDF";
shapes = (
{
closed = 1;
nodes = (
(454,-11,o),
(623,63,o),
(623,218,cs),
(623,335,o),
(512,428,o),
(340,434,c),
(353,377,l),
(577,559,l),
(577,700,l),
(49,700,l),
(49,530,l),
(287,530,ls),
(302,530,o),
(308,517,o),
(295,507,cs),
(259,485,l),
(169,410,l),
(169,292,l),
(276,292,ls),
(375,292,o),
(426,275,o),
(426,230,cs),
(426,186,o),
(377,166,o),
(292,166,cs),
(217,166,o),
(154,175,o),
(80,228,c),
(19,62,l),
(108,3,o),
(199,-11,o),
(309,-11,cs)
);
}
);
width = 671;
},
{
anchors = (
{
name = bottom;
pos = (307,0);
},
{
name = top;
pos = (307,700);
}
);
layerId = "9C56164D-AE66-4588-951C-3236F4A2688E";
shapes = (
{
closed = 1;
nodes = (
(442,-8,o),
(553,69,o),
(553,194,cs),
(553,314,o),
(449,398,o),
(216,394,c),
(226,380,l),
(545,685,l),
(545,700,l),
(96,700,l),
(96,669,l),
(478,669,ls),
(485,669,o),
(488,664,o),
(480,658,cs),
(437,624,l),
(187,381,l),
(187,363,l),
(232,363,ls),
(425,363,o),
(519,296,o),
(519,194,cs),
(519,92,o),
(424,24,o),
(291,24,cs),
(208,24,o),
(116,52,o),
(58,95,c),
(43,67,l),
(109,21,o),
(207,-8,o),
(291,-8,cs)
);
}
);
width = 632;
},
{
anchors = (
{
name = bottom;
pos = (304,0);
},
{
name = top;
pos = (304,700);
}
);
layerId = "0F6921E6-B6DE-4419-A3CD-177DEB844CC2";
shapes = (
{
closed = 1;
nodes = (
(434,-8,o),
(572,53,o),
(572,208,cs),
(572,347,o),
(459,414,o),
(245,416,c),
(274,381,l),
(544,637,l),
(544,700,l),
(72,700,l),
(72,611,l),
(386,611,ls),
(395,611,o),
(400,606,o),
(390,599,cs),
(349,566,l),
(171,385,l),
(171,325,l),
(255,325,ls),
(402,325,o),
(471,279,o),
(471,206,cs),
(471,135,o),
(402,87,o),
(289,87,cs),
(206,87,o),
(131,111,o),
(73,153,c),
(36,66,l),
(111,14,o),
(197,-8,o),
(294,-8,cs)
);
}
);
width = 643;
}
);
metricRight = B;
unicode = 439;
},
{
glyphname = F;
kernLeft = KO_H;
kernRight = KO_F;
lastChange = "2026-03-20 12:00:31 +0000";
layers = (
{
anchors = (
{
name = bottom;
pos = (287,0);
},
{
name = center;
pos = (204,124);
},
{
name = ogonek;
pos = (580,0);
},
{
name = top;
pos = (287,700);
},
{
name = topleft;
pos = (49,700);
}
);
layerId = "0EDB233F-674C-46BF-8D38-84A6CD2C2EDF";
shapes = (
{
closed = 1;
nodes = (
(286,0,l),
(286,255,l),
(567,255,l),
(567,415,l),
(286,415,l),
(286,520,l),
(605,520,l),
(605,700,l),
(76,700,l),
(76,0,l)
);
}
);
width = 643;
},
{
anchors = (
{
name = bottom;
pos = (259,0);
},
{
name = center;
pos = (146,176);
},
{
name = ogonek;
pos = (507,0);
},
{
name = top;
pos = (259,700);
},
{
name = topleft;
pos = (14,700);
}
);
layerId = "9C56164D-AE66-4588-951C-3236F4A2688E";
shapes = (
{
closed = 1;
nodes = (
(136,0,l),
(136,334,l),
(511,334,l),
(511,366,l),
(136,366,l),
(136,668,l),
(529,668,l),
(529,700,l),
(101,700,l),
(101,0,l)
);
}
);
width = 580;
},
{
anchors = (
{
name = bottom;
pos = (268,0);
},
{
name = center;
pos = (152,160);
},
{
name = ogonek;
pos = (529,0);
},
{
name = top;
pos = (268,700);
},
{
name = topleft;
pos = (19,700);
}
);
layerId = "0F6921E6-B6DE-4419-A3CD-177DEB844CC2";
shapes = (
{
closed = 1;
nodes = (
(190,0,l),
(190,304,l),
(545,304,l),
(545,396,l),
(190,396,l),
(190,603,l),
(563,603,l),
(563,700,l),
(89,700,l),
(89,0,l)
);
}
);
width = 607;
}
);
metricLeft = H;
unicode = 70;
userData = {
KernOnName = F;
com.schriftgestaltung.Glyphs.ColorIndex = 3;
com.schriftgestaltung.Glyphs.layer.leftMetricsKey = "==H";
com.schriftgestaltung.Glyphs.leftMetricsKey = H;
};
},
{
glyphname = G;
kernLeft = KO_O;
kernRight = KO_G;
lastChange = "2026-03-20 12:00:31 +0000";
layers = (
{
anchors = (
{
name = bottom;
pos = (444,0);
},
{
name = top;
pos = (434,700);
}
);
background = {
shapes = (
{
pos = (-10,0);
ref = O;
},
{
pos = (-10,0);
ref = C;
}
);
};
layerId = "0EDB233F-674C-46BF-8D38-84A6CD2C2EDF";
shapes = (
{
closed = 1;
nodes = (
(539,-12,o),
(633,11,o),
(712,54,c),
(712,426,l),
(425,426,l),
(425,266,l),
(531,266,l),
(531,160,l),
(505,153,o),
(476,150,o),
(449,150,cs),
(326,150,o),
(255,224,o),
(255,350,cs),
(255,470,o),
(339,540,o),
(486,540,cs),
(537,540,o),
(593,531,o),
(635,515,c),
(689,663,l),
(623,695,o),
(544,712,o),
(454,712,cs),
(201,712,o),
(40,572,o),
(40,350,cs),
(40,128,o),
(192,-12,o),
(432,-12,cs)
);
}
);
width = 778;
},
{
anchors = (
{
name = bottom;
pos = (433,0);
},
{
name = top;
pos = (406,700);
}
);
layerId = "9C56164D-AE66-4588-951C-3236F4A2688E";
shapes = (
{
closed = 1;
nodes = (
(523,-12,o),
(610,15,o),
(677,64,c),
(677,366,l),
(376,366,l),
(376,334,l),
(644,334,l),
(643,78,l),
(585,40,o),
(511,20,o),
(424,20,cs),
(228,20,o),
(101,149,o),
(101,351,cs),
(101,551,o),
(229,680,o),
(426,680,cs),
(513,680,o),
(588,659,o),
(646,622,c),
(656,655,l),
(594,692,o),
(516,712,o),
(426,712,cs),
(209,712,o),
(63,568,o),
(63,351,cs),
(63,133,o),
(208,-12,o),
(424,-12,cs)
);
}
);
width = 768;
},
{
anchors = (
{
name = bottom;
pos = (438,0);
},
{
name = top;
pos = (419,700);
}
);
layerId = "0F6921E6-B6DE-4419-A3CD-177DEB844CC2";
shapes = (
{
closed = 1;
nodes = (
(519,-12,o),
(613,22,o),
(685,84,c),
(685,398,l),
(391,398,l),
(391,302,l),
(589,302,l),
(589,131,l),
(544,103,o),
(489,85,o),
(420,85,cs),
(258,85,o),
(163,189,o),
(163,350,cs),
(163,511,o),
(265,615,o),
(439,615,cs),
(513,615,o),
(572,599,o),
(618,574,c),
(649,660,l),
(591,693,o),
(521,712,o),
(439,712,cs),
(202,712,o),
(52,558,o),
(52,350,cs),
(52,142,o),
(194,-12,o),
(420,-12,cs)
);
}
);
width = 764;
}
);
metricLeft = O;
unicode = 71;
userData = {
KernOnName = G;
com.schriftgestaltung.Glyphs.ColorIndex = 3;
com.schriftgestaltung.Glyphs.layer.leftMetricsKey = "==O";
com.schriftgestaltung.Glyphs.leftMetricsKey = O;
};
},
{
glyphname = Gstroke;
lastChange = "2026-03-20 12:00:31 +0000";
layers = (
{
anchors = (
{
name = bottom;
pos = (352,0);
},
{
name = top;
pos = (352,700);
}
);
background = {
anchors = (
{
name = bottom;
pos = (344,0);
},
{
name = top;
pos = (344,700);
}
);
shapes = (
{
ref = G;
}
);
};
layerId = "0EDB233F-674C-46BF-8D38-84A6CD2C2EDF";
shapes = (
{
closed = 1;
nodes = (
(529,-12,o),
(613,11,o),
(692,54,c),
(692,440,l),
(511,440,l),
(511,160,l),
(485,153,o),
(466,150,o),
(439,150,cs),
(326,150,o),
(255,224,o),
(255,350,cs),
(255,476,o),
(339,550,o),
(486,550,cs),
(537,550,o),
(593,538,o),
(635,515,c),
(689,663,l),
(623,695,o),
(544,712,o),
(454,712,cs),
(201,712,o),
(40,572,o),
(40,350,cs),
(40,128,o),
(192,-12,o),
(422,-12,cs)
);
},
{
closed = 1;
nodes = (
(765,223,l),
(765,383,l),
(438,383,l),
(438,223,l)
);
}
);
width = 795;
},
{
anchors = (
{
name = bottom;
pos = (365,0);
},
{
name = top;
pos = (365,700);
}
);
layerId = "9C56164D-AE66-4588-951C-3236F4A2688E";
shapes = (
{
closed = 1;
nodes = (
(494,-12,o),
(572,15,o),
(631,64,c),
(631,366,l),
(597,366,l),
(596,78,l),
(546,40,o),
(481,20,o),
(405,20,cs),
(228,20,o),
(101,149,o),
(101,351,cs),
(101,551,o),
(229,680,o),
(426,680,cs),
(513,680,o),
(588,659,o),
(646,622,c),
(656,655,l),
(594,692,o),
(516,712,o),
(426,712,cs),
(209,712,o),
(63,568,o),
(63,351,cs),
(63,133,o),
(208,-12,o),
(405,-12,cs)
);
},
{
closed = 1;
nodes = (
(744,196,l),
(744,228,l),
(493,228,l),
(493,196,l)
);
}
);
width = 792;
},
{
anchors = (
{
name = bottom;
pos = (360,0);
},
{
name = top;
pos = (360,700);
}
);
layerId = "0F6921E6-B6DE-4419-A3CD-177DEB844CC2";
shapes = (
{
closed = 1;
nodes = (
(499,-12,o),
(593,23,o),
(663,84,c),
(663,398,l),
(567,398,l),
(567,131,l),
(522,103,o),
(468,85,o),
(410,85,cs),
(258,85,o),
(163,189,o),
(163,350,cs),
(163,511,o),
(265,615,o),
(439,615,cs),
(513,615,o),
(572,599,o),
(618,574,c),
(649,660,l),
(591,693,o),
(521,712,o),
(439,712,cs),
(202,712,o),
(52,558,o),
(52,350,cs),
(52,142,o),
(194,-12,o),
(410,-12,cs)
);
},
{
closed = 1;
nodes = (
(753,208,l),
(753,305,l),
(471,305,l),
(471,208,l)
);
}
);
width = 794;
}
);
unicode = 484;
},
{
glyphname = H;
kernLeft = KO_H;
kernRight = KO_H;
lastChange = "2026-03-20 12:00:31 +0000";
layers = (
{
anchors = (
{
name = bottom;
pos = (398,0);
},
{
name = bottomright;
pos = (720,0);
},
{
name = center;
pos = (398,563);
},
{
name = top;
pos = (398,700);
},
{
name = topleft;
pos = (41,700);
}
);
layerId = "0EDB233F-674C-46BF-8D38-84A6CD2C2EDF";
shapes = (
{
closed = 1;
nodes = (
(286,0,l),
(286,264,l),
(510,264,l),
(510,0,l),
(720,0,l),
(720,700,l),
(510,700,l),
(510,434,l),
(286,434,l),
(286,700,l),
(76,700,l),
(76,0,l)
);
}
);
width = 796;
},
{
anchors = (
{
name = bottom;
pos = (353,0);
},
{
name = bottomright;
pos = (604,0);
},
{
name = center;
pos = (353,517);
},
{
name = top;
pos = (353,700);
},
{
name = topleft;
pos = (10,700);
}
);
layerId = "9C56164D-AE66-4588-951C-3236F4A2688E";
shapes = (
{
closed = 1;
nodes = (
(136,0,l),
(136,334,l),
(569,334,l),
(569,0,l),
(604,0,l),
(604,700,l),
(569,700,l),
(569,366,l),
(136,366,l),
(136,700,l),
(101,700,l),
(101,0,l)
);
}
);
width = 706;
},
{
anchors = (
{
name = bottom;
pos = (370,0);
},
{
name = bottomright;
pos = (652,0);
},
{
name = center;
pos = (370,536);
},
{
name = top;
pos = (370,700);
},
{
name = topleft;
pos = (25,700);
}
);
layerId = "0F6921E6-B6DE-4419-A3CD-177DEB844CC2";
shapes = (
{
closed = 1;
nodes = (
(196,0,l),
(196,302,l),
(544,302,l),
(544,0,l),
(652,0,l),
(652,700,l),
(544,700,l),
(544,398,l),
(196,398,l),
(196,700,l),
(89,700,l),
(89,0,l)
);
}
);
width = 741;
}
);
unicode = 72;
userData = {
KernOnName = H;
com.schriftgestaltung.Glyphs.ColorIndex = 3;
};
},
{
glyphname = Hbar;
lastChange = "2026-03-20 12:00:31 +0000";
layers = (
{
layerId = "0EDB233F-674C-46BF-8D38-84A6CD2C2EDF";
shapes = (
{
closed = 1;
nodes = (
(869,492,l),
(869,636,l),
(30,636,l),
(30,492,l)
);
},
{
pos = (64,0);
ref = H;
}
);
width = 899;
},
{
layerId = "9C56164D-AE66-4588-951C-3236F4A2688E";
shapes = (
{
closed = 1;
nodes = (
(767,502,l),
(767,532,l),
(21,532,l),
(21,502,l)
);
},
{
pos = (31,0);
ref = H;
}
);
width = 787;
},
{
layerId = "0F6921E6-B6DE-4419-A3CD-177DEB844CC2";
shapes = (
{
closed = 1;
nodes = (
(809,495,l),
(809,577,l),
(25,577,l),
(25,495,l)
);
},
{
pos = (45,0);
ref = H;
}
);
width = 834;
}
);
metricLeft = t;
metricRight = "=|t";
unicode = 294;
},
{
color = 4;
glyphname = I;
kernLeft = KO_I;
kernRight = KO_I;
lastChange = "2026-03-20 12:00:31 +0000";
layers = (
{
anchors = (
{
name = bottom;
pos = (181,0);
},
{
name = center;
pos = (181,350);
},
{
name = ogonek;
pos = (286,0);
},
{
name = top;
pos = (181,700);
},
{
name = topleft;
pos = (20,700);
}
);
layerId = "0EDB233F-674C-46BF-8D38-84A6CD2C2EDF";
shapes = (
{
closed = 1;
nodes = (
(286,0,l),
(286,700,l),
(76,700,l),
(76,0,l)
);
}
);
width = 362;
},
{
anchors = (
{
name = bottom;
pos = (119,0);
},
{
name = center;
pos = (120,350);
},
{
name = ogonek;
pos = (136,0);
},
{
name = top;
pos = (119,700);
},
{
name = topleft;
pos = (20,700);
}
);
layerId = "9C56164D-AE66-4588-951C-3236F4A2688E";
shapes = (
{
closed = 1;
nodes = (
(136,0,l),
(136,700,l),
(101,700,l),
(101,0,l)
);
}
);
width = 237;
},
{
anchors = (
{
name = bottom;
pos = (143,0);
},
{
name = center;
pos = (143,350);
},
{
name = ogonek;
pos = (195,0);
},
{
name = top;
pos = (142,700);
},
{
name = topleft;
pos = (20,700);
}
);
layerId = "0F6921E6-B6DE-4419-A3CD-177DEB844CC2";
shapes = (
{
closed = 1;
nodes = (
(195,0,l),
(195,700,l),
(89,700,l),
(89,0,l)
);
}
);
width = 285;
}
);
unicode = 73;
userData = {
KernOnName = I;
com.schriftgestaltung.Glyphs.ColorIndex = 3;
};
},
{
glyphname = IJ;
kernLeft = KO_I;
kernRight = KO_J;
lastChange = "2026-03-20 12:00:31 +0000";
layers = (
{
background = {
shapes = (
{
ref = I;
},
{
pos = (362,0);
ref = _part.Jcomb;
}
);
};
layerId = "0EDB233F-674C-46BF-8D38-84A6CD2C2EDF";
shapes = (
{
closed = 1;
nodes = (
(286,0,l),
(286,700,l),
(76,700,l),
(76,0,l)
);
},
{
closed = 1;
nodes = (
(677,-12,o),
(783,85,o),
(783,264,cs),
(783,700,l),
(573,700,l),
(573,264,ls),
(573,202,o),
(543,171,o),
(485,171,cs),
(448,171,o),
(424,175,o),
(397,181,c),
(397,3,l),
(425,-7,o),
(457,-12,o),
(502,-12,cs)
);
}
);
width = 859;
},
{
layerId = "9C56164D-AE66-4588-951C-3236F4A2688E";
shapes = (
{
closed = 1;
nodes = (
(136,0,l),
(136,700,l),
(101,700,l),
(101,0,l)
);
},
{
closed = 1;
nodes = (
(474,-12,o),
(545,41,o),
(545,146,cs),
(545,700,l),
(510,700,l),
(510,146,ls),
(510,61,o),
(452,20,o),
(377,20,cs),
(320,20,o),
(269,44,o),
(247,77,c),
(247,39,l),
(275,9,o),
(327,-12,o),
(379,-12,cs)
);
}
);
width = 647;
},
{
layerId = "0F6921E6-B6DE-4419-A3CD-177DEB844CC2";
shapes = (
{
closed = 1;
nodes = (
(195,0,l),
(195,700,l),
(89,700,l),
(89,0,l)
);
},
{
closed = 1;
nodes = (
(556,-12,o),
(637,57,o),
(637,177,cs),
(637,700,l),
(531,700,l),
(531,177,ls),
(531,117,o),
(486,87,o),
(414,87,cs),
(374,87,o),
(330,94,o),
(305,112,c),
(305,13,l),
(342,-3,o),
(387,-12,o),
(431,-12,cs)
);
}
);
width = 727;
}
);
unicode = 306;
},
{
color = 4;
glyphname = Idieresis;
kernLeft = KO_I;
kernRight = KO_I;
lastChange = "2026-03-20 12:00:31 +0000";
layers = (
{
anchors = (
{
name = bottom;
pos = (181,0);
},
{
name = center;
pos = (181,350);
},
{
name = ogonek;
pos = (286,0);
},
{
name = top;
pos = (181,893);
},
{
name = topleft;
pos = (20,700);
}
);
layerId = "0EDB233F-674C-46BF-8D38-84A6CD2C2EDF";
shapes = (
{
closed = 1;
nodes = (
(286,0,l),
(286,700,l),
(76,700,l),
(76,0,l)
);
},
{
closed = 1;
nodes = (
(360,772,l),
(360,904,l),
(211,904,l),
(211,772,l)
);
},
{
closed = 1;
nodes = (
(151,772,l),
(151,904,l),
(2,904,l),
(2,772,l)
);
}
);
width = 362;
},
{
anchors = (
{
name = bottom;
pos = (119,0);
},
{
name = center;
pos = (120,350);
},
{
name = ogonek;
pos = (136,0);
},
{
name = top;
pos = (119,885);
},
{
name = topleft;
pos = (20,700);
}
);
layerId = "9C56164D-AE66-4588-951C-3236F4A2688E";
shapes = (
{
closed = 1;
nodes = (
(136,0,l),
(136,700,l),
(101,700,l),
(101,0,l)
);
},
{
closed = 1;
nodes = (
(198,808,l),
(198,926,l),
(164,926,l),
(164,808,l)
);
},
{
closed = 1;
nodes = (
(72,808,l),
(72,926,l),
(39,926,l),
(39,808,l)
);
}
);
width = 237;
},
{
anchors = (
{
name = bottom;
pos = (143,0);
},
{
name = center;
pos = (143,350);
},
{
name = ogonek;
pos = (195,0);
},
{
name = top;
pos = (142,912);
},
{
name = topleft;
pos = (20,700);
}
);
layerId = "0F6921E6-B6DE-4419-A3CD-177DEB844CC2";
shapes = (
{
closed = 1;
nodes = (
(195,0,l),
(195,700,l),
(89,700,l),
(89,0,l)
);
},
{
closed = 1;
nodes = (
(271,797,l),
(271,915,l),
(179,915,l),
(179,797,l)
);
},
{
closed = 1;
nodes = (
(105,797,l),
(105,915,l),
(12,915,l),
(12,797,l)
);
}
);
width = 285;
}
);
unicode = 207;
},
{
glyphname = Istroke;
lastChange = "2026-03-20 13:07:26 +0000";
layers = (
{
layerId = "0EDB233F-674C-46BF-8D38-84A6CD2C2EDF";
shapes = (
{
ref = I;
},
{
closed = 1;
nodes = (
(368,268,l),
(368,422,l),
(-5,422,l),
(-5,268,l)
);
}
);
width = 362;
},
{
layerId = "9C56164D-AE66-4588-951C-3236F4A2688E";
shapes = (
{
ref = I;
},
{
closed = 1;
nodes = (
(248,335,l),
(248,364,l),
(-11,364,l),
(-11,335,l)
);
}
);
width = 237;
},
{
layerId = "0F6921E6-B6DE-4419-A3CD-177DEB844CC2";
shapes = (
{
alignment = -1;
ref = I;
},
{
closed = 1;
nodes = (
(296,308,l),
(296,392,l),
(-11,392,l),
(-11,308,l)
);
}
);
width = 285;
}
);
unicode = 407;
},
{
glyphname = J;
kernLeft = KO_J;
kernRight = KO_J;
lastChange = "2026-03-20 12:00:31 +0000";
layers = (
{
anchors = (
{
name = bottom;
pos = (214,0);
},
{
name = top;
pos = (355,700);
}
);
layerId = "0EDB233F-674C-46BF-8D38-84A6CD2C2EDF";
shapes = (
{
closed = 1;
nodes = (
(352,-12,o),
(458,85,o),
(458,264,cs),
(458,700,l),
(248,700,l),
(248,264,l),
(248,202,o),
(218,171,o),
(160,171,cs),
(123,171,o),
(99,178,o),
(72,194,c),
(10,33,l),
(60,4,o),
(98,-12,o),
(177,-12,cs)
);
}
);
width = 534;
},
{
anchors = (
{
name = bottom;
pos = (214,0);
},
{
name = top;
pos = (303,700);
}
);
layerId = "9C56164D-AE66-4588-951C-3236F4A2688E";
shapes = (
{
closed = 1;
nodes = (
(249,-12,o),
(321,41,o),
(321,146,cs),
(321,700,l),
(286,700,l),
(286,146,ls),
(286,61,o),
(229,20,o),
(155,20,cs),
(97,20,o),
(43,48,o),
(22,91,c),
(10,57,l),
(35,15,o),
(93,-12,o),
(155,-12,cs)
);
}
);
width = 422;
},
{
anchors = (
{
name = bottom;
pos = (214,0);
},
{
name = top;
pos = (323,700);
}
);
layerId = "0F6921E6-B6DE-4419-A3CD-177DEB844CC2";
shapes = (
{
closed = 1;
nodes = (
(296,-12,o),
(377,57,o),
(377,177,cs),
(377,700,l),
(270,700,l),
(270,177,ls),
(270,116,o),
(232,85,o),
(171,85,cs),
(124,85,o),
(73,99,o),
(42,135,c),
(10,47,l),
(54,8,o),
(113,-12,o),
(171,-12,cs)
);
}
);
width = 466;
}
);
metricRight = H;
unicode = 74;
userData = {
KernOnName = J;
com.schriftgestaltung.Glyphs.ColorIndex = 3;
com.schriftgestaltung.Glyphs.layer.rightMetricsKey = "==H";
com.schriftgestaltung.Glyphs.rightMetricsKey = H;
com.typemytype.robofont.layerData = {
background = {
anchors = (
);
components = (
);
contours = (
{
points = (
{
segmentType = line;
smooth = 0;
x = 455;
y = 700;
},
{
segmentType = line;
smooth = 0;
x = 313;
y = 700;
},
{
segmentType = line;
smooth = 0;
x = 313;
y = 190;
},
{
smooth = 0;
x = 313;
y = 157;
},
{
smooth = 0;
x = 305;
y = 116;
},
{
segmentType = curve;
smooth = 1;
x = 254;
y = 116;
},
{
smooth = 0;
x = 209;
y = 116;
},
{
smooth = 0;
x = 185;
y = 123;
},
{
segmentType = curve;
smooth = 0;
x = 153;
y = 139;
},
{
segmentType = line;
smooth = 0;
x = 127;
y = 19;
},
{
smooth = 0;
x = 162;
y = -1;
},
{
smooth = 0;
x = 210;
y = -12;
},
{
segmentType = curve;
smooth = 1;
x = 254;
y = -12;
},
{
smooth = 0;
x = 425;
y = -12;
},
{
smooth = 0;
x = 455;
y = 97;
},
{
segmentType = curve;
smooth = 0;
x = 455;
y = 190;
}
);
}
);
lib = {
};
name = J;
unicodes = (
);
width = 447;
};
};
};
},
{
glyphname = K;
kernLeft = KO_H;
kernRight = KO_K;
lastChange = "2026-03-20 12:00:31 +0000";
layers = (
{
anchors = (
{
name = bottom;
pos = (385,0);
},
{
name = bottomright;
pos = (665,0);
},
{
name = center;
pos = (170,586);
},
{
name = top;
pos = (385,700);
}
);
background = {
shapes = (
{
ref = K.cv01;
},
{
ref = H;
}
);
};
layerId = "0EDB233F-674C-46BF-8D38-84A6CD2C2EDF";
shapes = (
{
closed = 1;
nodes = (
(286,0,l),
(286,270,l),
(453,270,l),
(719,700,l),
(499,700,l),
(335,430,l),
(286,430,l),
(286,700,l),
(76,700,l),
(76,0,l)
);
},
{
closed = 1;
nodes = (
(725,0,l),
(517,412,l),
(352,284,l),
(491,0,l)
);
}
);
width = 746;
},
{
anchors = (
{
name = bottom;
pos = (304,0);
},
{
name = bottomright;
pos = (551,0);
},
{
name = center;
pos = (119,547);
},
{
name = top;
pos = (304,700);
}
);
layerId = "9C56164D-AE66-4588-951C-3236F4A2688E";
shapes = (
{
closed = 1;
nodes = (
(136,0,l),
(136,334,l),
(264,334,l),
(552,700,l),
(511,700,l),
(250,366,l),
(136,366,l),
(136,700,l),
(101,700,l),
(101,0,l)
);
},
{
closed = 1;
nodes = (
(577,0,l),
(273,364,l),
(250,340,l),
(534,0,l)
);
}
);
width = 609;
},
{
anchors = (
{
name = bottom;
pos = (330,0);
},
{
name = bottomright;
pos = (574,0);
},
{
name = center;
pos = (141,572);
},
{
name = top;
pos = (330,700);
}
);
layerId = "0F6921E6-B6DE-4419-A3CD-177DEB844CC2";
shapes = (
{
closed = 1;
nodes = (
(196,0,l),
(196,305,l),
(310,305,l),
(612,700,l),
(498,700,l),
(267,396,l),
(196,396,l),
(196,700,l),
(89,700,l),
(89,0,l)
);
},
{
closed = 1;
nodes = (
(640,0,l),
(351,384,l),
(275,316,l),
(511,0,l)
);
}
);
width = 668;
}
);
metricLeft = H;
unicode = 75;
userData = {
com.schriftgestaltung.Glyphs.ColorIndex = 3;
com.schriftgestaltung.Glyphs.layer.leftMetricsKey = "==H";
com.schriftgestaltung.Glyphs.leftMetricsKey = H;
};
},
{
glyphname = L;
kernLeft = KO_H;
kernRight = KO_L;
lastChange = "2026-03-20 12:00:31 +0000";
layers = (
{
anchors = (
{
name = bottom;
pos = (333,0);
},
{
name = center;
pos = (182,416);
},
{
name = top;
pos = (182,700);
},
{
name = topright;
pos = (421,700);
}
);
layerId = "0EDB233F-674C-46BF-8D38-84A6CD2C2EDF";
shapes = (
{
closed = 1;
nodes = (
(594,0,l),
(594,180,l),
(288,180,l),
(288,700,l),
(76,700,l),
(76,0,l)
);
}
);
width = 604;
},
{
anchors = (
{
name = bottom;
pos = (319,0);
},
{
name = center;
pos = (119,408);
},
{
name = top;
pos = (119,700);
},
{
name = topright;
pos = (394,700);
}
);
layerId = "9C56164D-AE66-4588-951C-3236F4A2688E";
shapes = (
{
closed = 1;
nodes = (
(534,0,l),
(534,32,l),
(138,32,l),
(138,700,l),
(101,700,l),
(101,0,l)
);
}
);
width = 540;
},
{
anchors = (
{
name = bottom;
pos = (333,0);
},
{
name = center;
pos = (144,355);
},
{
name = top;
pos = (144,700);
},
{
name = topright;
pos = (397,700);
}
);
layerId = "0F6921E6-B6DE-4419-A3CD-177DEB844CC2";
shapes = (
{
closed = 1;
nodes = (
(561,0,l),
(561,97,l),
(198,97,l),
(198,700,l),
(89,700,l),
(89,0,l)
);
}
);
width = 568;
}
);
metricLeft = H;
metricRight = T;
unicode = 76;
userData = {
KernOnName = L;
com.schriftgestaltung.Glyphs.ColorIndex = 3;
com.schriftgestaltung.Glyphs.layer.leftMetricsKey = "==H";
com.schriftgestaltung.Glyphs.leftMetricsKey = H;
};
},
{
glyphname = Lj;
lastChange = "2026-03-20 12:00:31 +0000";
layers = (
{
layerId = "0EDB233F-674C-46BF-8D38-84A6CD2C2EDF";
shapes = (
{
closed = 1;
nodes = (
(594,0,l),
(594,180,l),
(288,180,l),
(288,700,l),
(76,700,l),
(76,0,l)
);
},
{
closed = 1;
nodes = (
(744,-222,o),
(870,-164,o),
(870,28,cs),
(870,546,l),
(674,546,l),
(674,28,ls),
(674,-16,o),
(649,-43,o),
(612,-49,c),
(655,-222,l)
);
},
{
closed = 1;
nodes = (
(881,618,l),
(881,750,l),
(664,750,l),
(664,618,l)
);
}
);
width = 936;
},
{
layerId = "9C56164D-AE66-4588-951C-3236F4A2688E";
shapes = (
{
closed = 1;
nodes = (
(534,0,l),
(534,32,l),
(138,32,l),
(138,700,l),
(101,700,l),
(101,0,l)
);
},
{
closed = 1;
nodes = (
(613,-179,o),
(646,-117,o),
(646,2,cs),
(646,524,l),
(611,524,l),
(611,2,l),
(611,-101,o),
(586,-155,o),
(520,-188,c),
(534,-216,l)
);
},
{
closed = 1;
nodes = (
(646,632,l),
(646,750,l),
(611,750,l),
(611,632,l)
);
}
);
width = 737;
},
{
layerId = "0F6921E6-B6DE-4419-A3CD-177DEB844CC2";
shapes = (
{
closed = 1;
nodes = (
(561,0,l),
(561,97,l),
(198,97,l),
(198,700,l),
(89,700,l),
(89,0,l)
);
},
{
closed = 1;
nodes = (
(676,-197,o),
(751,-131,o),
(751,8,cs),
(751,535,l),
(649,535,l),
(649,6,l),
(649,-73,o),
(613,-117,o),
(556,-134,c),
(584,-221,l)
);
},
{
closed = 1;
nodes = (
(751,632,l),
(751,750,l),
(649,750,l),
(649,632,l)
);
}
);
width = 830;
}
);
unicode = 456;
},
{
color = 9;
glyphname = Lj.ss01;
lastChange = "2026-03-20 12:00:31 +0000";
layers = (
{
anchors = (
{
name = bottom;
pos = (779,-250);
},
{
name = center;
pos = (182,416);
},
{
name = top;
pos = (768,753);
},
{
name = topright;
pos = (421,700);
}
);
layerId = "0EDB233F-674C-46BF-8D38-84A6CD2C2EDF";
shapes = (
{
closed = 1;
nodes = (
(594,0,l),
(594,180,l),
(288,180,l),
(288,700,l),
(76,700,l),
(76,0,l)
);
},
{
closed = 1;
nodes = (
(740,-222,o),
(866,-164,o),
(866,28,cs),
(866,546,l),
(670,546,l),
(670,28,ls),
(670,-16,o),
(645,-43,o),
(608,-49,c),
(651,-222,l)
);
},
{
closed = 1;
nodes = (
(877,618,l),
(877,750,l),
(660,750,l),
(660,618,l)
);
}
);
width = 932;
},
{
anchors = (
{
name = bottom;
pos = (628,-250);
},
{
name = center;
pos = (119,408);
},
{
name = top;
pos = (635,709);
},
{
name = topright;
pos = (394,700);
}
);
layerId = "9C56164D-AE66-4588-951C-3236F4A2688E";
shapes = (
{
closed = 1;
nodes = (
(534,0,l),
(534,32,l),
(138,32,l),
(138,700,l),
(101,700,l),
(101,0,l)
);
},
{
closed = 1;
nodes = (
(619,-179,o),
(652,-117,o),
(652,2,cs),
(652,524,l),
(617,524,l),
(617,2,l),
(617,-101,o),
(593,-155,o),
(526,-188,c),
(540,-216,l)
);
},
{
closed = 1;
nodes = (
(652,632,l),
(652,750,l),
(617,750,l),
(617,632,l)
);
}
);
width = 743;
},
{
anchors = (
{
name = bottom;
pos = (701,-250);
},
{
name = center;
pos = (144,355);
},
{
name = top;
pos = (703,746);
},
{
name = topright;
pos = (397,700);
}
);
layerId = "0F6921E6-B6DE-4419-A3CD-177DEB844CC2";
shapes = (
{
closed = 1;
nodes = (
(561,0,l),
(561,97,l),
(198,97,l),
(198,700,l),
(89,700,l),
(89,0,l)
);
},
{
closed = 1;
nodes = (
(679,-197,o),
(753,-131,o),
(753,8,cs),
(753,535,l),
(652,535,l),
(652,6,l),
(652,-73,o),
(617,-116,o),
(558,-134,c),
(587,-221,l)
);
},
{
closed = 1;
nodes = (
(753,632,l),
(753,750,l),
(652,750,l),
(652,632,l)
);
}
);
width = 833;
}
);
},
{
color = 4;
glyphname = Lslash;
lastChange = "2026-03-20 12:00:31 +0000";
layers = (
{
background = {
shapes = (
{
pos = (20,0);
ref = L;
}
);
};
layerId = "0EDB233F-674C-46BF-8D38-84A6CD2C2EDF";
shapes = (
{
closed = 1;
nodes = (
(614,0,l),
(614,180,l),
(307,180,l),
(307,372,l),
(461,480,l),
(461,662,l),
(307,555,l),
(307,700,l),
(96,700,l),
(96,409,l),
(30,363,l),
(30,180,l),
(96,226,l),
(96,0,l)
);
}
);
width = 624;
},
{
layerId = "9C56164D-AE66-4588-951C-3236F4A2688E";
shapes = (
{
closed = 1;
nodes = (
(541,0,l),
(541,32,l),
(143,32,l),
(143,356,l),
(363,508,l),
(363,542,l),
(143,390,l),
(143,700,l),
(107,700,l),
(107,366,l),
(21,307,l),
(21,273,l),
(107,332,l),
(107,0,l)
);
}
);
width = 546;
},
{
layerId = "0F6921E6-B6DE-4419-A3CD-177DEB844CC2";
shapes = (
{
closed = 1;
nodes = (
(576,0,l),
(576,97,l),
(211,97,l),
(211,363,l),
(403,496,l),
(403,590,l),
(211,458,l),
(211,700,l),
(103,700,l),
(103,383,l),
(25,329,l),
(25,235,l),
(103,289,l),
(103,0,l)
);
}
);
width = 583;
}
);
metricLeft = t;
metricRight = L;
unicode = 321;
},
{
glyphname = M;
kernLeft = KO_H;
kernRight = KO_H;
lastChange = "2026-03-20 12:00:31 +0000";
layers = (
{
anchors = (
{
name = bottom;
pos = (474,0);
},
{
name = bottomright;
pos = (873,0);
},
{
name = top;
pos = (474,700);
}
);
background = {
shapes = (
{
closed = 1;
nodes = (
(316,0,l),
(316,199,l),
(288,360,ls),
(286,371,o),
(299,377,o),
(306,368,c),
(398,195,l),
(451,195,l),
(543,368,l),
(550,377,o),
(563,371,o),
(561,360,cs),
(533,199,l),
(533,0,l),
(733,0,l),
(733,700,l),
(533,700,l),
(435,495,ls),
(430,484,o),
(420,484,o),
(415,495,cs),
(316,700,l),
(116,700,l),
(116,0,l)
);
}
);
};
layerId = "0EDB233F-674C-46BF-8D38-84A6CD2C2EDF";
shapes = (
{
closed = 1;
nodes = (
(275,0,l),
(275,309,l),
(248,410,ls),
(245,422,o),
(263,427,o),
(269,418,cs),
(443,161,l),
(506,161,l),
(680,418,ls),
(687,428,o),
(703,421,o),
(700,410,cs),
(674,309,l),
(674,0,l),
(873,0,l),
(873,700,l),
(681,700,l),
(487,419,ls),
(480,409,o),
(470,409,o),
(463,419,cs),
(268,700,l),
(76,700,l),
(76,0,l)
);
}
);
width = 949;
},
{
anchors = (
{
name = bottom;
pos = (414,0);
},
{
name = bottomright;
pos = (727,0);
},
{
name = top;
pos = (414,700);
}
);
layerId = "9C56164D-AE66-4588-951C-3236F4A2688E";
shapes = (
{
closed = 1;
nodes = (
(137,0,l),
(137,519,l),
(132,621,ls),
(132,632,o),
(139,635,o),
(146,625,cs),
(396,247,l),
(424,247,l),
(682,625,ls),
(687,633,o),
(696,632,o),
(696,621,cs),
(692,519,l),
(692,0,l),
(727,0,l),
(727,700,l),
(695,700,l),
(418,295,ls),
(413,287,o),
(406,288,o),
(402,295,cs),
(132,700,l),
(101,700,l),
(101,0,l)
);
}
);
width = 828;
},
{
anchors = (
{
name = bottom;
pos = (440,0);
},
{
name = bottomright;
pos = (791,0);
},
{
name = top;
pos = (440,700);
}
);
layerId = "0F6921E6-B6DE-4419-A3CD-177DEB844CC2";
shapes = (
{
closed = 1;
nodes = (
(192,0,l),
(192,381,l),
(180,502,ls),
(179,514,o),
(189,515,o),
(196,506,cs),
(413,201,l),
(466,201,l),
(684,506,ls),
(690,514,o),
(702,514,o),
(701,502,cs),
(688,381,l),
(688,0,l),
(791,0,l),
(791,700,l),
(701,700,l),
(450,343,ls),
(443,334,o),
(435,335,o),
(430,343,cs),
(179,700,l),
(89,700,l),
(89,0,l)
);
}
);
width = 880;
}
);
metricLeft = H;
metricRight = H;
unicode = 77;
userData = {
com.schriftgestaltung.Glyphs.ColorIndex = 3;
com.schriftgestaltung.Glyphs.layer.leftMetricsKey = "==H";
com.schriftgestaltung.Glyphs.layer.rightMetricsKey = "==H";
com.schriftgestaltung.Glyphs.leftMetricsKey = H;
com.schriftgestaltung.Glyphs.rightMetricsKey = H;
};
},
{
glyphname = N;
kernLeft = KO_H;
kernRight = KO_H;
lastChange = "2026-03-20 12:00:31 +0000";
layers = (
{
anchors = (
{
name = bottom;
pos = (416,0);
},
{
name = part.hook;
pos = (76,0);
},
{
name = top;
pos = (416,700);
}
);
background = {
shapes = (
{
pos = (-14,0);
ref = H;
}
);
};
layerId = "0EDB233F-674C-46BF-8D38-84A6CD2C2EDF";
shapes = (
{
closed = 1;
nodes = (
(286,0,l),
(286,231,l),
(268,361,ls),
(265,379,o),
(278,384,o),
(290,369,cs),
(571,0,l),
(757,0,l),
(757,700,l),
(547,700,l),
(547,470,l),
(567,337,ls),
(570,316,o),
(557,312,o),
(543,331,cs),
(274,700,l),
(76,700,l),
(76,0,l)
);
}
);
width = 833;
},
{
anchors = (
{
name = bottom;
pos = (358,0);
},
{
name = part.hook;
pos = (101,0);
},
{
name = top;
pos = (358,700);
}
);
layerId = "9C56164D-AE66-4588-951C-3236F4A2688E";
shapes = (
{
closed = 1;
nodes = (
(136,0,l),
(136,534,l),
(131,634,ls),
(131,640,o),
(138,646,o),
(143,638,cs),
(579,0,l),
(611,0,l),
(616,700,l),
(581,700,l),
(578,173,l),
(585,67,ls),
(586,59,o),
(579,57,o),
(574,64,cs),
(139,700,l),
(101,700,l),
(101,0,l)
);
}
);
width = 717;
},
{
anchors = (
{
name = bottom;
pos = (377,0);
},
{
name = part.hook;
pos = (89,0);
},
{
name = top;
pos = (377,700);
}
);
layerId = "0F6921E6-B6DE-4419-A3CD-177DEB844CC2";
shapes = (
{
closed = 1;
nodes = (
(191,0,l),
(191,379,l),
(179,502,ls),
(178,515,o),
(189,514,o),
(195,506,cs),
(570,0,l),
(664,0,l),
(665,700,l),
(564,700,l),
(563,306,l),
(575,183,ls),
(576,172,o),
(566,169,o),
(560,177,cs),
(179,700,l),
(89,700,l),
(89,0,l)
);
}
);
width = 754;
}
);
metricLeft = H;
metricRight = H;
unicode = 78;
userData = {
com.schriftgestaltung.Glyphs.ColorIndex = 3;
com.schriftgestaltung.Glyphs.layer.leftMetricsKey = "==H";
com.schriftgestaltung.Glyphs.layer.rightMetricsKey = "==H";
com.schriftgestaltung.Glyphs.leftMetricsKey = H;
com.schriftgestaltung.Glyphs.rightMetricsKey = H;
};
},
{
glyphname = Nj;
lastChange = "2026-03-20 12:00:31 +0000";
layers = (
{
background = {
shapes = (
{
ref = N;
},
{
pos = (833,0);
ref = j;
}
);
};
layerId = "0EDB233F-674C-46BF-8D38-84A6CD2C2EDF";
shapes = (
{
closed = 1;
nodes = (
(286,0,l),
(286,231,l),
(268,361,ls),
(265,379,o),
(278,384,o),
(290,369,cs),
(571,0,l),
(757,0,l),
(757,700,l),
(547,700,l),
(547,470,l),
(567,337,ls),
(570,316,o),
(557,312,o),
(543,331,cs),
(274,700,l),
(76,700,l),
(76,0,l)
);
},
{
closed = 1;
nodes = (
(969,-222,o),
(1095,-164,o),
(1095,28,cs),
(1095,546,l),
(899,546,l),
(899,28,ls),
(899,-16,o),
(874,-43,o),
(837,-49,c),
(880,-222,l)
);
},
{
closed = 1;
nodes = (
(1106,618,l),
(1106,750,l),
(889,750,l),
(889,618,l)
);
}
);
width = 1161;
},
{
layerId = "9C56164D-AE66-4588-951C-3236F4A2688E";
shapes = (
{
closed = 1;
nodes = (
(136,0,l),
(136,534,l),
(131,634,ls),
(131,640,o),
(138,646,o),
(143,638,cs),
(579,0,l),
(611,0,l),
(616,700,l),
(581,700,l),
(578,173,l),
(585,67,ls),
(586,59,o),
(579,57,o),
(574,64,cs),
(139,700,l),
(101,700,l),
(101,0,l)
);
},
{
closed = 1;
nodes = (
(808,-179,o),
(841,-117,o),
(841,2,cs),
(841,524,l),
(806,524,l),
(806,2,l),
(806,-101,o),
(781,-155,o),
(715,-188,c),
(729,-216,l)
);
},
{
closed = 1;
nodes = (
(841,632,l),
(841,750,l),
(806,750,l),
(806,632,l)
);
}
);
width = 932;
},
{
layerId = "0F6921E6-B6DE-4419-A3CD-177DEB844CC2";
shapes = (
{
closed = 1;
nodes = (
(191,0,l),
(191,379,l),
(179,502,ls),
(178,515,o),
(189,514,o),
(195,506,cs),
(570,0,l),
(664,0,l),
(665,700,l),
(564,700,l),
(563,306,l),
(575,183,ls),
(576,172,o),
(566,169,o),
(560,177,cs),
(179,700,l),
(89,700,l),
(89,0,l)
);
},
{
closed = 1;
nodes = (
(871,-197,o),
(946,-131,o),
(946,8,cs),
(946,535,l),
(844,535,l),
(844,6,l),
(844,-73,o),
(808,-117,o),
(751,-134,c),
(779,-221,l)
);
},
{
closed = 1;
nodes = (
(946,632,l),
(946,750,l),
(844,750,l),
(844,632,l)
);
}
);
width = 1025;
}
);
unicode = 459;
},
{
color = 9;
glyphname = Nj.ss01;
lastChange = "2026-03-20 12:00:31 +0000";
layers = (
{
anchors = (
{
name = bottom;
pos = (1008,-250);
},
{
name = part.hook;
pos = (76,0);
},
{
name = top;
pos = (997,753);
}
);
layerId = "0EDB233F-674C-46BF-8D38-84A6CD2C2EDF";
shapes = (
{
closed = 1;
nodes = (
(286,0,l),
(286,231,l),
(268,361,ls),
(265,379,o),
(278,384,o),
(290,369,cs),
(571,0,l),
(757,0,l),
(757,700,l),
(547,700,l),
(547,470,l),
(567,337,ls),
(570,316,o),
(557,312,o),
(543,331,cs),
(274,700,l),
(76,700,l),
(76,0,l)
);
},
{
closed = 1;
nodes = (
(969,-222,o),
(1095,-164,o),
(1095,28,cs),
(1095,546,l),
(899,546,l),
(899,28,ls),
(899,-16,o),
(874,-43,o),
(837,-49,c),
(880,-222,l)
);
},
{
closed = 1;
nodes = (
(1106,618,l),
(1106,750,l),
(889,750,l),
(889,618,l)
);
}
);
width = 1161;
},
{
anchors = (
{
name = bottom;
pos = (820,-250);
},
{
name = part.hook;
pos = (101,0);
},
{
name = top;
pos = (827,709);
}
);
layerId = "9C56164D-AE66-4588-951C-3236F4A2688E";
shapes = (
{
closed = 1;
nodes = (
(136,0,l),
(136,534,l),
(131,634,ls),
(131,640,o),
(138,646,o),
(143,638,cs),
(579,0,l),
(611,0,l),
(616,700,l),
(581,700,l),
(578,173,l),
(585,67,ls),
(586,59,o),
(579,57,o),
(574,64,cs),
(139,700,l),
(101,700,l),
(101,0,l)
);
},
{
closed = 1;
nodes = (
(812,-179,o),
(844,-117,o),
(844,2,cs),
(844,524,l),
(810,524,l),
(810,2,l),
(810,-101,o),
(785,-155,o),
(718,-188,c),
(733,-216,l)
);
},
{
closed = 1;
nodes = (
(844,632,l),
(844,750,l),
(810,750,l),
(810,632,l)
);
}
);
width = 935;
},
{
anchors = (
{
name = bottom;
pos = (896,-250);
},
{
name = part.hook;
pos = (89,0);
},
{
name = top;
pos = (897,746);
}
);
layerId = "0F6921E6-B6DE-4419-A3CD-177DEB844CC2";
shapes = (
{
closed = 1;
nodes = (
(191,0,l),
(191,379,l),
(179,502,ls),
(178,515,o),
(189,514,o),
(195,506,cs),
(570,0,l),
(664,0,l),
(665,700,l),
(564,700,l),
(563,306,l),
(575,183,ls),
(576,172,o),
(566,169,o),
(560,177,cs),
(179,700,l),
(89,700,l),
(89,0,l)
);
},
{
closed = 1;
nodes = (
(873,-197,o),
(948,-131,o),
(948,8,cs),
(948,535,l),
(847,535,l),
(847,6,l),
(847,-73,o),
(810,-117,o),
(753,-134,c),
(781,-221,l)
);
},
{
closed = 1;
nodes = (
(948,632,l),
(948,750,l),
(847,750,l),
(847,632,l)
);
}
);
width = 1027;
}
);
},
{
glyphname = Eng;
kernLeft = KO_H;
kernRight = KO_H;
lastChange = "2026-03-20 12:00:31 +0000";
layers = (
{
background = {
shapes = (
{
ref = N;
}
);
};
layerId = "0EDB233F-674C-46BF-8D38-84A6CD2C2EDF";
shapes = (
{
closed = 1;
nodes = (
(286,0,l),
(286,231,l),
(268,361,ls),
(265,379,o),
(278,384,o),
(290,369,cs),
(571,0,l),
(757,0,l),
(757,700,l),
(547,700,l),
(547,470,l),
(567,337,ls),
(570,316,o),
(557,312,o),
(543,331,cs),
(274,700,l),
(76,700,l),
(76,0,l)
);
},
{
closed = 1;
nodes = (
(666,-212,o),
(757,-130,o),
(757,-4,c),
(757,0,l),
(571,0,l),
(571,-4,ls),
(571,-26,o),
(544,-36,o),
(522,-36,cs),
(488,-36,o),
(459,-22,o),
(438,-13,c),
(379,-167,l),
(426,-196,o),
(472,-212,o),
(536,-212,cs)
);
}
);
width = 833;
},
{
layerId = "9C56164D-AE66-4588-951C-3236F4A2688E";
shapes = (
{
closed = 1;
nodes = (
(136,0,l),
(136,534,l),
(131,634,ls),
(131,640,o),
(138,646,o),
(143,638,cs),
(579,0,l),
(611,0,l),
(616,700,l),
(581,700,l),
(578,173,l),
(585,67,ls),
(586,59,o),
(579,57,o),
(574,64,cs),
(139,700,l),
(101,700,l),
(101,0,l)
);
},
{
closed = 1;
nodes = (
(540,-212,o),
(611,-158,o),
(611,-53,cs),
(611,0,l),
(579,0,l),
(579,-53,ls),
(579,-139,o),
(518,-180,o),
(446,-180,cs),
(398,-180,o),
(352,-155,o),
(326,-126,c),
(317,-157,l),
(345,-185,o),
(396,-212,o),
(446,-212,cs)
);
}
);
width = 717;
},
{
layerId = "0F6921E6-B6DE-4419-A3CD-177DEB844CC2";
shapes = (
{
closed = 1;
nodes = (
(191,0,l),
(191,379,l),
(179,502,ls),
(178,515,o),
(189,514,o),
(195,506,cs),
(570,0,l),
(664,0,l),
(665,700,l),
(564,700,l),
(563,306,l),
(575,183,ls),
(576,172,o),
(566,169,o),
(560,177,cs),
(179,700,l),
(89,700,l),
(89,0,l)
);
},
{
closed = 1;
nodes = (
(581,-212,o),
(664,-138,o),
(664,-16,cs),
(664,0,l),
(570,0,l),
(570,-16,ls),
(570,-83,o),
(521,-118,o),
(462,-117,cs),
(422,-117,o),
(382,-102,o),
(351,-67,c),
(319,-154,l),
(364,-192,o),
(422,-212,o),
(466,-212,cs)
);
}
);
width = 754;
}
);
metricLeft = N;
metricRight = N;
unicode = 330;
},
{
glyphname = O;
kernLeft = KO_O;
kernRight = KO_O;
lastChange = "2026-03-20 12:00:31 +0000";
layers = (
{
anchors = (
{
name = bottom;
pos = (423,0);
},
{
name = center;
pos = (423,350);
},
{
name = ogonek;
pos = (628,35);
},
{
name = top;
pos = (423,700);
},
{
name = topleft;
pos = (0,700);
},
{
name = topright;
pos = (601,700);
}
);
background = {
shapes = (
{
pos = (-24,3);
ref = o;
scale = (1.222,1.2705);
}
);
};
layerId = "0EDB233F-674C-46BF-8D38-84A6CD2C2EDF";
shapes = (
{
closed = 1;
nodes = (
(657,-12,o),
(805,127,o),
(805,351,cs),
(805,573,o),
(657,712,o),
(422,712,cs),
(188,712,o),
(40,573,o),
(40,351,cs),
(40,127,o),
(188,-12,o),
(422,-12,cs)
);
},
{
closed = 1;
nodes = (
(321,160,o),
(255,230,o),
(255,350,cs),
(255,470,o),
(321,540,o),
(422,540,cs),
(523,540,o),
(590,471,o),
(590,350,cs),
(590,229,o),
(523,160,o),
(422,160,cs)
);
}
);
width = 845;
},
{
anchors = (
{
name = bottom;
pos = (404,0);
},
{
name = center;
pos = (404,350);
},
{
name = ogonek;
pos = (596,42);
},
{
name = top;
pos = (404,700);
},
{
name = topleft;
pos = (14,700);
},
{
name = topright;
pos = (516,700);
}
);
layerId = "9C56164D-AE66-4588-951C-3236F4A2688E";
shapes = (
{
closed = 1;
nodes = (
(607,-12,o),
(743,132,o),
(743,351,cs),
(743,568,o),
(607,712,o),
(403,712,cs),
(200,712,o),
(63,568,o),
(63,351,cs),
(63,132,o),
(200,-12,o),
(403,-12,cs)
);
},
{
closed = 1;
nodes = (
(220,20,o),
(101,149,o),
(101,351,cs),
(101,551,o),
(220,680,o),
(403,680,cs),
(587,680,o),
(706,551,o),
(706,351,cs),
(706,149,o),
(587,20,o),
(403,20,cs)
);
}
);
width = 807;
},
{
anchors = (
{
name = bottom;
pos = (396,0);
},
{
name = center;
pos = (396,350);
},
{
name = ogonek;
pos = (593,47);
},
{
name = top;
pos = (396,700);
},
{
name = topleft;
pos = (7,700);
},
{
name = topright;
pos = (529,700);
}
);
layerId = "0F6921E6-B6DE-4419-A3CD-177DEB844CC2";
shapes = (
{
closed = 1;
nodes = (
(606,-12,o),
(738,141,o),
(738,351,cs),
(738,559,o),
(606,712,o),
(395,712,cs),
(184,712,o),
(52,559,o),
(52,351,cs),
(52,141,o),
(184,-12,o),
(395,-12,cs)
);
},
{
closed = 1;
nodes = (
(248,86,o),
(163,189,o),
(163,351,cs),
(163,512,o),
(248,615,o),
(395,615,cs),
(542,615,o),
(628,512,o),
(628,351,cs),
(628,189,o),
(542,86,o),
(395,86,cs)
);
}
);
width = 791;
}
);
unicode = 79;
userData = {
KernOnName = O;
com.schriftgestaltung.Glyphs.ColorIndex = 3;
};
},
{
glyphname = Ocircumflexdotbelow;
kernLeft = KO_O;
kernRight = KO_O;
lastChange = "2026-03-20 12:00:31 +0000";
layers = (
{
anchors = (
{
name = bottom;
pos = (423,-204);
},
{
name = center;
pos = (423,350);
},
{
name = ogonek;
pos = (628,35);
},
{
name = top;
pos = (423,920);
},
{
name = topleft;
pos = (0,700);
},
{
name = topright;
pos = (601,700);
}
);
layerId = "0EDB233F-674C-46BF-8D38-84A6CD2C2EDF";
shapes = (
{
closed = 1;
nodes = (
(531,-204,l),
(531,-72,l),
(314,-72,l),
(314,-204,l)
);
},
{
closed = 1;
nodes = (
(373,772,l),
(400,810,l),
(413,840,ls),
(416,848,o),
(428,848,o),
(431,840,cs),
(444,810,l),
(471,772,l),
(609,772,l),
(520,914,l),
(324,914,l),
(235,772,l)
);
},
{
ref = O;
}
);
width = 845;
},
{
anchors = (
{
name = bottom;
pos = (404,-226);
},
{
name = center;
pos = (404,350);
},
{
name = ogonek;
pos = (596,42);
},
{
name = top;
pos = (404,891);
},
{
name = topleft;
pos = (14,700);
},
{
name = topright;
pos = (516,700);
}
);
layerId = "9C56164D-AE66-4588-951C-3236F4A2688E";
shapes = (
{
closed = 1;
nodes = (
(421,-226,l),
(421,-108,l),
(387,-108,l),
(387,-226,l)
);
},
{
closed = 1;
nodes = (
(324,794,l),
(384,883,l),
(397,910,ls),
(400,916,o),
(408,916,o),
(411,910,cs),
(424,883,l),
(484,794,l),
(514,794,l),
(422,936,l),
(386,936,l),
(294,794,l)
);
},
{
ref = O;
}
);
width = 807;
},
{
anchors = (
{
name = bottom;
pos = (396,-215);
},
{
name = center;
pos = (396,350);
},
{
name = ogonek;
pos = (593,47);
},
{
name = top;
pos = (396,915);
},
{
name = topleft;
pos = (7,700);
},
{
name = topright;
pos = (529,700);
}
);
layerId = "0F6921E6-B6DE-4419-A3CD-177DEB844CC2";
shapes = (
{
closed = 1;
nodes = (
(447,-215,l),
(447,-97,l),
(345,-97,l),
(345,-215,l)
);
},
{
closed = 1;
nodes = (
(336,783,l),
(377,843,l),
(388,873,ls),
(392,881,o),
(398,881,o),
(402,873,cs),
(414,843,l),
(455,783,l),
(538,783,l),
(445,925,l),
(346,925,l),
(253,783,l)
);
},
{
ref = O;
}
);
width = 791;
}
);
unicode = 7896;
},
{
glyphname = Ohorn;
kernLeft = KO_O;
kernRight = KO_O;
lastChange = "2026-03-20 12:00:31 +0000";
layers = (
{
anchors = (
{
name = bottom;
pos = (423,0);
},
{
name = top;
pos = (423,700);
}
);
background = {
shapes = (
{
ref = O;
},
{
pos = (342,183);
ref = horncomb;
}
);
};
layerId = "0EDB233F-674C-46BF-8D38-84A6CD2C2EDF";
shapes = (
{
closed = 1;
nodes = (
(657,-12,o),
(805,127,o),
(805,351,cs),
(805,471,o),
(762,567,o),
(684,630,c),
(729,653,o),
(763,703,o),
(763,794,c),
(633,794,l),
(633,714,o),
(619,700,o),
(601,700,cs),
(535,700,l),
(500,708,o),
(462,712,o),
(422,712,cs),
(188,712,o),
(40,573,o),
(40,351,cs),
(40,127,o),
(188,-12,o),
(422,-12,cs)
);
},
{
closed = 1;
nodes = (
(321,150,o),
(255,224,o),
(255,350,cs),
(255,476,o),
(321,550,o),
(422,550,cs),
(523,550,o),
(590,477,o),
(590,350,cs),
(590,223,o),
(523,150,o),
(422,150,cs)
);
}
);
width = 845;
},
{
anchors = (
{
name = bottom;
pos = (404,0);
},
{
name = top;
pos = (404,700);
}
);
layerId = "9C56164D-AE66-4588-951C-3236F4A2688E";
shapes = (
{
closed = 1;
nodes = (
(607,-12,o),
(743,132,o),
(743,351,cs),
(743,510,o),
(669,629,o),
(551,681,c),
(584,694,o),
(609,726,o),
(609,785,c),
(580,785,l),
(580,721,o),
(551,700,o),
(516,700,cs),
(500,700,l),
(469,708,o),
(437,712,o),
(403,712,cs),
(200,712,o),
(63,568,o),
(63,351,cs),
(63,132,o),
(200,-12,o),
(403,-12,cs)
);
},
{
closed = 1;
nodes = (
(220,20,o),
(101,149,o),
(101,351,cs),
(101,551,o),
(220,680,o),
(403,680,cs),
(587,680,o),
(706,551,o),
(706,351,cs),
(706,149,o),
(587,20,o),
(403,20,cs)
);
}
);
width = 807;
},
{
anchors = (
{
name = bottom;
pos = (396,0);
},
{
name = top;
pos = (396,700);
}
);
layerId = "0F6921E6-B6DE-4419-A3CD-177DEB844CC2";
shapes = (
{
closed = 1;
nodes = (
(606,-12,o),
(738,141,o),
(738,351,cs),
(738,484,o),
(684,594,o),
(589,656,c),
(626,675,o),
(653,715,o),
(653,790,c),
(582,790,l),
(582,715,o),
(558,700,o),
(529,700,cs),
(493,700,l),
(462,708,o),
(430,712,o),
(395,712,cs),
(184,712,o),
(52,559,o),
(52,351,cs),
(52,141,o),
(184,-12,o),
(395,-12,cs)
);
},
{
closed = 1;
nodes = (
(248,86,o),
(163,189,o),
(163,351,cs),
(163,512,o),
(248,615,o),
(395,615,cs),
(542,615,o),
(628,512,o),
(628,351,cs),
(628,189,o),
(542,86,o),
(395,86,cs)
);
}
);
width = 791;
}
);
unicode = 416;
},
{
glyphname = Ohornacute;
kernLeft = KO_O;
lastChange = "2026-03-20 12:00:31 +0000";
layers = (
{
background = {
shapes = (
{
ref = Ohorn;
},
{
pos = (166,154);
ref = acutecomb;
}
);
};
layerId = "0EDB233F-674C-46BF-8D38-84A6CD2C2EDF";
shapes = (
{
closed = 1;
nodes = (
(657,-12,o),
(805,127,o),
(805,351,cs),
(805,471,o),
(762,567,o),
(684,630,c),
(729,653,o),
(763,703,o),
(763,794,c),
(633,794,l),
(633,714,o),
(619,700,o),
(601,700,cs),
(535,700,l),
(500,708,o),
(462,712,o),
(422,712,cs),
(188,712,o),
(40,573,o),
(40,351,cs),
(40,127,o),
(188,-12,o),
(422,-12,cs)
);
},
{
closed = 1;
nodes = (
(321,150,o),
(255,224,o),
(255,350,cs),
(255,476,o),
(321,550,o),
(422,550,cs),
(523,550,o),
(590,477,o),
(590,350,cs),
(590,223,o),
(523,150,o),
(422,150,cs)
);
},
{
closed = 1;
nodes = (
(491,772,l),
(589,914,l),
(413,914,l),
(344,772,l)
);
}
);
width = 845;
},
{
layerId = "9C56164D-AE66-4588-951C-3236F4A2688E";
shapes = (
{
closed = 1;
nodes = (
(607,-12,o),
(743,132,o),
(743,351,cs),
(743,510,o),
(669,629,o),
(551,681,c),
(584,694,o),
(609,726,o),
(609,785,c),
(580,785,l),
(580,721,o),
(551,700,o),
(516,700,cs),
(500,700,l),
(469,708,o),
(437,712,o),
(403,712,cs),
(200,712,o),
(63,568,o),
(63,351,cs),
(63,132,o),
(200,-12,o),
(403,-12,cs)
);
},
{
closed = 1;
nodes = (
(220,20,o),
(101,149,o),
(101,351,cs),
(101,551,o),
(220,680,o),
(403,680,cs),
(587,680,o),
(706,551,o),
(706,351,cs),
(706,149,o),
(587,20,o),
(403,20,cs)
);
},
{
closed = 1;
nodes = (
(418,794,l),
(518,936,l),
(480,936,l),
(390,794,l)
);
}
);
width = 807;
},
{
layerId = "0F6921E6-B6DE-4419-A3CD-177DEB844CC2";
shapes = (
{
closed = 1;
nodes = (
(606,-12,o),
(738,141,o),
(738,351,cs),
(738,484,o),
(684,594,o),
(589,656,c),
(626,675,o),
(653,715,o),
(653,790,c),
(582,790,l),
(582,715,o),
(558,700,o),
(529,700,cs),
(493,700,l),
(462,708,o),
(430,712,o),
(395,712,cs),
(184,712,o),
(52,559,o),
(52,351,cs),
(52,141,o),
(184,-12,o),
(395,-12,cs)
);
},
{
closed = 1;
nodes = (
(248,86,o),
(163,189,o),
(163,351,cs),
(163,512,o),
(248,615,o),
(395,615,cs),
(542,615,o),
(628,512,o),
(628,351,cs),
(628,189,o),
(542,86,o),
(395,86,cs)
);
},
{
closed = 1;
nodes = (
(434,783,l),
(526,925,l),
(430,925,l),
(356,783,l)
);
}
);
width = 791;
}
);
unicode = 7898;
},
{
glyphname = Oslash;
lastChange = "2026-03-20 12:00:31 +0000";
layers = (
{
anchors = (
{
name = bottom;
pos = (423,0);
},
{
name = center;
pos = (423,350);
},
{
name = ogonek;
pos = (777,10);
},
{
name = top;
pos = (423,700);
},
{
name = topleft;
pos = (0,700);
},
{
name = topright;
pos = (601,700);
}
);
background = {
shapes = (
{
ref = O;
}
);
};
layerId = "0EDB233F-674C-46BF-8D38-84A6CD2C2EDF";
shapes = (
{
closed = 1;
nodes = (
(247,0,l),
(779,700,l),
(599,700,l),
(67,0,l)
);
},
{
closed = 1;
nodes = (
(657,-12,o),
(805,127,o),
(805,351,cs),
(805,573,o),
(657,712,o),
(422,712,cs),
(188,712,o),
(40,573,o),
(40,351,cs),
(40,127,o),
(188,-12,o),
(422,-12,cs)
);
},
{
closed = 1;
nodes = (
(309,142,o),
(235,219,o),
(235,350,cs),
(235,481,o),
(309,558,o),
(422,558,cs),
(535,558,o),
(610,482,o),
(610,350,cs),
(610,218,o),
(535,142,o),
(422,142,cs)
);
}
);
width = 845;
},
{
anchors = (
{
name = bottom;
pos = (404,0);
},
{
name = center;
pos = (404,350);
},
{
name = ogonek;
pos = (731,10);
},
{
name = top;
pos = (404,700);
},
{
name = topleft;
pos = (14,700);
},
{
name = topright;
pos = (516,700);
}
);
layerId = "9C56164D-AE66-4588-951C-3236F4A2688E";
shapes = (
{
closed = 1;
nodes = (
(141,0,l),
(705,700,l),
(667,700,l),
(102,0,l)
);
},
{
closed = 1;
nodes = (
(607,-12,o),
(743,132,o),
(743,351,cs),
(743,568,o),
(607,712,o),
(403,712,cs),
(200,712,o),
(63,568,o),
(63,351,cs),
(63,132,o),
(200,-12,o),
(403,-12,cs)
);
},
{
closed = 1;
nodes = (
(219,20,o),
(100,149,o),
(100,351,cs),
(100,551,o),
(219,681,o),
(403,681,cs),
(587,681,o),
(707,551,o),
(707,351,cs),
(707,149,o),
(587,20,o),
(403,20,cs)
);
}
);
width = 807;
},
{
anchors = (
{
name = bottom;
pos = (396,0);
},
{
name = center;
pos = (396,350);
},
{
name = ogonek;
pos = (722,10);
},
{
name = top;
pos = (396,700);
},
{
name = topleft;
pos = (7,700);
},
{
name = topright;
pos = (529,700);
}
);
layerId = "0F6921E6-B6DE-4419-A3CD-177DEB844CC2";
shapes = (
{
closed = 1;
nodes = (
(190,0,l),
(713,700,l),
(601,700,l),
(77,0,l)
);
},
{
closed = 1;
nodes = (
(606,-12,o),
(738,141,o),
(738,351,cs),
(738,559,o),
(606,712,o),
(395,712,cs),
(184,712,o),
(52,559,o),
(52,351,cs),
(52,141,o),
(184,-12,o),
(395,-12,cs)
);
},
{
closed = 1;
nodes = (
(246,80,o),
(159,186,o),
(159,351,cs),
(159,514,o),
(246,621,o),
(395,621,cs),
(545,621,o),
(633,514,o),
(633,351,cs),
(633,186,o),
(545,80,o),
(395,80,cs)
);
}
);
width = 791;
}
);
metricLeft = O;
metricRight = O;
unicode = 216;
},
{
glyphname = OE;
kernLeft = KO_O;
kernRight = KO_E;
lastChange = "2026-03-20 12:00:31 +0000";
layers = (
{
anchors = (
{
name = bottom;
pos = (610,0);
},
{
name = top;
pos = (610,700);
}
);
background = {
anchors = (
{
name = bottom;
pos = (329,0);
},
{
name = center;
pos = (423,350);
},
{
name = ogonek;
pos = (580,0);
},
{
name = top;
pos = (329,700);
},
{
name = topleft;
pos = (49,700);
},
{
name = topright;
pos = (845,700);
}
);
shapes = (
{
ref = O;
},
{
pos = (534,0);
ref = E;
}
);
};
layerId = "0EDB233F-674C-46BF-8D38-84A6CD2C2EDF";
shapes = (
{
closed = 1;
nodes = (
(465,-12,o),
(530,8,o),
(583,55,cs),
(598,68,o),
(610,64,o),
(610,45,cs),
(610,0,l),
(1139,0,l),
(1139,165,l),
(810,165,l),
(810,273,l),
(1101,273,l),
(1101,427,l),
(810,427,l),
(810,535,l),
(1139,535,l),
(1139,700,l),
(610,700,l),
(610,655,ls),
(610,636,o),
(598,631,o),
(584,645,cs),
(530,692,o),
(466,712,o),
(392,712,cs),
(188,712,o),
(40,573,o),
(40,351,cs),
(40,127,o),
(188,-12,o),
(392,-12,cs)
);
},
{
closed = 1;
nodes = (
(321,150,o),
(255,224,o),
(255,350,cs),
(255,476,o),
(321,550,o),
(432,550,cs),
(529,550,o),
(590,471,o),
(590,350,cs),
(590,227,o),
(527,150,o),
(432,150,cs)
);
}
);
width = 1191;
},
{
anchors = (
{
name = bottom;
pos = (621,0);
},
{
name = top;
pos = (621,700);
}
);
layerId = "9C56164D-AE66-4588-951C-3236F4A2688E";
shapes = (
{
closed = 1;
nodes = (
(528,-12,o),
(626,43,o),
(682,134,cs),
(695,157,o),
(707,153,o),
(707,124,cs),
(707,0,l),
(1135,0,l),
(1135,32,l),
(742,32,l),
(742,334,l),
(1117,334,l),
(1117,366,l),
(742,366,l),
(742,668,l),
(1135,668,l),
(1135,700,l),
(707,700,l),
(707,577,ls),
(707,548,o),
(694,546,o),
(679,570,cs),
(623,659,o),
(525,712,o),
(403,712,cs),
(200,712,o),
(63,568,o),
(63,351,cs),
(63,132,o),
(200,-12,o),
(403,-12,cs)
);
},
{
closed = 1;
nodes = (
(220,20,o),
(101,149,o),
(101,351,cs),
(101,551,o),
(220,680,o),
(403,680,cs),
(587,680,o),
(706,551,o),
(706,351,cs),
(706,149,o),
(587,20,o),
(403,20,cs)
);
}
);
width = 1202;
},
{
anchors = (
{
name = bottom;
pos = (588,0);
},
{
name = top;
pos = (588,700);
}
);
layerId = "0F6921E6-B6DE-4419-A3CD-177DEB844CC2";
shapes = (
{
closed = 1;
nodes = (
(486,-12,o),
(556,17,o),
(605,66,cs),
(619,81,o),
(628,73,o),
(628,50,cs),
(628,0,l),
(1102,0,l),
(1102,97,l),
(729,97,l),
(729,304,l),
(1084,304,l),
(1084,396,l),
(729,396,l),
(729,603,l),
(1102,603,l),
(1102,700,l),
(628,700,l),
(628,650,ls),
(628,628,o),
(616,623,o),
(599,639,cs),
(550,686,o),
(483,712,o),
(395,712,cs),
(184,712,o),
(52,559,o),
(52,351,cs),
(52,141,o),
(184,-12,o),
(395,-12,cs)
);
},
{
closed = 1;
nodes = (
(248,86,o),
(163,189,o),
(163,351,cs),
(163,512,o),
(248,615,o),
(395,615,cs),
(542,615,o),
(628,512,o),
(628,351,cs),
(628,189,o),
(542,86,o),
(395,86,cs)
);
}
);
width = 1180;
}
);
metricLeft = O;
metricRight = E;
unicode = 338;
userData = {
com.schriftgestaltung.Glyphs.leftMetricsKey = O;
com.schriftgestaltung.Glyphs.rightMetricsKey = E;
};
},
{
glyphname = P;
kernLeft = KO_H;
kernRight = KO_P;
lastChange = "2026-03-20 12:00:31 +0000";
layers = (
{
anchors = (
{
name = bottom;
pos = (317,0);
},
{
name = top;
pos = (317,700);
}
);
layerId = "0EDB233F-674C-46BF-8D38-84A6CD2C2EDF";
shapes = (
{
closed = 1;
nodes = (
(286,0,l),
(286,169,l),
(406,169,ls),
(597,169,o),
(716,269,o),
(716,431,cs),
(716,597,o),
(597,700,o),
(406,700,cs),
(76,700,l),
(76,0,l)
);
},
{
closed = 1;
nodes = (
(286,530,l),
(395,530,ls),
(467,530,o),
(511,492,o),
(511,431,cs),
(511,374,o),
(467,339,o),
(395,339,cs),
(286,339,l)
);
}
);
width = 754;
},
{
anchors = (
{
name = bottom;
pos = (269,0);
},
{
name = top;
pos = (269,700);
}
);
layerId = "9C56164D-AE66-4588-951C-3236F4A2688E";
shapes = (
{
closed = 1;
nodes = (
(136,0,l),
(136,248,l),
(337,248,ls),
(487,248,o),
(595,328,o),
(595,471,cs),
(595,604,o),
(487,700,o),
(337,700,cs),
(101,700,l),
(101,0,l)
);
},
{
closed = 1;
nodes = (
(136,669,l),
(329,669,ls),
(467,669,o),
(560,592,o),
(560,472,cs),
(560,344,o),
(467,279,o),
(329,279,cs),
(136,279,l)
);
}
);
width = 646;
},
{
anchors = (
{
name = bottom;
pos = (299,0);
},
{
name = top;
pos = (299,700);
}
);
layerId = "0F6921E6-B6DE-4419-A3CD-177DEB844CC2";
shapes = (
{
closed = 1;
nodes = (
(195,0,l),
(195,211,l),
(359,211,ls),
(514,211,o),
(632,295,o),
(632,455,cs),
(632,613,o),
(514,700,o),
(359,700,cs),
(89,700,l),
(89,0,l)
);
},
{
closed = 1;
nodes = (
(195,611,l),
(352,611,ls),
(446,611,o),
(526,562,o),
(526,456,cs),
(526,348,o),
(446,300,o),
(352,300,cs),
(195,300,l)
);
}
);
width = 676;
}
);
metricLeft = H;
unicode = 80;
userData = {
KernOnName = P;
com.schriftgestaltung.Glyphs.ColorIndex = 3;
com.schriftgestaltung.Glyphs.layer.leftMetricsKey = "==H";
com.schriftgestaltung.Glyphs.leftMetricsKey = H;
};
},
{
glyphname = Thorn;
kernLeft = KO_H;
lastChange = "2026-03-20 12:00:31 +0000";
layers = (
{
background = {
anchors = (
{
name = bottom;
pos = (298,0);
},
{
name = top;
pos = (298,700);
}
);
};
layerId = "0EDB233F-674C-46BF-8D38-84A6CD2C2EDF";
shapes = (
{
closed = 1;
nodes = (
(286,0,l),
(286,89,l),
(406,89,ls),
(528,89,o),
(716,136,o),
(716,355,cs),
(716,574,o),
(526,620,o),
(406,620,cs),
(286,620,l),
(286,700,l),
(76,700,l),
(76,0,l)
);
},
{
closed = 1;
nodes = (
(286,450,l),
(395,450,ls),
(466,450,o),
(511,413,o),
(511,355,cs),
(511,296,o),
(466,259,o),
(395,259,cs),
(286,259,l)
);
}
);
width = 754;
},
{
layerId = "9C56164D-AE66-4588-951C-3236F4A2688E";
shapes = (
{
closed = 1;
nodes = (
(136,0,l),
(136,129,l),
(333,129,ls),
(493,129,o),
(595,214,o),
(595,355,cs),
(595,496,o),
(493,581,o),
(333,581,cs),
(136,581,l),
(136,700,l),
(101,700,l),
(101,0,l)
);
},
{
closed = 1;
nodes = (
(136,550,l),
(332,550,ls),
(469,550,o),
(558,478,o),
(560,355,cs),
(558,231,o),
(469,160,o),
(332,160,cs),
(136,160,l)
);
}
);
width = 646;
},
{
layerId = "0F6921E6-B6DE-4419-A3CD-177DEB844CC2";
shapes = (
{
closed = 1;
nodes = (
(195,0,l),
(195,109,l),
(359,109,ls),
(514,109,o),
(632,194,o),
(632,353,cs),
(632,513,o),
(514,598,o),
(359,598,cs),
(195,598,l),
(195,700,l),
(89,700,l),
(89,0,l)
);
},
{
closed = 1;
nodes = (
(195,509,l),
(352,509,ls),
(446,509,o),
(526,460,o),
(526,354,cs),
(526,247,o),
(446,198,o),
(352,198,cs),
(195,198,l)
);
}
);
width = 676;
}
);
metricLeft = I;
metricRight = "=I/2";
unicode = 222;
userData = {
com.schriftgestaltung.Glyphs.leftMetricsKey = H;
};
},
{
glyphname = Q;
kernLeft = KO_O;
kernRight = KO_O;
lastChange = "2026-03-20 12:00:31 +0000";
layers = (
{
background = {
anchors = (
{
name = bottom;
pos = (423,0);
},
{
name = top;
pos = (423,700);
}
);
shapes = (
{
closed = 1;
nodes = (
(1438,-34,l),
(1392,68,l),
(1401,76,o),
(1402,77,o),
(1413,90,cs),
(1430,110,o),
(1470,169,o),
(1470,350,cs),
(1470,531,o),
(1438,588,o),
(1388,637,cs),
(1333,692,o),
(1258,712,o),
(1191,712,cs),
(1124,712,o),
(1048,692,o),
(993,637,cs),
(944,588,o),
(911,531,o),
(911,350,cs),
(911,169,o),
(944,112,o),
(993,63,cs),
(1048,8,o),
(1124,-12,o),
(1191,-12,cs),
(1193,-12,o),
(1220,-12,o),
(1244,-8,c),
(1285,-104,l)
);
},
{
closed = 1;
nodes = (
(1144,133,o),
(1116,176,o),
(1112,229,cs),
(1109,250,o),
(1108,301,o),
(1108,350,cs),
(1108,394,o),
(1110,436,o),
(1112,460,cs),
(1117,506,o),
(1155,530,o),
(1191,530,cs),
(1226,530,o),
(1264,506,o),
(1269,460,cs),
(1271,436,o),
(1273,394,o),
(1273,350,cs),
(1273,307,l),
(1138,243,l),
(1164,180,l),
(1211,158,ls),
(1222,153,o),
(1222,136,o),
(1209,134,cs),
(1204,133,o),
(1198,133,o),
(1193,133,cs)
);
},
{
ref = O;
}
);
};
layerId = "0EDB233F-674C-46BF-8D38-84A6CD2C2EDF";
shapes = (
{
closed = 1;
nodes = (
(664,-34,l),
(630,40,l),
(741,100,o),
(805,208,o),
(805,351,cs),
(805,573,o),
(657,712,o),
(422,712,cs),
(188,712,o),
(40,573,o),
(40,351,cs),
(40,127,o),
(188,-12,o),
(422,-12,cs),
(439,-12,o),
(455,-11,o),
(470,-9,c),
(511,-104,l)
);
},
{
closed = 1;
nodes = (
(317,138,o),
(255,216,o),
(255,350,cs),
(255,476,o),
(321,550,o),
(422,550,cs),
(524,550,o),
(591,475,o),
(591,345,cs),
(591,285,o),
(579,233,o),
(558,195,c),
(510,312,l),
(364,243,l),
(390,180,l),
(419,151,ls),
(423,147,o),
(423,138,o),
(414,138,cs),
(412,138,o),
(411,138,o),
(410,138,cs)
);
}
);
width = 845;
},
{
layerId = "9C56164D-AE66-4588-951C-3236F4A2688E";
shapes = (
{
closed = 1;
nodes = (
(599,-68,l),
(555,20,l),
(673,74,o),
(743,193,o),
(743,351,cs),
(743,568,o),
(607,712,o),
(403,712,cs),
(200,712,o),
(63,568,o),
(63,351,cs),
(63,132,o),
(200,-12,o),
(403,-12,cs),
(447,-12,o),
(489,-5,o),
(526,8,c),
(573,-80,l)
);
},
{
closed = 1;
nodes = (
(220,19,o),
(101,149,o),
(101,351,cs),
(101,551,o),
(220,680,o),
(403,680,cs),
(587,680,o),
(706,551,o),
(706,351,cs),
(706,204,o),
(643,96,o),
(541,44,c),
(441,238,l),
(412,225,l),
(496,67,l),
(510,46,ls),
(516,37,o),
(514,33,o),
(504,30,cs),
(476,22,o),
(451,19,o),
(404,19,cs)
);
}
);
width = 807;
},
{
layerId = "0F6921E6-B6DE-4419-A3CD-177DEB844CC2";
shapes = (
{
closed = 1;
nodes = (
(614,-53,l),
(572,33,l),
(685,99,o),
(738,211,o),
(738,351,cs),
(738,559,o),
(606,712,o),
(395,712,cs),
(184,712,o),
(52,559,o),
(52,351,cs),
(52,141,o),
(184,-12,o),
(395,-12,cs),
(429,-12,o),
(460,-8,o),
(489,0,c),
(533,-89,l)
);
},
{
closed = 1;
nodes = (
(252,79,o),
(163,186,o),
(163,351,cs),
(163,512,o),
(248,615,o),
(395,615,cs),
(542,615,o),
(628,512,o),
(628,351,cs),
(628,235,o),
(594,160,o),
(531,116,c),
(457,270,l),
(375,233,l),
(429,124,l),
(452,96,ls),
(458,90,o),
(456,83,o),
(449,82,cs),
(436,79,o),
(425,79,o),
(405,79,cs)
);
}
);
width = 791;
}
);
metricLeft = O;
metricRight = O;
unicode = 81;
userData = {
KernOnName = Q;
com.schriftgestaltung.Glyphs.ColorIndex = 3;
com.schriftgestaltung.Glyphs.layer.leftMetricsKey = "==O";
com.schriftgestaltung.Glyphs.layer.rightMetricsKey = "==O";
com.schriftgestaltung.Glyphs.leftMetricsKey = O;
com.schriftgestaltung.Glyphs.rightMetricsKey = O;
};
},
{
glyphname = R;
kernLeft = KO_H;
kernRight = KO_R;
lastChange = "2026-03-20 12:00:31 +0000";
layers = (
{
anchors = (
{
name = bottom;
pos = (401,0);
},
{
name = top;
pos = (366,700);
}
);
layerId = "0EDB233F-674C-46BF-8D38-84A6CD2C2EDF";
shapes = (
{
closed = 1;
nodes = (
(286,0,l),
(286,219,l),
(392,219,l),
(502,0,l),
(717,0,l),
(631,163,l),
(574,232,ls),
(567,240,o),
(570,252,o),
(581,257,cs),
(653,289,o),
(711,365,o),
(711,455,cs),
(711,610,o),
(600,700,o),
(442,700,cs),
(76,700,l),
(76,0,l)
);
},
{
closed = 1;
nodes = (
(286,530,l),
(405,530,ls),
(464,530,o),
(501,506,o),
(501,453,cs),
(501,400,o),
(461,373,o),
(405,373,cs),
(286,373,l)
);
}
);
width = 757;
},
{
anchors = (
{
name = bottom;
pos = (338,0);
},
{
name = top;
pos = (322,700);
}
);
layerId = "9C56164D-AE66-4588-951C-3236F4A2688E";
shapes = (
{
closed = 1;
nodes = (
(136,0,l),
(136,294,l),
(386,294,l),
(541,0,l),
(578,0,l),
(456,231,l),
(420,280,ls),
(412,291,o),
(419,297,o),
(428,298,cs),
(539,315,o),
(604,385,o),
(604,493,cs),
(604,618,o),
(521,700,o),
(384,700,cs),
(101,700,l),
(101,0,l)
);
},
{
closed = 1;
nodes = (
(136,669,l),
(376,669,ls),
(500,669,o),
(570,606,o),
(570,493,cs),
(570,386,o),
(500,325,o),
(376,325,cs),
(136,325,l)
);
}
);
width = 667;
},
{
anchors = (
{
name = bottom;
pos = (365,0);
},
{
name = top;
pos = (335,700);
}
);
layerId = "0F6921E6-B6DE-4419-A3CD-177DEB844CC2";
shapes = (
{
closed = 1;
nodes = (
(195,0,l),
(195,262,l),
(372,262,l),
(521,0,l),
(633,0,l),
(511,213,l),
(468,261,ls),
(461,269,o),
(464,278,o),
(475,281,cs),
(577,308,o),
(641,383,o),
(641,484,cs),
(641,618,o),
(546,700,o),
(374,700,cs),
(89,700,l),
(89,0,l)
);
},
{
closed = 1;
nodes = (
(195,611,l),
(374,611,ls),
(481,611,o),
(535,564,o),
(535,484,cs),
(535,402,o),
(481,352,o),
(374,352,cs),
(195,352,l)
);
}
);
width = 693;
}
);
metricLeft = H;
unicode = 82;
userData = {
KernOnName = R;
com.schriftgestaltung.Glyphs.ColorIndex = 3;
com.schriftgestaltung.Glyphs.layer.leftMetricsKey = "==H";
com.schriftgestaltung.Glyphs.leftMetricsKey = H;
};
},
{
glyphname = S;
kernLeft = KO_S;
kernRight = KO_S;
lastChange = "2026-03-20 12:00:31 +0000";
layers = (
{
anchors = (
{
name = bottom;
pos = (349,0);
},
{
name = top;
pos = (349,700);
}
);
background = {
shapes = (
{
closed = 1;
nodes = (
(509,-10,o),
(634,53,o),
(634,225,cs),
(634,360,o),
(520,441,o),
(380,453,cs),
(310,459,ls),
(270,463,o),
(253,478,o),
(253,501,cs),
(253,524,o),
(278,548,o),
(361,548,cs),
(446,548,o),
(503,531,o),
(565,508,c),
(624,652,l),
(590,680,o),
(478,713,o),
(359,713,cs),
(158,713,o),
(43,616,o),
(43,478,cs),
(43,338,o),
(149,283,o),
(273,270,cs),
(341,263,ls),
(393,258,o),
(424,245,o),
(424,216,cs),
(424,178,o),
(372,169,o),
(313,169,cs),
(250,169,o),
(168,184,o),
(93,216,c),
(40,50,l),
(133,7,o),
(215,-10,o),
(316,-10,cs)
);
}
);
};
layerId = "0EDB233F-674C-46BF-8D38-84A6CD2C2EDF";
shapes = (
{
closed = 1;
nodes = (
(505,-10,o),
(628,56,o),
(628,222,cs),
(628,356,o),
(517,435,o),
(377,449,cs),
(308,455,ls),
(263,460,o),
(244,477,o),
(244,503,cs),
(244,529,o),
(272,554,o),
(356,554,cs),
(440,554,o),
(498,537,o),
(560,513,c),
(616,651,l),
(580,680,o),
(471,713,o),
(354,713,cs),
(157,713,o),
(44,617,o),
(44,482,cs),
(44,343,o),
(148,289,o),
(273,275,cs),
(340,267,ls),
(396,261,o),
(428,246,o),
(428,214,cs),
(428,174,o),
(376,161,o),
(312,161,cs),
(248,161,o),
(166,177,o),
(92,210,c),
(41,51,l),
(132,8,o),
(215,-10,o),
(315,-10,cs)
);
}
);
width = 674;
},
{
anchors = (
{
name = bottom;
pos = (274,0);
},
{
name = top;
pos = (300,700);
}
);
layerId = "9C56164D-AE66-4588-951C-3236F4A2688E";
shapes = (
{
closed = 1;
nodes = (
(457,-10,o),
(547,67,o),
(547,179,cs),
(547,273,o),
(486,344,o),
(352,371,cs),
(270,387,ls),
(166,408,o),
(104,450,o),
(104,531,cs),
(104,615,o),
(184,677,o),
(299,677,cs),
(382,677,o),
(456,649,o),
(513,608,c),
(524,639,l),
(465,679,o),
(386,708,o),
(298,708,cs),
(161,708,o),
(70,635,o),
(70,531,cs),
(70,432,o),
(142,376,o),
(264,353,cs),
(346,338,ls),
(465,315,o),
(511,252,o),
(511,179,cs),
(511,87,o),
(436,22,o),
(315,22,cs),
(231,22,o),
(140,48,o),
(74,101,c),
(63,70,l),
(126,18,o),
(222,-10,o),
(315,-10,cs)
);
}
);
width = 610;
},
{
anchors = (
{
name = bottom;
pos = (300,0);
},
{
name = top;
pos = (308,700);
}
);
layerId = "0F6921E6-B6DE-4419-A3CD-177DEB844CC2";
shapes = (
{
closed = 1;
nodes = (
(470,-10,o),
(569,81,o),
(569,196,cs),
(569,321,o),
(490,378,o),
(347,407,cs),
(285,419,ls),
(201,435,o),
(157,463,o),
(157,520,cs),
(157,573,o),
(214,617,o),
(308,617,cs),
(387,617,o),
(458,597,o),
(513,558,c),
(543,642,l),
(484,682,o),
(403,711,o),
(306,711,cs),
(150,711,o),
(54,630,o),
(54,515,cs),
(54,395,o),
(138,348,o),
(271,321,cs),
(332,309,ls),
(429,290,o),
(465,251,o),
(465,196,cs),
(465,136,o),
(410,85,o),
(306,85,cs),
(227,85,o),
(150,104,o),
(83,154,c),
(52,65,l),
(122,13,o),
(212,-10,o),
(310,-10,cs)
);
}
);
width = 621;
}
);
unicode = 83;
userData = {
KernOnName = S;
com.schriftgestaltung.Glyphs.ColorIndex = 3;
com.typemytype.robofont.layerData = {
background = {
anchors = (
);
components = (
);
contours = (
{
points = (
{
smooth = 0;
x = 389;
y = 562;
},
{
smooth = 0;
x = 346;
y = 574;
},
{
segmentType = curve;
smooth = 1;
x = 290;
y = 574;
},
{
smooth = 0;
x = 204;
y = 574;
},
{
smooth = 0;
x = 174;
y = 537;
},
{
segmentType = curve;
smooth = 1;
x = 174;
y = 499;
},
{
smooth = 0;
x = 174;
y = 463;
},
{
smooth = 0;
x = 196;
y = 444;
},
{
segmentType = curve;
smooth = 1;
x = 238;
y = 441;
},
{
segmentType = line;
smooth = 1;
x = 311;
y = 435;
},
{
smooth = 0;
x = 434;
y = 425;
},
{
smooth = 0;
x = 509;
y = 341;
},
{
segmentType = curve;
smooth = 1;
x = 509;
y = 224;
},
{
smooth = 0;
x = 509;
y = 82;
},
{
smooth = 0;
x = 419;
y = -10;
},
{
segmentType = curve;
smooth = 1;
x = 249;
y = -10;
},
{
smooth = 0;
x = 154;
y = -10;
},
{
smooth = 0;
x = 93;
y = 11;
},
{
segmentType = curve;
smooth = 0;
x = 23;
y = 64;
},
{
segmentType = line;
smooth = 0;
x = 69;
y = 190;
},
{
smooth = 0;
x = 135;
y = 143;
},
{
smooth = 0;
x = 175;
y = 128;
},
{
segmentType = curve;
smooth = 1;
x = 245;
y = 128;
},
{
smooth = 0;
x = 318;
y = 128;
},
{
smooth = 0;
x = 359;
y = 160;
},
{
segmentType = curve;
smooth = 1;
x = 359;
y = 218;
},
{
smooth = 0;
x = 359;
y = 259;
},
{
smooth = 0;
x = 335;
y = 287;
},
{
segmentType = curve;
smooth = 1;
x = 280;
y = 292;
},
{
segmentType = line;
smooth = 1;
x = 210;
y = 298;
},
{
smooth = 0;
x = 103;
y = 307;
},
{
smooth = 0;
x = 24;
y = 377;
},
{
segmentType = curve;
smooth = 1;
x = 24;
y = 489;
},
{
smooth = 0;
x = 24;
y = 615;
},
{
smooth = 0;
x = 112;
y = 712;
},
{
segmentType = curve;
smooth = 1;
x = 285;
y = 712;
},
{
smooth = 0;
x = 378;
y = 712;
},
{
smooth = 0;
x = 435;
y = 686;
},
{
segmentType = curve;
smooth = 0;
x = 483;
y = 655;
},
{
segmentType = line;
smooth = 0;
x = 439;
y = 537;
}
);
}
);
lib = {
};
name = S;
unicodes = (
);
width = 503;
};
};
};
},
{
glyphname = Sdotbelowdotaccent;
lastChange = "2026-03-20 12:00:31 +0000";
layers = (
{
anchors = (
{
name = bottom;
pos = (349,-204);
},
{
name = top;
pos = (349,907);
}
);
layerId = "0EDB233F-674C-46BF-8D38-84A6CD2C2EDF";
shapes = (
{
closed = 1;
nodes = (
(457,-204,l),
(457,-72,l),
(240,-72,l),
(240,-204,l)
);
},
{
closed = 1;
nodes = (
(458,772,l),
(458,904,l),
(241,904,l),
(241,772,l)
);
},
{
ref = S;
}
);
width = 674;
},
{
anchors = (
{
name = bottom;
pos = (274,-226);
},
{
name = top;
pos = (300,885);
}
);
layerId = "9C56164D-AE66-4588-951C-3236F4A2688E";
shapes = (
{
closed = 1;
nodes = (
(291,-226,l),
(291,-108,l),
(257,-108,l),
(257,-226,l)
);
},
{
closed = 1;
nodes = (
(318,808,l),
(318,926,l),
(283,926,l),
(283,808,l)
);
},
{
ref = S;
}
);
width = 610;
},
{
anchors = (
{
name = bottom;
pos = (300,-215);
},
{
name = top;
pos = (308,912);
}
);
layerId = "0F6921E6-B6DE-4419-A3CD-177DEB844CC2";
shapes = (
{
closed = 1;
nodes = (
(350,-215,l),
(350,-97,l),
(249,-97,l),
(249,-215,l)
);
},
{
closed = 1;
nodes = (
(359,797,l),
(359,915,l),
(257,915,l),
(257,797,l)
);
},
{
ref = S;
}
);
width = 621;
}
);
unicode = 7784;
},
{
glyphname = Germandbls;
lastChange = "2026-03-20 12:00:31 +0000";
layers = (
{
anchors = (
{
name = bottom;
pos = (455,0);
},
{
name = top;
pos = (455,700);
}
);
background = {
shapes = (
{
ref = I;
},
{
pos = (240,0);
ref = Ezh;
}
);
};
layerId = "0EDB233F-674C-46BF-8D38-84A6CD2C2EDF";
shapes = (
{
closed = 1;
nodes = (
(704,-11,o),
(862,63,o),
(862,218,cs),
(862,318,o),
(782,400,o),
(652,426,c),
(816,559,l),
(816,700,l),
(76,700,l),
(76,0,l),
(286,0,l),
(286,530,l),
(526,530,ls),
(541,530,o),
(548,516,o),
(534,507,cs),
(498,485,l),
(408,410,l),
(408,292,l),
(515,292,ls),
(614,292,o),
(665,275,o),
(665,230,cs),
(665,186,o),
(623,166,o),
(551,166,cs),
(494,166,o),
(447,170,o),
(391,195,c),
(330,29,l),
(403,-3,o),
(477,-11,o),
(568,-11,cs)
);
}
);
width = 910;
},
{
anchors = (
{
name = bottom;
pos = (343,0);
},
{
name = top;
pos = (343,700);
}
);
layerId = "9C56164D-AE66-4588-951C-3236F4A2688E";
shapes = (
{
closed = 1;
nodes = (
(547,-8,o),
(651,69,o),
(651,194,cs),
(651,310,o),
(554,392,o),
(338,393,c),
(643,685,l),
(643,700,l),
(101,700,l),
(101,0,l),
(136,0,l),
(136,669,l),
(576,669,ls),
(583,669,o),
(586,664,o),
(578,658,cs),
(535,624,l),
(285,381,l),
(285,363,l),
(329,363,ls),
(522,363,o),
(616,296,o),
(616,194,cs),
(616,92,o),
(528,24,o),
(406,24,cs),
(351,24,o),
(290,41,o),
(252,67,c),
(236,39,l),
(283,9,o),
(349,-8,o),
(407,-8,cs)
);
}
);
width = 730;
},
{
anchors = (
{
name = bottom;
pos = (404,0);
},
{
name = top;
pos = (404,700);
}
);
layerId = "0F6921E6-B6DE-4419-A3CD-177DEB844CC2";
shapes = (
{
closed = 1;
nodes = (
(607,-8,o),
(745,53,o),
(745,208,cs),
(745,333,o),
(655,399,o),
(481,413,c),
(717,637,l),
(717,700,l),
(89,700,l),
(89,0,l),
(195,0,l),
(195,611,l),
(560,611,ls),
(569,611,o),
(574,606,o),
(564,599,cs),
(523,566,l),
(344,385,l),
(344,325,l),
(428,325,ls),
(575,325,o),
(643,279,o),
(643,206,cs),
(643,135,o),
(576,87,o),
(464,87,cs),
(409,87,o),
(358,104,o),
(320,133,c),
(283,46,l),
(336,8,o),
(398,-8,o),
(468,-8,cs)
);
}
);
width = 816;
}
);
metricLeft = I;
metricRight = B;
unicode = 7838;
},
{
glyphname = T;
kernLeft = KO_T;
kernRight = KO_T;
lastChange = "2026-03-20 12:00:31 +0000";
layers = (
{
anchors = (
{
name = bottom;
pos = (328,0);
},
{
name = bottomright;
pos = (433,0);
},
{
name = center;
pos = (328,350);
},
{
name = top;
pos = (328,700);
}
);
layerId = "0EDB233F-674C-46BF-8D38-84A6CD2C2EDF";
shapes = (
{
closed = 1;
nodes = (
(433,0,l),
(433,520,l),
(646,520,l),
(646,700,l),
(10,700,l),
(10,520,l),
(223,520,l),
(223,0,l)
);
}
);
width = 656;
},
{
anchors = (
{
name = bottom;
pos = (270,0);
},
{
name = bottomright;
pos = (287,0);
},
{
name = center;
pos = (269,350);
},
{
name = top;
pos = (270,700);
}
);
layerId = "9C56164D-AE66-4588-951C-3236F4A2688E";
shapes = (
{
closed = 1;
nodes = (
(287,0,l),
(287,668,l),
(534,668,l),
(534,700,l),
(5,700,l),
(5,668,l),
(252,668,l),
(252,0,l)
);
}
);
width = 540;
},
{
anchors = (
{
name = bottom;
pos = (300,0);
},
{
name = bottomright;
pos = (354,0);
},
{
name = center;
pos = (300,350);
},
{
name = top;
pos = (300,700);
}
);
layerId = "0F6921E6-B6DE-4419-A3CD-177DEB844CC2";
shapes = (
{
closed = 1;
nodes = (
(354,0,l),
(354,603,l),
(594,603,l),
(594,700,l),
(7,700,l),
(7,603,l),
(247,603,l),
(247,0,l)
);
}
);
width = 601;
}
);
unicode = 84;
userData = {
KernOnName = T;
com.schriftgestaltung.Glyphs.ColorIndex = 3;
};
},
{
glyphname = U;
kernLeft = KO_U;
kernRight = KO_U;
lastChange = "2026-03-20 12:00:31 +0000";
layers = (
{
anchors = (
{
name = bottom;
pos = (384,0);
},
{
name = ogonek;
pos = (560,35);
},
{
name = top;
pos = (384,700);
},
{
name = topright;
pos = (692,700);
}
);
layerId = "0EDB233F-674C-46BF-8D38-84A6CD2C2EDF";
shapes = (
{
closed = 1;
nodes = (
(562,-10,o),
(686,96,o),
(688,286,cs),
(692,700,l),
(482,700,l),
(482,281,ls),
(482,218,o),
(444,174,o),
(384,174,cs),
(324,174,o),
(287,218,o),
(287,281,cs),
(286,700,l),
(76,700,l),
(76,286,ls),
(76,96,o),
(202,-10,o),
(384,-10,cs)
);
}
);
width = 768;
},
{
anchors = (
{
name = bottom;
pos = (346,0);
},
{
name = ogonek;
pos = (507,41);
},
{
name = top;
pos = (346,700);
},
{
name = topright;
pos = (593,700);
}
);
layerId = "9C56164D-AE66-4588-951C-3236F4A2688E";
shapes = (
{
closed = 1;
nodes = (
(494,-10,o),
(593,91,o),
(593,211,cs),
(593,700,l),
(560,700,l),
(560,210,ls),
(560,110,o),
(473,22,o),
(346,22,cs),
(221,22,o),
(135,110,o),
(135,210,cs),
(136,700,l),
(101,700,l),
(101,211,ls),
(101,91,o),
(200,-10,o),
(346,-10,cs)
);
}
);
width = 695;
},
{
anchors = (
{
name = bottom;
pos = (355,0);
},
{
name = ogonek;
pos = (535,46);
},
{
name = top;
pos = (355,700);
},
{
name = topright;
pos = (622,700);
}
);
layerId = "0F6921E6-B6DE-4419-A3CD-177DEB844CC2";
shapes = (
{
closed = 1;
nodes = (
(515,-10,o),
(621,91,o),
(621,220,cs),
(622,700,l),
(515,700,l),
(515,219,ls),
(515,148,o),
(453,86,o),
(355,86,cs),
(258,86,o),
(196,148,o),
(196,219,cs),
(196,700,l),
(89,700,l),
(89,220,ls),
(89,92,o),
(195,-10,o),
(355,-10,cs)
);
}
);
width = 711;
}
);
metricLeft = H;
metricRight = H;
unicode = 85;
userData = {
com.schriftgestaltung.Glyphs.ColorIndex = 3;
};
},
{
glyphname = Uhorn;
kernLeft = KO_U;
lastChange = "2026-03-20 12:00:31 +0000";
layers = (
{
anchors = (
{
name = bottom;
pos = (384,0);
},
{
name = top;
pos = (384,700);
}
);
background = {
shapes = (
{
ref = U;
},
{
pos = (433,183);
ref = horncomb;
}
);
};
layerId = "0EDB233F-674C-46BF-8D38-84A6CD2C2EDF";
shapes = (
{
closed = 1;
nodes = (
(562,-10,o),
(686,96,o),
(688,286,cs),
(691,612,l),
(773,612,o),
(854,652,o),
(854,794,c),
(724,794,l),
(724,714,o),
(710,700,o),
(692,700,cs),
(482,700,l),
(482,281,ls),
(482,218,o),
(444,174,o),
(384,174,cs),
(324,174,o),
(287,218,o),
(287,281,cs),
(286,700,l),
(76,700,l),
(76,286,ls),
(76,96,o),
(202,-10,o),
(384,-10,cs)
);
}
);
width = 768;
},
{
anchors = (
{
name = bottom;
pos = (347,0);
},
{
name = top;
pos = (347,700);
}
);
layerId = "9C56164D-AE66-4588-951C-3236F4A2688E";
shapes = (
{
closed = 1;
nodes = (
(494,-10,o),
(593,91,o),
(593,211,cs),
(593,675,l),
(638,675,o),
(686,705,o),
(686,785,c),
(657,785,l),
(657,721,o),
(628,700,o),
(593,700,cs),
(560,700,l),
(560,210,ls),
(560,110,o),
(473,22,o),
(346,22,cs),
(221,22,o),
(135,110,o),
(135,210,cs),
(136,700,l),
(101,700,l),
(101,211,ls),
(101,91,o),
(200,-10,o),
(346,-10,cs)
);
}
);
width = 695;
},
{
anchors = (
{
name = bottom;
pos = (356,0);
},
{
name = top;
pos = (356,700);
}
);
layerId = "0F6921E6-B6DE-4419-A3CD-177DEB844CC2";
shapes = (
{
closed = 1;
nodes = (
(515,-10,o),
(621,91,o),
(621,220,cs),
(622,643,l),
(684,643,o),
(746,676,o),
(746,790,c),
(675,790,l),
(675,715,o),
(652,700,o),
(622,700,cs),
(515,700,l),
(515,219,ls),
(515,148,o),
(453,86,o),
(355,86,cs),
(258,86,o),
(196,148,o),
(196,219,cs),
(196,700,l),
(89,700,l),
(89,220,ls),
(89,92,o),
(195,-10,o),
(355,-10,cs)
);
}
);
width = 711;
}
);
unicode = 431;
},
{
glyphname = V;
kernLeft = KO_V;
kernRight = KO_V;
lastChange = "2026-03-20 12:00:31 +0000";
layers = (
{
anchors = (
{
name = bottom;
pos = (378,0);
},
{
name = top;
pos = (378,700);
}
);
layerId = "0EDB233F-674C-46BF-8D38-84A6CD2C2EDF";
shapes = (
{
closed = 1;
nodes = (
(515,0,l),
(730,700,l),
(522,700,l),
(407,294,l),
(386,180,ls),
(383,165,o),
(366,165,o),
(364,180,cs),
(343,294,l),
(228,700,l),
(20,700,l),
(233,0,l)
);
}
);
width = 750;
},
{
anchors = (
{
name = bottom;
pos = (311,0);
},
{
name = top;
pos = (311,700);
}
);
layerId = "9C56164D-AE66-4588-951C-3236F4A2688E";
shapes = (
{
closed = 1;
nodes = (
(331,0,l),
(600,700,l),
(563,700,l),
(345,131,l),
(318,49,ls),
(315,39,o),
(306,39,o),
(303,49,cs),
(276,131,l),
(56,700,l),
(20,700,l),
(289,0,l)
);
}
);
width = 620;
},
{
anchors = (
{
name = bottom;
pos = (340,0);
},
{
name = top;
pos = (340,700);
}
);
layerId = "0F6921E6-B6DE-4419-A3CD-177DEB844CC2";
shapes = (
{
closed = 1;
nodes = (
(416,0,l),
(660,700,l),
(551,700,l),
(374,209,l),
(348,95,ls),
(346,85,o),
(333,85,o),
(331,95,cs),
(304,209,l),
(129,700,l),
(20,700,l),
(262,0,l)
);
}
);
width = 680;
}
);
unicode = 86;
userData = {
KernOnName = V;
com.schriftgestaltung.Glyphs.ColorIndex = 3;
};
},
{
glyphname = W;
kernLeft = KO_W;
kernRight = KO_W;
lastChange = "2026-03-20 12:00:31 +0000";
layers = (
{
anchors = (
{
name = bottom;
pos = (483,0);
},
{
name = top;
pos = (483,700);
}
);
layerId = "0EDB233F-674C-46BF-8D38-84A6CD2C2EDF";
shapes = (
{
closed = 1;
nodes = (
(378,-2,l),
(472,415,ls),
(476,431,o),
(490,431,o),
(494,415,cs),
(588,-2,l),
(803,-2,l),
(946,700,l),
(760,700,l),
(700,380,l),
(694,268,ls),
(693,251,o),
(675,249,o),
(671,265,cs),
(568,700,l),
(398,700,l),
(295,265,ls),
(291,249,o),
(273,251,o),
(272,268,cs),
(266,380,l),
(206,700,l),
(20,700,l),
(163,-2,l)
);
}
);
width = 966;
},
{
anchors = (
{
name = bottom;
pos = (452,0);
},
{
name = top;
pos = (452,700);
}
);
layerId = "9C56164D-AE66-4588-951C-3236F4A2688E";
shapes = (
{
closed = 1;
nodes = (
(259,0,l),
(444,622,ls),
(449,640,o),
(457,640,o),
(462,622,cs),
(648,0,l),
(684,0,l),
(884,700,l),
(849,700,l),
(684,122,l),
(675,68,ls),
(672,53,o),
(660,52,o),
(656,67,cs),
(471,700,l),
(436,700,l),
(249,67,ls),
(245,51,o),
(234,53,o),
(231,68,cs),
(222,122,l),
(57,700,l),
(22,700,l),
(223,0,l)
);
}
);
width = 906;
},
{
anchors = (
{
name = bottom;
pos = (480,0);
},
{
name = top;
pos = (480,700);
}
);
layerId = "0F6921E6-B6DE-4419-A3CD-177DEB844CC2";
shapes = (
{
closed = 1;
nodes = (
(328,0,l),
(470,499,ls),
(474,515,o),
(486,515,o),
(490,499,cs),
(632,0,l),
(740,0,l),
(929,700,l),
(821,700,l),
(711,273,l),
(691,150,ls),
(689,137,o),
(674,137,o),
(671,149,cs),
(527,700,l),
(433,700,l),
(290,149,ls),
(287,137,o),
(271,137,o),
(269,150,cs),
(250,273,l),
(139,700,l),
(32,700,l),
(221,0,l)
);
}
);
width = 961;
}
);
unicode = 87;
userData = {
com.schriftgestaltung.Glyphs.ColorIndex = 3;
};
},
{
glyphname = X;
kernLeft = KO_X;
kernRight = KO_X;
lastChange = "2026-03-20 12:00:31 +0000";
layers = (
{
anchors = (
{
name = bottom;
pos = (399,0);
},
{
name = bottomright;
pos = (717,0);
},
{
name = center;
pos = (401,360);
},
{
name = top;
pos = (399,700);
}
);
layerId = "0EDB233F-674C-46BF-8D38-84A6CD2C2EDF";
shapes = (
{
closed = 1;
nodes = (
(244,0,l),
(348,170,l),
(386,262,ls),
(392,277,o),
(403,281,o),
(411,262,cs),
(448,170,l),
(554,0,l),
(777,0,l),
(556,351,l),
(777,700,l),
(553,700,l),
(447,533,l),
(411,450,ls),
(405,435,o),
(393,435,o),
(386,450,cs),
(348,533,l),
(243,700,l),
(20,700,l),
(239,351,l),
(20,0,l)
);
}
);
width = 797;
},
{
anchors = (
{
name = bottom;
pos = (316,0);
},
{
name = bottomright;
pos = (589,0);
},
{
name = center;
pos = (319,354);
},
{
name = top;
pos = (316,700);
}
);
layerId = "9C56164D-AE66-4588-951C-3236F4A2688E";
shapes = (
{
closed = 1;
nodes = (
(64,0,l),
(278,279,l),
(310,326,ls),
(315,333,o),
(320,333,o),
(325,326,cs),
(358,279,l),
(571,0,l),
(615,0,l),
(340,354,l),
(615,700,l),
(571,700,l),
(358,428,l),
(325,382,ls),
(320,375,o),
(315,375,o),
(310,382,cs),
(278,428,l),
(64,700,l),
(20,700,l),
(295,354,l),
(20,0,l)
);
}
);
width = 635;
},
{
anchors = (
{
name = bottom;
pos = (353,0);
},
{
name = bottomright;
pos = (620,0);
},
{
name = center;
pos = (354,352);
},
{
name = top;
pos = (353,700);
}
);
layerId = "0F6921E6-B6DE-4419-A3CD-177DEB844CC2";
shapes = (
{
closed = 1;
nodes = (
(142,0,l),
(301,224,l),
(343,297,ls),
(350,308,o),
(356,308,o),
(363,297,cs),
(407,224,l),
(565,0,l),
(686,0,l),
(431,352,l),
(686,700,l),
(565,700,l),
(406,480,l),
(363,408,ls),
(357,397,o),
(349,397,o),
(343,408,cs),
(302,480,l),
(142,700,l),
(20,700,l),
(276,352,l),
(20,0,l)
);
}
);
width = 706;
}
);
metricLeft = V;
metricRight = V;
unicode = 88;
userData = {
KernOnName = X;
com.schriftgestaltung.Glyphs.ColorIndex = 3;
com.schriftgestaltung.Glyphs.layer.leftMetricsKey = "==V";
com.schriftgestaltung.Glyphs.layer.rightMetricsKey = "==V";
com.schriftgestaltung.Glyphs.leftMetricsKey = T;
com.schriftgestaltung.Glyphs.rightMetricsKey = T;
};
},
{
glyphname = Y;
kernLeft = KO_Y;
kernRight = KO_Y;
lastChange = "2026-03-20 12:00:31 +0000";
layers = (
{
anchors = (
{
name = bottom;
pos = (360,0);
},
{
name = top;
pos = (360,700);
},
{
name = topleft;
pos = (20,700);
}
);
background = {
shapes = (
{
closed = 1;
nodes = (
(467,0,l),
(467,222,l),
(706,700,l),
(484,700,l),
(367,424,l),
(357,424,l),
(239,700,l),
(16,700,l),
(257,222,l),
(257,0,l)
);
}
);
};
layerId = "0EDB233F-674C-46BF-8D38-84A6CD2C2EDF";
shapes = (
{
closed = 1;
nodes = (
(465,0,l),
(465,197,l),
(700,700,l),
(485,700,l),
(393,475,l),
(372,391,ls),
(369,376,o),
(353,376,o),
(351,391,cs),
(329,475,l),
(236,700,l),
(20,700,l),
(255,197,l),
(255,0,l)
);
}
);
width = 720;
},
{
anchors = (
{
name = bottom;
pos = (330,0);
},
{
name = top;
pos = (330,700);
},
{
name = topleft;
pos = (34,700);
}
);
layerId = "9C56164D-AE66-4588-951C-3236F4A2688E";
shapes = (
{
closed = 1;
nodes = (
(349,0,l),
(349,253,l),
(641,700,l),
(599,700,l),
(373,347,l),
(342,288,ls),
(337,278,o),
(327,278,o),
(321,288,cs),
(290,347,l),
(62,700,l),
(20,700,l),
(314,253,l),
(314,0,l)
);
}
);
width = 661;
},
{
anchors = (
{
name = bottom;
pos = (358,0);
},
{
name = top;
pos = (358,700);
},
{
name = topleft;
pos = (43,700);
}
);
layerId = "0F6921E6-B6DE-4419-A3CD-177DEB844CC2";
shapes = (
{
closed = 1;
nodes = (
(414,0,l),
(414,250,l),
(697,700,l),
(577,700,l),
(400,418,l),
(369,344,ls),
(365,335,o),
(352,335,o),
(348,344,cs),
(318,418,l),
(140,700,l),
(20,700,l),
(304,250,l),
(304,0,l)
);
}
);
width = 717;
}
);
unicode = 89;
userData = {
KernOnName = Y;
com.schriftgestaltung.Glyphs.ColorIndex = 3;
};
},
{
glyphname = Z;
kernLeft = KO_Z;
kernRight = KO_Z;
lastChange = "2026-03-20 12:00:31 +0000";
layers = (
{
anchors = (
{
name = bottom;
pos = (320,0);
},
{
name = top;
pos = (320,700);
}
);
layerId = "0EDB233F-674C-46BF-8D38-84A6CD2C2EDF";
shapes = (
{
closed = 1;
nodes = (
(612,0,l),
(612,180,l),
(306,180,ls),
(290,180,o),
(285,191,o),
(301,205,cs),
(383,275,l),
(612,539,l),
(612,700,l),
(38,700,l),
(38,520,l),
(355,520,l),
(372,520,o),
(377,507,o),
(361,494,cs),
(273,420,l),
(40,161,l),
(40,0,l)
);
}
);
width = 650;
},
{
anchors = (
{
name = bottom;
pos = (285,0);
},
{
name = top;
pos = (285,700);
}
);
layerId = "9C56164D-AE66-4588-951C-3236F4A2688E";
shapes = (
{
closed = 1;
nodes = (
(509,0,l),
(509,32,l),
(98,32,ls),
(88,32,o),
(85,39,o),
(94,48,cs),
(124,79,l),
(504,672,l),
(504,700,l),
(64,700,l),
(64,668,l),
(455,668,l),
(463,668,o),
(468,661,o),
(460,653,cs),
(432,621,l),
(51,27,l),
(51,0,l)
);
}
);
width = 560;
},
{
anchors = (
{
name = bottom;
pos = (301,0);
},
{
name = top;
pos = (301,700);
}
);
layerId = "0F6921E6-B6DE-4419-A3CD-177DEB844CC2";
shapes = (
{
closed = 1;
nodes = (
(557,0,l),
(557,97,l),
(189,97,ls),
(182,97,o),
(179,105,o),
(185,111,cs),
(241,177,l),
(555,635,l),
(555,700,l),
(54,700,l),
(54,603,l),
(413,603,l),
(419,603,o),
(424,596,o),
(418,589,cs),
(359,518,l),
(45,64,l),
(45,0,l)
);
}
);
width = 601;
}
);
metricLeft = "=I/2";
metricRight = "=I/2";
unicode = 90;
userData = {
com.schriftgestaltung.Glyphs.ColorIndex = 3;
com.schriftgestaltung.Glyphs.layer.leftMetricsKey = "==H/2";
com.schriftgestaltung.Glyphs.layer.rightMetricsKey = "==H/2";
};
},
{
glyphname = Saltillo;
lastChange = "2026-03-20 12:00:31 +0000";
layers = (
{
layerId = "0EDB233F-674C-46BF-8D38-84A6CD2C2EDF";
shapes = (
{
closed = 1;
nodes = (
(204,257,l),
(204,700,l),
(50,700,l),
(50,257,l)
);
}
);
width = 254;
},
{
layerId = "9C56164D-AE66-4588-951C-3236F4A2688E";
shapes = (
{
closed = 1;
nodes = (
(109,363,l),
(109,700,l),
(78,700,l),
(78,363,l)
);
}
);
width = 187;
},
{
layerId = "0F6921E6-B6DE-4419-A3CD-177DEB844CC2";
shapes = (
{
closed = 1;
nodes = (
(152,316,l),
(152,700,l),
(67,700,l),
(67,316,l)
);
}
);
width = 219;
}
);
metricLeft = quotesingle;
metricRight = quotesingle;
unicode = 42891;
},
{
glyphname = I_J.loclNLD;
kernLeft = KO_I;
kernRight = KO_J;
lastChange = "2026-03-20 12:00:31 +0000";
layers = (
{
layerId = "0EDB233F-674C-46BF-8D38-84A6CD2C2EDF";
shapes = (
{
closed = 1;
nodes = (
(286,0,l),
(286,700,l),
(76,700,l),
(76,0,l)
);
},
{
closed = 1;
nodes = (
(677,-12,o),
(783,85,o),
(783,264,cs),
(783,700,l),
(573,700,l),
(573,264,ls),
(573,202,o),
(543,171,o),
(485,171,cs),
(448,171,o),
(424,175,o),
(397,181,c),
(397,3,l),
(425,-7,o),
(457,-12,o),
(502,-12,cs)
);
}
);
width = 859;
},
{
layerId = "9C56164D-AE66-4588-951C-3236F4A2688E";
shapes = (
{
closed = 1;
nodes = (
(136,0,l),
(136,700,l),
(101,700,l),
(101,0,l)
);
},
{
closed = 1;
nodes = (
(474,-12,o),
(545,41,o),
(545,146,cs),
(545,700,l),
(510,700,l),
(510,146,ls),
(510,61,o),
(452,20,o),
(377,20,cs),
(320,20,o),
(269,44,o),
(247,77,c),
(247,39,l),
(275,9,o),
(327,-12,o),
(379,-12,cs)
);
}
);
width = 647;
},
{
layerId = "0F6921E6-B6DE-4419-A3CD-177DEB844CC2";
shapes = (
{
closed = 1;
nodes = (
(195,0,l),
(195,700,l),
(89,700,l),
(89,0,l)
);
},
{
closed = 1;
nodes = (
(556,-12,o),
(637,57,o),
(637,177,cs),
(637,700,l),
(531,700,l),
(531,177,ls),
(531,117,o),
(486,87,o),
(414,87,cs),
(374,87,o),
(330,94,o),
(305,112,c),
(305,13,l),
(342,-3,o),
(387,-12,o),
(431,-12,cs)
);
}
);
width = 727;
}
);
},
{
color = 9;
glyphname = I_J.loclNLD.ss01;
kernLeft = KO_H;
lastChange = "2026-03-20 12:00:31 +0000";
layers = (
{
layerId = "0EDB233F-674C-46BF-8D38-84A6CD2C2EDF";
shapes = (
{
closed = 1;
nodes = (
(286,0,l),
(286,700,l),
(76,700,l),
(76,0,l)
);
},
{
closed = 1;
nodes = (
(677,-12,o),
(783,85,o),
(783,264,cs),
(783,700,l),
(573,700,l),
(573,264,ls),
(573,202,o),
(543,171,o),
(485,171,cs),
(448,171,o),
(424,175,o),
(397,181,c),
(397,3,l),
(425,-7,o),
(457,-12,o),
(502,-12,cs)
);
}
);
width = 859;
},
{
layerId = "9C56164D-AE66-4588-951C-3236F4A2688E";
shapes = (
{
closed = 1;
nodes = (
(136,0,l),
(136,700,l),
(101,700,l),
(101,0,l)
);
},
{
closed = 1;
nodes = (
(474,-12,o),
(545,41,o),
(545,146,cs),
(545,700,l),
(510,700,l),
(510,146,ls),
(510,61,o),
(452,20,o),
(377,20,cs),
(320,20,o),
(269,44,o),
(247,77,c),
(247,39,l),
(275,9,o),
(327,-12,o),
(379,-12,cs)
);
}
);
width = 647;
},
{
layerId = "0F6921E6-B6DE-4419-A3CD-177DEB844CC2";
shapes = (
{
closed = 1;
nodes = (
(195,0,l),
(195,700,l),
(89,700,l),
(89,0,l)
);
},
{
closed = 1;
nodes = (
(556,-12,o),
(637,57,o),
(637,177,cs),
(637,700,l),
(531,700,l),
(531,177,ls),
(531,117,o),
(486,87,o),
(414,87,cs),
(374,87,o),
(330,94,o),
(305,112,c),
(305,13,l),
(342,-3,o),
(387,-12,o),
(431,-12,cs)
);
}
);
width = 727;
}
);
},
{
glyphname = a;
kernLeft = KO_a;
kernRight = KO_a;
lastChange = "2026-03-20 12:00:31 +0000";
layers = (
{
anchors = (
{
name = bottom;
pos = (324,0);
},
{
name = ogonek;
pos = (569,0);
},
{
name = top;
pos = (312,546);
}
);
background = {
shapes = (
{
pos = (-45,0);
ref = n;
}
);
};
layerId = "0EDB233F-674C-46BF-8D38-84A6CD2C2EDF";
shapes = (
{
closed = 1;
nodes = (
(304,-12,o),
(355,14,o),
(392,62,cs),
(403,77,o),
(413,70,o),
(414,60,cs),
(418,0,l),
(569,0,l),
(569,347,ls),
(569,505,o),
(456,559,o),
(314,559,cs),
(221,559,o),
(138,531,o),
(74,488,c),
(116,352,l),
(174,389,o),
(234,407,o),
(293,407,cs),
(369,407,o),
(395,380,o),
(395,349,cs),
(395,335,l),
(297,335,ls),
(138,335,o),
(55,262,o),
(55,155,cs),
(55,62,o),
(122,-12,o),
(243,-12,cs)
);
},
{
closed = 1;
nodes = (
(257,121,o),
(228,136,o),
(228,165,cs),
(228,192,o),
(254,206,o),
(296,206,cs),
(314,206,l),
(378,217,ls),
(385,218,o),
(395,217,o),
(395,207,cs),
(395,185,ls),
(395,151,o),
(355,121,o),
(297,121,cs)
);
}
);
width = 630;
},
{
anchors = (
{
name = bottom;
pos = (276,0);
},
{
name = ogonek;
pos = (453,0);
},
{
name = top;
pos = (253,524);
}
);
layerId = "9C56164D-AE66-4588-951C-3236F4A2688E";
shapes = (
{
closed = 1;
nodes = (
(314,-9,o),
(382,25,o),
(408,86,cs),
(413,97,o),
(420,95,o),
(420,86,cs),
(420,0,l),
(453,0,l),
(453,367,ls),
(453,484,o),
(357,536,o),
(257,536,cs),
(184,536,o),
(128,516,o),
(69,474,c),
(80,446,l),
(132,483,o),
(187,505,o),
(255,505,cs),
(341,505,o),
(419,464,o),
(419,366,cs),
(419,288,l),
(252,288,ls),
(128,288,o),
(54,233,o),
(54,137,cs),
(54,50,o),
(129,-9,o),
(239,-9,cs)
);
},
{
closed = 1;
nodes = (
(149,21,o),
(89,68,o),
(89,138,cs),
(89,216,o),
(153,257,o),
(251,257,cs),
(327,257,l),
(408,267,ls),
(414,268,o),
(419,262,o),
(419,257,cs),
(419,186,ls),
(419,76,o),
(335,21,o),
(241,21,cs)
);
}
);
width = 539;
},
{
anchors = (
{
name = bottom;
pos = (290,0);
},
{
name = ogonek;
pos = (490,0);
},
{
name = top;
pos = (271,535);
}
);
layerId = "0F6921E6-B6DE-4419-A3CD-177DEB844CC2";
shapes = (
{
closed = 1;
nodes = (
(308,-10,o),
(350,20,o),
(383,66,cs),
(391,77,o),
(400,73,o),
(400,63,cs),
(400,0,l),
(490,0,l),
(490,362,ls),
(490,467,o),
(406,547,o),
(282,547,cs),
(189,547,o),
(129,520,o),
(69,477,c),
(99,399,l),
(149,440,o),
(208,459,o),
(266,459,cs),
(353,459,o),
(395,416,o),
(395,350,cs),
(395,319,l),
(261,319,ls),
(131,319,o),
(53,252,o),
(53,146,cs),
(53,59,o),
(130,-10,o),
(230,-10,cs)
);
},
{
closed = 1;
nodes = (
(188,75,o),
(150,104,o),
(150,153,cs),
(150,199,o),
(187,231,o),
(256,231,cs),
(316,231,l),
(379,246,ls),
(391,249,o),
(395,241,o),
(395,234,cs),
(395,191,ls),
(395,126,o),
(348,75,o),
(248,75,cs)
);
}
);
width = 565;
}
);
unicode = 97;
userData = {
KernOnName = a;
com.schriftgestaltung.Glyphs.ColorIndex = 3;
com.typemytype.robofont.layerData = {
background = {
anchors = (
);
components = (
{
baseGlyph = n;
transformation = (
1,
0,
0,
1,
-5,
0
);
}
);
contours = (
);
lib = {
};
name = a;
unicodes = (
);
width = 491;
};
};
};
},
{
glyphname = abrevedotbelow;
kernLeft = KO_adieresis;
kernRight = KO_a;
lastChange = "2026-03-20 12:00:31 +0000";
layers = (
{
anchors = (
{
name = bottom;
pos = (324,-204);
},
{
name = ogonek;
pos = (569,0);
},
{
name = top;
pos = (312,766);
}
);
layerId = "0EDB233F-674C-46BF-8D38-84A6CD2C2EDF";
shapes = (
{
closed = 1;
nodes = (
(432,-204,l),
(432,-72,l),
(215,-72,l),
(215,-204,l)
);
},
{
closed = 1;
nodes = (
(418,618,o),
(466,677,o),
(486,754,c),
(382,774,l),
(364,734,o),
(339,717,o),
(312,717,cs),
(284,717,o),
(260,734,o),
(241,774,c),
(138,754,l),
(158,677,o),
(206,618,o),
(312,618,cs)
);
},
{
ref = a;
}
);
width = 630;
},
{
anchors = (
{
name = bottom;
pos = (276,-226);
},
{
name = ogonek;
pos = (453,0);
},
{
name = top;
pos = (253,694);
}
);
layerId = "9C56164D-AE66-4588-951C-3236F4A2688E";
shapes = (
{
closed = 1;
nodes = (
(293,-226,l),
(293,-108,l),
(259,-108,l),
(259,-226,l)
);
},
{
closed = 1;
nodes = (
(326,618,o),
(366,666,o),
(379,728,c),
(356,735,l),
(338,680,o),
(310,645,o),
(253,645,cs),
(196,645,o),
(167,682,o),
(150,735,c),
(127,728,l),
(139,668,o),
(180,618,o),
(253,618,cs)
);
},
{
ref = a;
}
);
width = 539;
},
{
anchors = (
{
name = bottom;
pos = (290,-215);
},
{
name = ogonek;
pos = (490,0);
},
{
name = top;
pos = (271,727);
}
);
layerId = "0F6921E6-B6DE-4419-A3CD-177DEB844CC2";
shapes = (
{
closed = 1;
nodes = (
(341,-215,l),
(341,-97,l),
(239,-97,l),
(239,-215,l)
);
},
{
closed = 1;
nodes = (
(355,618,o),
(412,661,o),
(433,736,c),
(361,755,l),
(347,713,o),
(318,687,o),
(271,687,cs),
(224,687,o),
(196,713,o),
(182,755,c),
(110,736,l),
(131,661,o),
(187,618,o),
(271,618,cs)
);
},
{
ref = a;
}
);
width = 565;
}
);
unicode = 7863;
},
{
glyphname = acircumflexdotbelow;
kernLeft = KO_adieresis;
kernRight = KO_a;
lastChange = "2026-03-20 12:00:31 +0000";
layers = (
{
anchors = (
{
name = bottom;
pos = (324,-204);
},
{
name = ogonek;
pos = (569,0);
},
{
name = top;
pos = (312,766);
}
);
layerId = "0EDB233F-674C-46BF-8D38-84A6CD2C2EDF";
shapes = (
{
closed = 1;
nodes = (
(432,-204,l),
(432,-72,l),
(215,-72,l),
(215,-204,l)
);
},
{
closed = 1;
nodes = (
(262,618,l),
(289,656,l),
(302,686,ls),
(305,694,o),
(317,694,o),
(320,686,cs),
(333,656,l),
(360,618,l),
(498,618,l),
(409,760,l),
(213,760,l),
(124,618,l)
);
},
{
ref = a;
}
);
width = 630;
},
{
anchors = (
{
name = bottom;
pos = (276,-226);
},
{
name = ogonek;
pos = (453,0);
},
{
name = top;
pos = (253,715);
}
);
layerId = "9C56164D-AE66-4588-951C-3236F4A2688E";
shapes = (
{
closed = 1;
nodes = (
(293,-226,l),
(293,-108,l),
(259,-108,l),
(259,-226,l)
);
},
{
closed = 1;
nodes = (
(173,618,l),
(233,707,l),
(246,734,ls),
(249,740,o),
(257,740,o),
(260,734,cs),
(273,707,l),
(333,618,l),
(363,618,l),
(271,760,l),
(235,760,l),
(143,618,l)
);
},
{
ref = a;
}
);
width = 539;
},
{
anchors = (
{
name = bottom;
pos = (290,-215);
},
{
name = ogonek;
pos = (490,0);
},
{
name = top;
pos = (271,750);
}
);
layerId = "0F6921E6-B6DE-4419-A3CD-177DEB844CC2";
shapes = (
{
closed = 1;
nodes = (
(341,-215,l),
(341,-97,l),
(239,-97,l),
(239,-215,l)
);
},
{
closed = 1;
nodes = (
(211,618,l),
(252,678,l),
(263,707,ls),
(267,715,o),
(273,715,o),
(277,707,cs),
(289,678,l),
(330,618,l),
(413,618,l),
(320,760,l),
(221,760,l),
(128,618,l)
);
},
{
ref = a;
}
);
width = 565;
}
);
unicode = 7853;
},
{
glyphname = ae;
kernLeft = KO_ae;
kernRight = KO_e;
lastChange = "2026-03-20 12:00:31 +0000";
layers = (
{
anchors = (
{
name = bottom;
pos = (499,0);
},
{
name = top;
pos = (511,546);
}
);
background = {
shapes = (
{
ref = a;
},
{
pos = (362,0);
ref = e;
}
);
};
layerId = "0EDB233F-674C-46BF-8D38-84A6CD2C2EDF";
shapes = (
{
closed = 1;
nodes = (
(784,-11,o),
(867,4,o),
(930,33,c),
(911,167,l),
(852,146,o),
(793,136,o),
(740,136,cs),
(658,136,o),
(607,164,o),
(588,216,c),
(947,216,l),
(964,305,l),
(967,456,o),
(871,558,o),
(697,558,cs),
(638,558,o),
(561,546,o),
(523,491,cs),
(513,477,o),
(503,478,o),
(495,492,cs),
(460,551,o),
(388,559,o),
(314,559,cs),
(221,559,o),
(138,531,o),
(74,488,c),
(116,352,l),
(174,389,o),
(234,407,o),
(293,407,cs),
(369,407,o),
(395,380,o),
(395,349,cs),
(395,335,l),
(297,335,ls),
(138,335,o),
(55,262,o),
(55,155,cs),
(55,62,o),
(122,-11,o),
(263,-11,cs),
(346,-11,o),
(432,16,o),
(475,78,cs),
(484,91,o),
(496,91,o),
(503,80,cs),
(544,15,o),
(630,-11,o),
(719,-11,cs)
);
},
{
closed = 1;
nodes = (
(257,121,o),
(228,136,o),
(228,165,cs),
(228,192,o),
(254,206,o),
(296,206,cs),
(314,206,l),
(378,217,ls),
(385,218,o),
(395,217,o),
(395,207,cs),
(395,185,ls),
(395,151,o),
(355,121,o),
(297,121,cs)
);
},
{
closed = 1;
nodes = (
(601,377,o),
(633,408,o),
(697,408,cs),
(762,408,o),
(790,379,o),
(791,333,c),
(588,333,l)
);
}
);
width = 999;
},
{
anchors = (
{
name = bottom;
pos = (467,0);
},
{
name = top;
pos = (453,524);
}
);
layerId = "9C56164D-AE66-4588-951C-3236F4A2688E";
shapes = (
{
closed = 1;
nodes = (
(724,-12,o),
(786,4,o),
(839,50,c),
(829,77,l),
(775,32,o),
(726,19,o),
(662,19,cs),
(547,19,o),
(454,82,o),
(453,250,c),
(866,250,l),
(875,276,l),
(871,399,o),
(840,536,o),
(655,536,cs),
(567,536,o),
(495,492,o),
(460,420,cs),
(453,405,o),
(446,404,o),
(441,422,cs),
(422,495,o),
(345,536,o),
(257,536,cs),
(184,536,o),
(128,516,o),
(69,474,c),
(80,446,l),
(132,483,o),
(187,505,o),
(255,505,cs),
(341,505,o),
(419,464,o),
(419,366,cs),
(419,288,l),
(252,288,ls),
(128,288,o),
(54,233,o),
(54,137,cs),
(54,50,o),
(129,-9,o),
(239,-9,cs),
(348,-9,o),
(410,51,o),
(430,103,cs),
(437,121,o),
(445,123,o),
(454,103,cs),
(483,40,o),
(560,-12,o),
(662,-12,cs)
);
},
{
closed = 1;
nodes = (
(149,21,o),
(89,68,o),
(89,138,cs),
(89,216,o),
(153,257,o),
(251,257,cs),
(327,257,l),
(408,267,ls),
(414,268,o),
(419,262,o),
(419,257,cs),
(419,186,ls),
(419,76,o),
(335,21,o),
(241,21,cs)
);
},
{
closed = 1;
nodes = (
(462,420,o),
(537,505,o),
(655,505,cs),
(815,505,o),
(843,372,o),
(843,280,c),
(455,280,l)
);
}
);
width = 933;
},
{
anchors = (
{
name = bottom;
pos = (470,0);
},
{
name = top;
pos = (464,535);
}
);
layerId = "0F6921E6-B6DE-4419-A3CD-177DEB844CC2";
shapes = (
{
closed = 1;
nodes = (
(739,-12,o),
(802,5,o),
(857,55,c),
(839,131,l),
(788,90,o),
(726,73,o),
(676,73,cs),
(570,73,o),
(502,121,o),
(493,232,c),
(882,232,l),
(892,281,l),
(892,414,o),
(845,547,o),
(656,547,cs),
(572,547,o),
(515,518,o),
(475,460,cs),
(464,445,o),
(458,444,o),
(448,461,cs),
(414,518,o),
(354,547,o),
(282,547,cs),
(189,547,o),
(129,520,o),
(69,477,c),
(99,399,l),
(149,440,o),
(208,459,o),
(266,459,cs),
(353,459,o),
(395,416,o),
(395,350,cs),
(395,319,l),
(261,319,ls),
(131,319,o),
(53,252,o),
(53,146,cs),
(53,59,o),
(130,-10,o),
(230,-10,cs),
(344,-10,o),
(406,40,o),
(435,90,cs),
(443,104,o),
(453,104,o),
(461,89,cs),
(488,42,o),
(562,-12,o),
(672,-12,cs)
);
},
{
closed = 1;
nodes = (
(188,75,o),
(150,104,o),
(150,153,cs),
(150,199,o),
(187,231,o),
(256,231,cs),
(316,231,l),
(379,246,ls),
(391,249,o),
(395,241,o),
(395,234,cs),
(395,191,ls),
(395,126,o),
(348,75,o),
(248,75,cs)
);
},
{
closed = 1;
nodes = (
(509,407,o),
(571,463,o),
(656,463,cs),
(772,463,o),
(794,382,o),
(796,312,c),
(496,312,l)
);
}
);
width = 938;
}
);
metricLeft = a;
metricRight = e;
unicode = 230;
userData = {
com.schriftgestaltung.Glyphs.leftMetricsKey = a;
com.schriftgestaltung.Glyphs.rightMetricsKey = e;
};
},
{
color = 4;
glyphname = bstroke;
lastChange = "2026-03-20 12:00:31 +0000";
layers = (
{
background = {
shapes = (
{
pos = (-377,0);
ref = dcroat;
}
);
};
layerId = "0EDB233F-674C-46BF-8D38-84A6CD2C2EDF";
shapes = (
{
closed = 1;
nodes = (
(572,-12,o),
(673,117,o),
(673,273,cs),
(673,426,o),
(574,558,o),
(407,558,cs),
(354,558,o),
(312,539,o),
(278,498,cs),
(271,490,o),
(262,490,o),
(262,501,cs),
(262,597,l),
(375,597,l),
(375,706,l),
(262,706,l),
(262,750,l),
(66,750,l),
(66,706,l),
(2,706,l),
(2,597,l),
(66,597,l),
(66,0,l),
(262,0,l),
(262,38,ls),
(262,52,o),
(274,57,o),
(288,46,cs),
(354,-5,l),
(371,-9,o),
(385,-12,o),
(404,-12,cs)
);
},
{
closed = 1;
nodes = (
(298,150,o),
(262,188,o),
(262,235,cs),
(262,308,ls),
(262,358,o),
(293,396,o),
(357,396,cs),
(436,396,o),
(476,339,o),
(476,273,cs),
(476,209,o),
(436,150,o),
(358,150,cs)
);
}
);
width = 713;
},
{
layerId = "9C56164D-AE66-4588-951C-3236F4A2688E";
shapes = (
{
closed = 1;
nodes = (
(471,-12,o),
(576,101,o),
(576,262,cs),
(576,424,o),
(472,536,o),
(322,536,cs),
(226,536,o),
(161,479,o),
(136,426,cs),
(133,419,o),
(126,422,o),
(126,428,cs),
(126,621,l),
(240,621,l),
(240,646,l),
(126,646,l),
(126,750,l),
(91,750,l),
(91,646,l),
(-20,646,l),
(-20,621,l),
(91,621,l),
(91,0,l),
(126,0,l),
(126,78,ls),
(126,86,o),
(132,89,o),
(139,83,cs),
(187,29,l),
(221,5,o),
(261,-12,o),
(322,-12,cs)
);
},
{
closed = 1;
nodes = (
(202,19,o),
(126,103,o),
(126,198,cs),
(126,327,ls),
(126,421,o),
(201,505,o),
(320,505,cs),
(450,505,o),
(541,411,o),
(541,262,cs),
(541,113,o),
(450,19,o),
(320,19,cs)
);
}
);
width = 639;
},
{
layerId = "0F6921E6-B6DE-4419-A3CD-177DEB844CC2";
shapes = (
{
closed = 1;
nodes = (
(516,-12,o),
(587,150,o),
(587,267,cs),
(587,385,o),
(524,547,o),
(341,547,cs),
(276,547,o),
(232,521,o),
(196,478,cs),
(190,472,o),
(181,473,o),
(181,482,cs),
(181,598,l),
(288,598,l),
(288,674,l),
(181,674,l),
(181,750,l),
(79,750,l),
(79,674,l),
(-19,674,l),
(-19,598,l),
(79,598,l),
(79,0,l),
(181,0,l),
(181,41,ls),
(181,55,o),
(192,59,o),
(206,49,cs),
(267,1,l),
(290,-7,o),
(309,-12,o),
(339,-12,cs)
);
},
{
closed = 1;
nodes = (
(244,73,o),
(181,135,o),
(181,216,cs),
(181,329,ls),
(181,409,o),
(236,462,o),
(324,462,cs),
(435,462,o),
(483,360,o),
(483,267,cs),
(483,175,o),
(435,73,o),
(324,73,cs)
);
}
);
width = 639;
}
);
unicode = 384;
},
{
glyphname = c;
kernLeft = KO_o;
kernRight = KO_c;
lastChange = "2026-03-20 12:00:31 +0000";
layers = (
{
anchors = (
{
name = bottom;
pos = (347,0);
},
{
name = top;
pos = (322,546);
}
);
layerId = "0EDB233F-674C-46BF-8D38-84A6CD2C2EDF";
shapes = (
{
closed = 1;
nodes = (
(409,-12,o),
(466,7,o),
(508,39,c),
(457,179,l),
(427,165,o),
(395,158,o),
(360,158,cs),
(274,158,o),
(237,216,o),
(237,273,cs),
(237,331,o),
(274,388,o),
(360,388,cs),
(395,388,o),
(427,381,o),
(457,367,c),
(508,507,l),
(466,539,o),
(409,558,o),
(345,558,cs),
(130,558,o),
(41,424,o),
(40,273,cs),
(41,122,o),
(130,-12,o),
(345,-12,cs)
);
}
);
width = 548;
},
{
anchors = (
{
name = bottom;
pos = (311,0);
},
{
name = top;
pos = (310,524);
}
);
layerId = "9C56164D-AE66-4588-951C-3236F4A2688E";
shapes = (
{
closed = 1;
nodes = (
(373,-12,o),
(420,2,o),
(458,29,c),
(442,53,l),
(410,30,o),
(367,19,o),
(315,19,cs),
(186,19,o),
(98,114,o),
(98,262,cs),
(98,410,o),
(186,505,o),
(315,505,cs),
(367,505,o),
(409,494,o),
(442,470,c),
(458,495,l),
(420,522,o),
(373,536,o),
(314,536,cs),
(166,536,o),
(63,424,o),
(63,262,cs),
(63,100,o),
(166,-12,o),
(314,-12,cs)
);
}
);
width = 516;
},
{
anchors = (
{
name = bottom;
pos = (305,0);
},
{
name = top;
pos = (315,535);
}
);
layerId = "0F6921E6-B6DE-4419-A3CD-177DEB844CC2";
shapes = (
{
closed = 1;
nodes = (
(383,-12,o),
(444,9,o),
(487,45,c),
(444,120,l),
(415,95,o),
(376,77,o),
(330,77,cs),
(200,77,o),
(156,176,o),
(156,267,cs),
(156,359,o),
(200,458,o),
(330,458,cs),
(376,458,o),
(415,440,o),
(444,415,c),
(487,490,l),
(444,526,o),
(383,547,o),
(320,547,cs),
(118,547,o),
(52,385,o),
(52,267,cs),
(52,150,o),
(118,-12,o),
(320,-12,cs)
);
}
);
width = 538;
}
);
metricLeft = o;
unicode = 99;
userData = {
KernOnName = c;
com.schriftgestaltung.Glyphs.ColorIndex = 3;
com.schriftgestaltung.Glyphs.layer.leftMetricsKey = "==o";
com.schriftgestaltung.Glyphs.leftMetricsKey = o;
};
},
{
color = 4;
glyphname = d;
kernLeft = KO_d;
kernRight = KO_d;
lastChange = "2026-03-20 12:00:31 +0000";
layers = (
{
anchors = (
{
name = bottom;
pos = (350,0);
},
{
name = center;
pos = (529,641);
},
{
name = top;
pos = (340,546);
},
{
name = topright;
pos = (719,750);
}
);
background = {
shapes = (
{
pos = (720,0);
ref = _part.bowl;
scale = (-1,1);
},
{
pos = (720,0);
ref = _part.ascender;
scale = (-1,1);
}
);
};
layerId = "0EDB233F-674C-46BF-8D38-84A6CD2C2EDF";
shapes = (
{
closed = 1;
nodes = (
(321,-12,o),
(335,-9,o),
(352,-5,c),
(418,46,ls),
(432,57,o),
(444,52,o),
(444,38,cs),
(444,0,l),
(640,0,l),
(640,750,l),
(444,750,l),
(444,501,ls),
(444,490,o),
(435,490,o),
(428,498,cs),
(394,539,o),
(352,558,o),
(299,558,cs),
(132,558,o),
(40,426,o),
(40,273,cs),
(40,117,o),
(134,-12,o),
(302,-12,cs)
);
},
{
closed = 1;
nodes = (
(271,145,o),
(237,209,o),
(237,273,cs),
(237,338,o),
(271,401,o),
(352,401,cs),
(414,401,o),
(444,361,o),
(444,309,cs),
(444,233,ls),
(444,185,o),
(409,145,o),
(351,145,cs)
);
}
);
width = 706;
},
{
anchors = (
{
name = bottom;
pos = (321,0);
},
{
name = center;
pos = (531,633);
},
{
name = top;
pos = (305,524);
},
{
name = topright;
pos = (667,750);
}
);
layerId = "9C56164D-AE66-4588-951C-3236F4A2688E";
shapes = (
{
closed = 1;
nodes = (
(379,-12,o),
(418,5,o),
(452,29,c),
(501,83,ls),
(506,88,o),
(513,86,o),
(513,78,cs),
(513,0,l),
(548,0,l),
(548,750,l),
(513,750,l),
(514,428,ls),
(514,422,o),
(506,421,o),
(504,426,cs),
(479,479,o),
(413,536,o),
(317,536,cs),
(167,536,o),
(63,424,o),
(63,262,cs),
(63,101,o),
(168,-12,o),
(317,-12,cs)
);
},
{
closed = 1;
nodes = (
(189,19,o),
(98,113,o),
(98,262,cs),
(98,411,o),
(189,505,o),
(319,505,cs),
(439,505,o),
(513,421,o),
(513,327,cs),
(513,198,ls),
(513,103,o),
(437,19,o),
(319,19,cs)
);
}
);
width = 639;
},
{
anchors = (
{
name = bottom;
pos = (319,0);
},
{
name = center;
pos = (514,636);
},
{
name = top;
pos = (306,535);
},
{
name = topright;
pos = (671,750);
}
);
layerId = "0F6921E6-B6DE-4419-A3CD-177DEB844CC2";
shapes = (
{
closed = 1;
nodes = (
(331,-12,o),
(349,-7,o),
(372,1,c),
(433,49,ls),
(447,59,o),
(458,55,o),
(458,41,cs),
(458,0,l),
(560,0,l),
(560,750,l),
(458,750,l),
(458,482,ls),
(458,473,o),
(449,472,o),
(443,478,cs),
(407,521,o),
(363,547,o),
(298,547,cs),
(115,547,o),
(52,385,o),
(52,267,cs),
(52,150,o),
(123,-12,o),
(300,-12,cs)
);
},
{
closed = 1;
nodes = (
(204,73,o),
(156,175,o),
(156,267,cs),
(156,360,o),
(204,462,o),
(315,462,cs),
(403,462,o),
(458,409,o),
(458,329,cs),
(458,216,ls),
(458,135,o),
(395,73,o),
(315,73,cs)
);
}
);
width = 639;
}
);
metricLeft = o;
unicode = 100;
userData = {
KernOnName = d;
com.schriftgestaltung.Glyphs.ColorIndex = 3;
com.schriftgestaltung.Glyphs.layer.leftMetricsKey = "==o";
com.schriftgestaltung.Glyphs.layer.rightMetricsKey = "==i";
com.schriftgestaltung.Glyphs.rightMetricsKey = l;
};
},
{
color = 4;
glyphname = dcroat;
kernLeft = KO_d;
kernRight = KO_d;
lastChange = "2026-03-20 12:00:31 +0000";
layers = (
{
background = {
shapes = (
{
pos = (378,0);
ref = bstroke;
}
);
};
layerId = "0EDB233F-674C-46BF-8D38-84A6CD2C2EDF";
shapes = (
{
closed = 1;
nodes = (
(321,-12,o),
(335,-9,o),
(352,-5,c),
(418,46,ls),
(432,57,o),
(444,52,o),
(444,38,cs),
(444,0,l),
(640,0,l),
(640,597,l),
(716,597,l),
(716,706,l),
(640,706,l),
(640,750,l),
(444,750,l),
(444,706,l),
(343,706,l),
(343,597,l),
(444,597,l),
(444,501,ls),
(444,490,o),
(435,490,o),
(428,498,cs),
(394,539,o),
(352,558,o),
(299,558,cs),
(132,558,o),
(40,426,o),
(40,273,cs),
(40,117,o),
(134,-12,o),
(302,-12,cs)
);
},
{
closed = 1;
nodes = (
(271,145,o),
(237,209,o),
(237,273,cs),
(237,338,o),
(271,401,o),
(352,401,cs),
(414,401,o),
(444,361,o),
(444,309,cs),
(444,233,ls),
(444,185,o),
(409,145,o),
(351,145,cs)
);
}
);
width = 706;
},
{
layerId = "9C56164D-AE66-4588-951C-3236F4A2688E";
shapes = (
{
closed = 1;
nodes = (
(379,-12,o),
(418,5,o),
(452,29,c),
(501,83,ls),
(505,87,o),
(513,86,o),
(513,78,cs),
(513,0,l),
(548,0,l),
(548,619,l),
(660,619,l),
(660,648,l),
(548,648,l),
(548,750,l),
(513,750,l),
(513,648,l),
(401,648,l),
(401,619,l),
(513,619,l),
(514,428,ls),
(514,422,o),
(506,421,o),
(504,426,cs),
(479,479,o),
(413,536,o),
(317,536,cs),
(167,536,o),
(63,424,o),
(63,262,cs),
(63,101,o),
(168,-12,o),
(317,-12,cs)
);
},
{
closed = 1;
nodes = (
(189,19,o),
(98,113,o),
(98,262,cs),
(98,411,o),
(189,505,o),
(319,505,cs),
(439,505,o),
(513,421,o),
(513,327,cs),
(513,198,ls),
(513,103,o),
(437,19,o),
(319,19,cs)
);
}
);
width = 639;
},
{
layerId = "0F6921E6-B6DE-4419-A3CD-177DEB844CC2";
shapes = (
{
closed = 1;
nodes = (
(331,-12,o),
(349,-7,o),
(372,1,c),
(433,49,ls),
(447,59,o),
(458,55,o),
(458,41,cs),
(458,0,l),
(560,0,l),
(560,593,l),
(666,593,l),
(666,678,l),
(560,678,l),
(560,750,l),
(458,750,l),
(458,678,l),
(360,678,l),
(360,593,l),
(458,593,l),
(458,482,ls),
(458,473,o),
(449,472,o),
(443,478,cs),
(407,521,o),
(363,547,o),
(298,547,cs),
(115,547,o),
(52,385,o),
(52,267,cs),
(52,150,o),
(123,-12,o),
(300,-12,cs)
);
},
{
closed = 1;
nodes = (
(204,73,o),
(156,175,o),
(156,267,cs),
(156,360,o),
(204,462,o),
(315,462,cs),
(403,462,o),
(458,409,o),
(458,329,cs),
(458,216,ls),
(458,135,o),
(395,73,o),
(315,73,cs)
);
}
);
width = 639;
}
);
metricLeft = d;
unicode = 273;
},
{
glyphname = dzcaron;
lastChange = "2026-03-20 12:00:31 +0000";
layers = (
{
anchors = (
{
name = bottom;
pos = (977,0);
},
{
name = center;
pos = (529,641);
},
{
name = top;
pos = (977,760);
},
{
name = topright;
pos = (719,750);
}
);
background = {
shapes = (
{
ref = d;
},
{
pos = (713,0);
ref = zcaron;
}
);
};
layerId = "0EDB233F-674C-46BF-8D38-84A6CD2C2EDF";
shapes = (
{
closed = 1;
nodes = (
(321,-12,o),
(335,-9,o),
(352,-5,c),
(418,46,ls),
(432,57,o),
(444,52,o),
(444,38,cs),
(444,0,l),
(640,0,l),
(640,750,l),
(444,750,l),
(444,501,ls),
(444,490,o),
(435,490,o),
(428,498,cs),
(394,539,o),
(352,558,o),
(299,558,cs),
(132,558,o),
(40,426,o),
(40,273,cs),
(40,117,o),
(134,-12,o),
(302,-12,cs)
);
},
{
closed = 1;
nodes = (
(271,145,o),
(237,209,o),
(237,273,cs),
(237,338,o),
(271,401,o),
(352,401,cs),
(414,401,o),
(444,361,o),
(444,309,cs),
(444,233,ls),
(444,185,o),
(409,145,o),
(351,145,cs)
);
},
{
closed = 1;
nodes = (
(1207,0,l),
(1207,154,l),
(969,154,ls),
(957,154,o),
(953,163,o),
(965,171,cs),
(1004,198,l),
(1207,407,l),
(1207,546,l),
(747,546,l),
(747,391,l),
(983,391,ls),
(993,391,o),
(1000,383,o),
(987,374,cs),
(948,348,l),
(747,140,l),
(747,0,l)
);
},
{
closed = 1;
nodes = (
(1075,618,l),
(1164,760,l),
(1026,760,l),
(999,722,l),
(986,692,ls),
(983,684,o),
(971,684,o),
(968,692,cs),
(955,722,l),
(928,760,l),
(790,760,l),
(879,618,l)
);
}
);
width = 1239;
},
{
anchors = (
{
name = bottom;
pos = (869,0);
},
{
name = center;
pos = (531,633);
},
{
name = top;
pos = (869,687);
},
{
name = topright;
pos = (667,750);
}
);
layerId = "9C56164D-AE66-4588-951C-3236F4A2688E";
shapes = (
{
closed = 1;
nodes = (
(379,-12,o),
(418,5,o),
(452,29,c),
(501,83,ls),
(506,88,o),
(513,86,o),
(513,78,cs),
(513,0,l),
(548,0,l),
(548,750,l),
(513,750,l),
(514,428,ls),
(514,422,o),
(506,421,o),
(504,426,cs),
(479,479,o),
(413,536,o),
(317,536,cs),
(167,536,o),
(63,424,o),
(63,262,cs),
(63,101,o),
(168,-12,o),
(317,-12,cs)
);
},
{
closed = 1;
nodes = (
(189,19,o),
(98,113,o),
(98,262,cs),
(98,411,o),
(189,505,o),
(319,505,cs),
(439,505,o),
(513,421,o),
(513,327,cs),
(513,198,ls),
(513,103,o),
(437,19,o),
(319,19,cs)
);
},
{
closed = 1;
nodes = (
(1056,0,l),
(1056,31,l),
(739,31,ls),
(730,31,o),
(725,34,o),
(732,42,cs),
(770,87,l),
(1056,513,l),
(1056,524,l),
(681,524,l),
(681,493,l),
(999,493,ls),
(1007,493,o),
(1011,487,o),
(1005,480,cs),
(968,437,l),
(681,10,l),
(681,0,l)
);
},
{
closed = 1;
nodes = (
(885,618,l),
(977,760,l),
(947,760,l),
(887,672,l),
(874,644,ls),
(871,638,o),
(863,638,o),
(860,644,cs),
(847,672,l),
(788,760,l),
(757,760,l),
(849,618,l)
);
}
);
width = 1106;
},
{
anchors = (
{
name = bottom;
pos = (892,0);
},
{
name = center;
pos = (514,636);
},
{
name = top;
pos = (891,738);
},
{
name = topright;
pos = (671,750);
}
);
layerId = "0F6921E6-B6DE-4419-A3CD-177DEB844CC2";
shapes = (
{
closed = 1;
nodes = (
(331,-12,o),
(349,-7,o),
(372,1,c),
(433,49,ls),
(447,59,o),
(458,55,o),
(458,41,cs),
(458,0,l),
(560,0,l),
(560,750,l),
(458,750,l),
(458,482,ls),
(458,473,o),
(449,472,o),
(443,478,cs),
(407,521,o),
(363,547,o),
(298,547,cs),
(115,547,o),
(52,385,o),
(52,267,cs),
(52,150,o),
(123,-12,o),
(300,-12,cs)
);
},
{
closed = 1;
nodes = (
(204,73,o),
(156,175,o),
(156,267,cs),
(156,360,o),
(204,462,o),
(315,462,cs),
(403,462,o),
(458,409,o),
(458,329,cs),
(458,216,ls),
(458,135,o),
(395,73,o),
(315,73,cs)
);
},
{
closed = 1;
nodes = (
(1096,0,l),
(1096,85,l),
(815,85,ls),
(810,85,o),
(797,89,o),
(811,101,cs),
(850,136,l),
(1096,471,l),
(1096,535,l),
(686,535,l),
(686,450,l),
(967,450,ls),
(975,450,o),
(983,444,o),
(971,433,cs),
(934,399,l),
(686,64,l),
(686,0,l)
);
},
{
closed = 1;
nodes = (
(940,618,l),
(1033,760,l),
(950,760,l),
(909,700,l),
(897,671,ls),
(893,663,o),
(887,663,o),
(883,671,cs),
(872,700,l),
(831,760,l),
(748,760,l),
(841,618,l)
);
}
);
width = 1144;
}
);
unicode = 454;
},
{
glyphname = eth;
lastChange = "2026-03-20 12:00:31 +0000";
layers = (
{
layerId = "0EDB233F-674C-46BF-8D38-84A6CD2C2EDF";
shapes = (
{
closed = 1;
nodes = (
(558,-12,o),
(660,122,o),
(660,273,cs),
(660,361,o),
(635,427,o),
(569,518,cs),
(402,750,l),
(179,750,l),
(377,530,ls),
(386,520,o),
(375,506,o),
(361,511,cs),
(313,529,l),
(308,530,o),
(302,531,o),
(293,531,cs),
(124,531,o),
(40,412,o),
(40,273,cs),
(40,122,o),
(142,-12,o),
(350,-12,cs)
);
},
{
closed = 1;
nodes = (
(273,150,o),
(237,212,o),
(237,273,cs),
(237,335,o),
(273,396,o),
(350,396,cs),
(428,396,o),
(463,335,o),
(463,273,cs),
(463,212,o),
(428,150,o),
(350,150,cs)
);
},
{
closed = 1;
nodes = (
(583,654,l),
(511,750,l),
(126,670,l),
(209,573,l)
);
}
);
width = 700;
},
{
layerId = "9C56164D-AE66-4588-951C-3236F4A2688E";
shapes = (
{
closed = 1;
nodes = (
(462,-12,o),
(564,101,o),
(564,262,cs),
(564,342,o),
(544,408,o),
(488,472,cs),
(240,750,l),
(200,750,l),
(410,520,ls),
(416,513,o),
(408,508,o),
(402,512,cs),
(374,527,l),
(356,532,o),
(334,535,o),
(312,535,cs),
(164,535,o),
(63,424,o),
(63,262,cs),
(63,101,o),
(166,-12,o),
(314,-12,cs)
);
},
{
closed = 1;
nodes = (
(186,19,o),
(98,115,o),
(98,262,cs),
(98,410,o),
(186,505,o),
(314,505,cs),
(441,505,o),
(529,410,o),
(529,262,cs),
(529,115,o),
(441,19,o),
(314,19,cs)
);
},
{
closed = 1;
nodes = (
(438,683,l),
(422,705,l),
(175,615,l),
(190,594,l)
);
}
);
width = 627;
},
{
layerId = "0F6921E6-B6DE-4419-A3CD-177DEB844CC2";
shapes = (
{
closed = 1;
nodes = (
(516,-12,o),
(580,150,o),
(580,267,cs),
(580,346,o),
(559,418,o),
(504,489,cs),
(307,750,l),
(195,750,l),
(368,540,ls),
(376,530,o),
(365,523,o),
(354,528,cs),
(331,539,l),
(324,540,o),
(315,540,o),
(307,540,cs),
(108,540,o),
(52,385,o),
(52,267,cs),
(52,150,o),
(118,-12,o),
(317,-12,cs)
);
},
{
closed = 1;
nodes = (
(197,73,o),
(156,177,o),
(156,267,cs),
(156,358,o),
(197,462,o),
(317,462,cs),
(436,462,o),
(477,358,o),
(477,267,cs),
(477,177,o),
(436,73,o),
(317,73,cs)
);
},
{
closed = 1;
nodes = (
(465,692,l),
(423,746,l),
(169,635,l),
(211,578,l)
);
}
);
width = 632;
}
);
metricLeft = o;
metricRight = o;
unicode = 240;
userData = {
com.schriftgestaltung.Glyphs.leftMetricsKey = six;
com.schriftgestaltung.Glyphs.rightMetricsKey = six;
};
},
{
glyphname = e;
kernLeft = KO_e;
kernRight = KO_e;
lastChange = "2026-03-20 12:00:31 +0000";
layers = (
{
anchors = (
{
name = "abkhasian-hook";
pos = (144,216);
},
{
name = bottom;
pos = (329,0);
},
{
name = ogonek;
pos = (568,33);
},
{
name = top;
pos = (338,546);
}
);
background = {
shapes = (
{
ref = o;
}
);
};
layerId = "0EDB233F-674C-46BF-8D38-84A6CD2C2EDF";
shapes = (
{
closed = 1;
nodes = (
(423,-11,o),
(505,4,o),
(568,33,c),
(549,167,l),
(490,146,o),
(433,136,o),
(379,136,cs),
(272,136,o),
(218,183,o),
(218,269,cs),
(218,343,o),
(244,408,o),
(336,408,cs),
(397,408,o),
(425,379,o),
(430,333,c),
(142,333,l),
(144,216,l),
(585,216,l),
(602,306,l),
(601,457,o),
(506,558,o),
(336,558,cs),
(134,558,o),
(40,422,o),
(40,269,cs),
(40,115,o),
(134,-11,o),
(358,-11,cs)
);
}
);
width = 637;
},
{
anchors = (
{
name = "abkhasian-hook";
pos = (83,252);
},
{
name = bottom;
pos = (300,0);
},
{
name = ogonek;
pos = (483,50);
},
{
name = top;
pos = (303,525);
}
);
layerId = "9C56164D-AE66-4588-951C-3236F4A2688E";
shapes = (
{
closed = 1;
nodes = (
(368,-12,o),
(430,4,o),
(483,50,c),
(472,77,l),
(419,32,o),
(370,19,o),
(306,19,cs),
(177,19,o),
(98,100,o),
(98,254,cs),
(98,411,o),
(173,505,o),
(299,505,cs),
(459,505,o),
(486,373,o),
(486,282,c),
(83,282,l),
(83,252,l),
(509,252,l),
(518,278,l),
(515,399,o),
(484,536,o),
(299,536,cs),
(149,536,o),
(63,422,o),
(63,254,cs),
(63,85,o),
(154,-12,o),
(305,-12,cs)
);
}
);
width = 577;
},
{
anchors = (
{
name = "abkhasian-hook";
pos = (110,232);
},
{
name = bottom;
pos = (306,0);
},
{
name = ogonek;
pos = (511,55);
},
{
name = top;
pos = (310,546);
}
);
layerId = "0F6921E6-B6DE-4419-A3CD-177DEB844CC2";
shapes = (
{
closed = 1;
nodes = (
(393,-12,o),
(459,9,o),
(511,55,c),
(493,131,l),
(442,90,o),
(380,73,o),
(330,73,cs),
(214,73,o),
(156,132,o),
(156,259,cs),
(156,388,o),
(210,463,o),
(310,463,cs),
(426,463,o),
(449,381,o),
(450,312,c),
(109,312,l),
(110,232,l),
(536,232,l),
(546,282,l),
(546,414,o),
(500,547,o),
(310,547,cs),
(107,547,o),
(52,380,o),
(52,259,cs),
(52,106,o),
(119,-12,o),
(326,-12,cs)
);
}
);
width = 593;
}
);
metricLeft = o;
unicode = 101;
userData = {
com.schriftgestaltung.Glyphs.ColorIndex = 3;
com.schriftgestaltung.Glyphs.layer.leftMetricsKey = "==o";
com.schriftgestaltung.Glyphs.leftMetricsKey = o;
};
},
{
glyphname = ecircumflexdotbelow;
kernLeft = "KO_io-cy";
kernRight = KO_e;
lastChange = "2026-03-20 12:00:31 +0000";
layers = (
{
anchors = (
{
name = "abkhasian-hook";
pos = (144,216);
},
{
name = bottom;
pos = (329,-204);
},
{
name = ogonek;
pos = (568,33);
},
{
name = top;
pos = (338,766);
}
);
layerId = "0EDB233F-674C-46BF-8D38-84A6CD2C2EDF";
shapes = (
{
closed = 1;
nodes = (
(437,-204,l),
(437,-72,l),
(220,-72,l),
(220,-204,l)
);
},
{
closed = 1;
nodes = (
(288,618,l),
(315,656,l),
(328,686,ls),
(331,694,o),
(343,694,o),
(346,686,cs),
(359,656,l),
(386,618,l),
(524,618,l),
(435,760,l),
(239,760,l),
(150,618,l)
);
},
{
ref = e;
}
);
width = 637;
},
{
anchors = (
{
name = "abkhasian-hook";
pos = (83,252);
},
{
name = bottom;
pos = (300,-226);
},
{
name = ogonek;
pos = (483,50);
},
{
name = top;
pos = (303,716);
}
);
layerId = "9C56164D-AE66-4588-951C-3236F4A2688E";
shapes = (
{
closed = 1;
nodes = (
(317,-226,l),
(317,-108,l),
(283,-108,l),
(283,-226,l)
);
},
{
closed = 1;
nodes = (
(223,620,l),
(283,708,l),
(296,735,ls),
(299,741,o),
(307,741,o),
(310,735,cs),
(323,708,l),
(383,620,l),
(413,620,l),
(321,762,l),
(285,762,l),
(193,620,l)
);
},
{
ref = e;
}
);
width = 577;
},
{
anchors = (
{
name = "abkhasian-hook";
pos = (110,232);
},
{
name = bottom;
pos = (306,-215);
},
{
name = ogonek;
pos = (511,55);
},
{
name = top;
pos = (310,761);
}
);
layerId = "0F6921E6-B6DE-4419-A3CD-177DEB844CC2";
shapes = (
{
closed = 1;
nodes = (
(357,-215,l),
(357,-97,l),
(256,-97,l),
(256,-215,l)
);
},
{
closed = 1;
nodes = (
(250,629,l),
(291,689,l),
(302,719,ls),
(306,726,o),
(312,727,o),
(316,719,cs),
(328,689,l),
(369,629,l),
(452,629,l),
(359,771,l),
(260,771,l),
(167,629,l)
);
},
{
ref = e;
}
);
width = 593;
}
);
unicode = 7879;
},
{
glyphname = ezh;
lastChange = "2026-03-20 12:00:31 +0000";
layers = (
{
anchors = (
{
name = bottom;
pos = (290,0);
},
{
name = top;
pos = (290,546);
}
);
background = {
shapes = (
{
ref = "ze-cy.loclBGR";
},
{
pos = (-94,0);
ref = g;
}
);
};
layerId = "0EDB233F-674C-46BF-8D38-84A6CD2C2EDF";
shapes = (
{
closed = 1;
nodes = (
(395,-221,o),
(549,-136,o),
(549,37,cs),
(549,172,o),
(446,265,o),
(281,258,c),
(281,177,l),
(515,418,l),
(515,546,l),
(40,546,l),
(40,389,l),
(266,389,ls),
(277,389,o),
(287,376,o),
(273,367,cs),
(248,348,l),
(142,226,l),
(142,108,l),
(230,108,ls),
(340,108,o),
(370,68,o),
(370,20,cs),
(370,-37,o),
(323,-70,o),
(236,-70,cs),
(188,-70,o),
(119,-52,o),
(70,-19,c),
(23,-165,l),
(94,-205,o),
(170,-221,o),
(256,-221,cs)
);
}
);
width = 586;
},
{
anchors = (
{
name = bottom;
pos = (254,0);
},
{
name = top;
pos = (254,524);
}
);
layerId = "9C56164D-AE66-4588-951C-3236F4A2688E";
shapes = (
{
closed = 1;
nodes = (
(351,-211,o),
(468,-140,o),
(468,-3,cs),
(468,130,o),
(360,198,o),
(178,192,c),
(181,179,l),
(462,509,l),
(462,524,l),
(50,524,l),
(50,493,l),
(399,493,ls),
(410,493,o),
(410,486,o),
(404,480,cs),
(365,445,l),
(140,177,l),
(140,160,l),
(204,160,ls),
(351,160,o),
(433,103,o),
(433,-3,cs),
(433,-113,o),
(339,-180,o),
(232,-180,cs),
(157,-180,o),
(94,-158,o),
(49,-120,c),
(36,-150,l),
(97,-194,o),
(149,-211,o),
(233,-211,cs)
);
}
);
width = 514;
},
{
anchors = (
{
name = bottom;
pos = (273,0);
},
{
name = top;
pos = (273,535);
}
);
layerId = "0F6921E6-B6DE-4419-A3CD-177DEB844CC2";
shapes = (
{
closed = 1;
nodes = (
(358,-218,o),
(493,-152,o),
(493,12,cs),
(493,156,o),
(389,227,o),
(216,229,c),
(238,194,l),
(469,472,l),
(469,535,l),
(45,535,l),
(45,445,l),
(323,445,ls),
(333,445,o),
(338,438,o),
(330,431,cs),
(294,397,l),
(140,197,l),
(140,137,l),
(221,137,ls),
(337,137,o),
(390,90,o),
(390,10,cs),
(390,-70,o),
(332,-129,o),
(237,-129,cs),
(169,-129,o),
(107,-102,o),
(57,-60,c),
(22,-143,l),
(86,-195,o),
(153,-218,o),
(242,-218,cs)
);
}
);
width = 517;
}
);
unicode = 658;
},
{
glyphname = f;
kernLeft = KO_f;
kernRight = KO_f;
lastChange = "2026-03-20 12:00:31 +0000";
layers = (
{
anchors = (
{
name = bottom;
pos = (240,0);
},
{
name = top;
pos = (250,546);
}
);
layerId = "0EDB233F-674C-46BF-8D38-84A6CD2C2EDF";
shapes = (
{
closed = 1;
nodes = (
(324,0,l),
(324,386,l),
(450,386,l),
(450,546,l),
(324,546,l),
(324,559,ls),
(324,597,o),
(350,614,o),
(397,614,cs),
(428,614,o),
(448,611,o),
(470,606,c),
(470,750,l),
(441,758,o),
(409,762,o),
(359,762,cs),
(237,762,o),
(126,707,o),
(126,574,cs),
(126,546,l),
(30,546,l),
(30,386,l),
(126,386,l),
(126,0,l)
);
}
);
width = 480;
},
{
anchors = (
{
name = bottom;
pos = (160,0);
},
{
name = top;
pos = (176,524);
}
);
layerId = "9C56164D-AE66-4588-951C-3236F4A2688E";
shapes = (
{
closed = 1;
nodes = (
(165,0,l),
(165,493,l),
(311,493,l),
(311,524,l),
(165,524,l),
(165,621,ls),
(165,691,o),
(209,732,o),
(262,732,cs),
(292,732,o),
(310,728,o),
(331,720,c),
(331,750,l),
(310,758,o),
(288,762,o),
(259,762,cs),
(186,759,o),
(130,706,o),
(130,621,cs),
(130,524,l),
(21,524,l),
(21,493,l),
(130,493,l),
(130,0,l)
);
}
);
width = 332;
},
{
anchors = (
{
name = bottom;
pos = (192,0);
},
{
name = top;
pos = (192,535);
}
);
layerId = "0F6921E6-B6DE-4419-A3CD-177DEB844CC2";
shapes = (
{
closed = 1;
nodes = (
(225,0,l),
(225,448,l),
(338,448,l),
(338,535,l),
(225,535,l),
(225,599,ls),
(225,658,o),
(268,680,o),
(302,680,cs),
(323,680,o),
(343,676,o),
(358,670,c),
(358,750,l),
(334,759,o),
(310,763,o),
(281,763,cs),
(209,763,o),
(125,714,o),
(125,598,cs),
(125,535,l),
(25,535,l),
(25,448,l),
(125,448,l),
(125,0,l)
);
}
);
width = 363;
}
);
metricLeft = "=t";
unicode = 102;
userData = {
KernOnName = f;
com.schriftgestaltung.Glyphs.ColorIndex = 3;
};
},
{
glyphname = gstroke;
lastChange = "2026-03-20 12:00:31 +0000";
layers = (
{
anchors = (
{
name = ascender;
pos = (647,468);
},
{
name = bottom;
pos = (341,-213);
},
{
name = descender;
pos = (647,-61);
},
{
name = top;
pos = (368,546);
}
);
background = {
shapes = (
{
ref = g;
}
);
};
layerId = "0EDB233F-674C-46BF-8D38-84A6CD2C2EDF";
shapes = (
{
closed = 1;
nodes = (
(524,-233,o),
(647,-174,o),
(647,-12,cs),
(647,546,l),
(451,546,l),
(451,500,ls),
(451,490,o),
(442,491,o),
(435,498,cs),
(397,539,o),
(359,558,o),
(306,558,cs),
(139,558,o),
(40,447,o),
(40,312,cs),
(40,173,o),
(141,68,o),
(309,68,cs),
(327,68,o),
(344,69,o),
(359,70,c),
(425,114,ls),
(440,124,o),
(451,118,o),
(451,106,cs),
(451,-12,ls),
(451,-69,o),
(392,-87,o),
(323,-87,cs),
(253,-87,o),
(187,-73,o),
(116,-26,c),
(116,-179,l),
(170,-216,o),
(243,-233,o),
(332,-233,cs)
);
},
{
closed = 1;
nodes = (
(696,-48,l),
(696,47,l),
(320,47,l),
(320,-48,l)
);
},
{
closed = 1;
nodes = (
(277,229,o),
(237,269,o),
(237,312,cs),
(237,356,o),
(277,394,o),
(356,394,cs),
(420,394,o),
(451,368,o),
(451,335,cs),
(451,284,ls),
(451,254,o),
(415,229,o),
(355,229,cs)
);
}
);
width = 706;
},
{
anchors = (
{
name = ascender;
pos = (548,446);
},
{
name = bottom;
pos = (304,-212);
},
{
name = descender;
pos = (548,-1);
},
{
name = top;
pos = (338,524);
}
);
layerId = "9C56164D-AE66-4588-951C-3236F4A2688E";
shapes = (
{
closed = 1;
nodes = (
(424,-211,o),
(548,-167,o),
(548,0,cs),
(548,526,l),
(513,526,l),
(513,447,ls),
(513,440,o),
(507,437,o),
(502,446,cs),
(478,489,o),
(413,536,o),
(317,536,cs),
(167,536,o),
(63,439,o),
(63,303,cs),
(63,167,o),
(168,70,o),
(317,70,cs),
(378,70,o),
(419,84,o),
(452,103,c),
(501,149,ls),
(508,155,o),
(513,152,o),
(513,145,cs),
(513,0,ls),
(513,-145,o),
(411,-180,o),
(321,-180,cs),
(244,-180,o),
(188,-165,o),
(141,-138,c),
(141,-168,l),
(188,-195,o),
(247,-211,o),
(321,-211,cs)
);
},
{
closed = 1;
nodes = (
(613,-21,l),
(613,8,l),
(347,8,l),
(347,-21,l)
);
},
{
closed = 1;
nodes = (
(189,100,o),
(98,179,o),
(98,303,cs),
(98,426,o),
(189,506,o),
(319,506,cs),
(439,506,o),
(513,436,o),
(513,358,cs),
(513,250,ls),
(513,170,o),
(437,100,o),
(319,100,cs)
);
}
);
width = 642;
},
{
anchors = (
{
name = ascender;
pos = (560,456);
},
{
name = bottom;
pos = (320,-213);
},
{
name = descender;
pos = (560,-9);
},
{
name = top;
pos = (343,535);
}
);
layerId = "0F6921E6-B6DE-4419-A3CD-177DEB844CC2";
shapes = (
{
closed = 1;
nodes = (
(412,-215,o),
(560,-173,o),
(560,1,cs),
(560,535,l),
(458,535,l),
(458,490,ls),
(458,482,o),
(450,479,o),
(443,487,cs),
(405,525,o),
(361,546,o),
(298,546,cs),
(115,546,o),
(52,413,o),
(52,308,cs),
(52,201,o),
(123,69,o),
(300,69,cs),
(330,69,o),
(349,73,o),
(372,79,c),
(439,124,ls),
(454,134,o),
(458,125,o),
(458,114,cs),
(458,1,ls),
(458,-108,o),
(378,-129,o),
(311,-129,cs),
(220,-129,o),
(169,-117,o),
(104,-78,c),
(104,-170,l),
(171,-203,o),
(225,-215,o),
(312,-215,cs)
);
},
{
closed = 1;
nodes = (
(634,-47,l),
(634,28,l),
(292,28,l),
(292,-47,l)
);
},
{
closed = 1;
nodes = (
(204,154,o),
(156,233,o),
(156,308,cs),
(156,382,o),
(204,461,o),
(315,461,cs),
(403,461,o),
(458,418,o),
(458,355,cs),
(458,266,ls),
(458,203,o),
(395,154,o),
(315,154,cs)
);
}
);
width = 655;
}
);
unicode = 485;
},
{
glyphname = hbar;
kernRight = KO_hbar;
lastChange = "2026-03-20 12:53:25 +0000";
layers = (
{
background = {
shapes = (
{
closed = 1;
nodes = (
(1588,571,l),
(1588,705,l),
(1215,705,l),
(1215,571,l)
);
},
{
closed = 1;
nodes = (
(1490,0,l),
(1490,320,ls),
(1490,366,o),
(1529,389,o),
(1566,389,cs),
(1606,389,o),
(1647,367,o),
(1647,320,cs),
(1647,0,l),
(1843,0,l),
(1843,361,ls),
(1843,496,o),
(1741,558,o),
(1644,558,cs),
(1563,558,o),
(1539,529,o),
(1506,494,cs),
(1500,488,o),
(1490,492,o),
(1490,500,cs),
(1490,546,l),
(1294,546,l),
(1294,0,l)
);
},
{
closed = 1;
nodes = (
(1490,546,l),
(1490,750,l),
(1294,750,l),
(1294,546,l)
);
}
);
};
layerId = "0EDB233F-674C-46BF-8D38-84A6CD2C2EDF";
shapes = (
{
ref = h;
},
{
pos = (-48,389);
ref = _part.stroke;
scale = (1,0.9);
}
);
width = 676;
},
{
layerId = "9C56164D-AE66-4588-951C-3236F4A2688E";
shapes = (
{
ref = h;
},
{
piece = {
Length = 0;
};
pos = (-70,380);
ref = _part.stroke;
}
);
width = 576;
},
{
layerId = "0F6921E6-B6DE-4419-A3CD-177DEB844CC2";
shapes = (
{
alignment = -1;
ref = h;
},
{
pos = (-69,372);
ref = _part.stroke;
}
);
width = 598;
}
);
metricLeft = t;
metricRight = h;
unicode = 295;
},
{
glyphname = idotless;
kernLeft = KO_i;
kernRight = "KO_en-cy";
lastChange = "2026-03-20 12:00:31 +0000";
layers = (
{
anchors = (
{
name = bottom;
pos = (164,0);
},
{
name = center;
pos = (164,273);
},
{
name = ogonek;
pos = (262,0);
},
{
name = top;
pos = (164,546);
}
);
layerId = "0EDB233F-674C-46BF-8D38-84A6CD2C2EDF";
shapes = (
{
closed = 1;
nodes = (
(262,0,l),
(262,546,l),
(66,546,l),
(66,0,l)
);
}
);
width = 328;
},
{
anchors = (
{
name = bottom;
pos = (108,0);
},
{
name = center;
pos = (108,262);
},
{
name = ogonek;
pos = (126,0);
},
{
name = top;
pos = (108,524);
}
);
layerId = "9C56164D-AE66-4588-951C-3236F4A2688E";
shapes = (
{
closed = 1;
nodes = (
(126,0,l),
(126,524,l),
(91,524,l),
(91,0,l)
);
}
);
width = 217;
},
{
anchors = (
{
name = bottom;
pos = (130,0);
},
{
name = center;
pos = (130,267);
},
{
name = ogonek;
pos = (181,0);
},
{
name = top;
pos = (130,535);
}
);
layerId = "0F6921E6-B6DE-4419-A3CD-177DEB844CC2";
shapes = (
{
closed = 1;
nodes = (
(181,0,l),
(181,535,l),
(79,535,l),
(79,0,l)
);
}
);
width = 260;
}
);
metricRight = "=|n";
unicode = 305;
userData = {
KernOnName = idotless;
};
},
{
color = 9;
glyphname = icaron.ss01;
lastChange = "2026-03-20 12:00:31 +0000";
layers = (
{
anchors = (
{
name = bottom;
pos = (164,0);
},
{
name = center;
pos = (164,273);
},
{
name = ogonek;
pos = (262,0);
},
{
name = top;
pos = (164,760);
}
);
layerId = "0EDB233F-674C-46BF-8D38-84A6CD2C2EDF";
shapes = (
{
closed = 1;
nodes = (
(262,0,l),
(262,546,l),
(66,546,l),
(66,0,l)
);
},
{
closed = 1;
nodes = (
(262,618,l),
(351,760,l),
(213,760,l),
(186,722,l),
(173,692,ls),
(170,684,o),
(158,684,o),
(155,692,cs),
(142,722,l),
(115,760,l),
(-23,760,l),
(66,618,l)
);
}
);
width = 328;
},
{
anchors = (
{
name = bottom;
pos = (108,0);
},
{
name = center;
pos = (108,262);
},
{
name = ogonek;
pos = (126,0);
},
{
name = top;
pos = (108,687);
}
);
layerId = "9C56164D-AE66-4588-951C-3236F4A2688E";
shapes = (
{
closed = 1;
nodes = (
(126,0,l),
(126,524,l),
(91,524,l),
(91,0,l)
);
},
{
closed = 1;
nodes = (
(125,618,l),
(217,760,l),
(186,760,l),
(126,672,l),
(114,644,ls),
(110,637,o),
(103,638,o),
(100,644,cs),
(87,672,l),
(28,760,l),
(-3,760,l),
(89,618,l)
);
}
);
width = 217;
},
{
anchors = (
{
name = bottom;
pos = (130,0);
},
{
name = center;
pos = (130,267);
},
{
name = ogonek;
pos = (181,0);
},
{
name = top;
pos = (130,738);
}
);
layerId = "0F6921E6-B6DE-4419-A3CD-177DEB844CC2";
shapes = (
{
closed = 1;
nodes = (
(181,0,l),
(181,535,l),
(79,535,l),
(79,0,l)
);
},
{
closed = 1;
nodes = (
(179,618,l),
(272,760,l),
(189,760,l),
(148,700,l),
(136,671,ls),
(132,663,o),
(126,663,o),
(122,671,cs),
(111,700,l),
(70,760,l),
(-13,760,l),
(80,618,l)
);
}
);
width = 260;
}
);
},
{
color = 2;
glyphname = idotbelow;
kernLeft = KO_i;
kernRight = KO_i;
lastChange = "2026-03-20 12:00:31 +0000";
layers = (
{
anchors = (
{
name = bottom;
pos = (164,-204);
},
{
name = center;
pos = (164,273);
},
{
name = ogonek;
pos = (262,0);
},
{
name = top;
pos = (164,753);
}
);
layerId = "0EDB233F-674C-46BF-8D38-84A6CD2C2EDF";
shapes = (
{
closed = 1;
nodes = (
(273,618,l),
(273,750,l),
(56,750,l),
(56,618,l)
);
},
{
closed = 1;
nodes = (
(272,-204,l),
(272,-72,l),
(55,-72,l),
(55,-204,l)
);
},
{
ref = idotless;
}
);
width = 328;
},
{
anchors = (
{
name = bottom;
pos = (108,-226);
},
{
name = center;
pos = (108,262);
},
{
name = ogonek;
pos = (126,0);
},
{
name = top;
pos = (108,709);
}
);
layerId = "9C56164D-AE66-4588-951C-3236F4A2688E";
shapes = (
{
closed = 1;
nodes = (
(126,632,l),
(126,750,l),
(91,750,l),
(91,632,l)
);
},
{
closed = 1;
nodes = (
(126,-226,l),
(126,-108,l),
(91,-108,l),
(91,-226,l)
);
},
{
ref = idotless;
}
);
width = 217;
},
{
anchors = (
{
name = bottom;
pos = (130,-215);
},
{
name = center;
pos = (130,267);
},
{
name = ogonek;
pos = (181,0);
},
{
name = top;
pos = (130,746);
}
);
layerId = "0F6921E6-B6DE-4419-A3CD-177DEB844CC2";
shapes = (
{
closed = 1;
nodes = (
(181,632,l),
(181,750,l),
(79,750,l),
(79,632,l)
);
},
{
closed = 1;
nodes = (
(181,-215,l),
(181,-97,l),
(79,-97,l),
(79,-215,l)
);
},
{
ref = idotless;
}
);
width = 260;
}
);
unicode = 7883;
},
{
color = 2;
glyphname = idotbelow.ss01;
kernLeft = KO_i.ss01;
lastChange = "2026-03-20 12:00:31 +0000";
layers = (
{
anchors = (
{
name = bottom;
pos = (164,-204);
},
{
name = center;
pos = (164,273);
},
{
name = ogonek;
pos = (262,0);
},
{
name = top;
pos = (164,753);
}
);
layerId = "0EDB233F-674C-46BF-8D38-84A6CD2C2EDF";
shapes = (
{
closed = 1;
nodes = (
(273,618,l),
(273,750,l),
(56,750,l),
(56,618,l)
);
},
{
closed = 1;
nodes = (
(272,-204,l),
(272,-72,l),
(55,-72,l),
(55,-204,l)
);
},
{
ref = idotless;
}
);
width = 328;
},
{
anchors = (
{
name = bottom;
pos = (108,-226);
},
{
name = center;
pos = (108,262);
},
{
name = ogonek;
pos = (126,0);
},
{
name = top;
pos = (108,709);
}
);
layerId = "9C56164D-AE66-4588-951C-3236F4A2688E";
shapes = (
{
closed = 1;
nodes = (
(126,632,l),
(126,750,l),
(91,750,l),
(91,632,l)
);
},
{
closed = 1;
nodes = (
(126,-226,l),
(126,-108,l),
(91,-108,l),
(91,-226,l)
);
},
{
ref = idotless;
}
);
width = 217;
},
{
anchors = (
{
name = bottom;
pos = (130,-215);
},
{
name = center;
pos = (130,267);
},
{
name = ogonek;
pos = (181,0);
},
{
name = top;
pos = (130,746);
}
);
layerId = "0F6921E6-B6DE-4419-A3CD-177DEB844CC2";
shapes = (
{
closed = 1;
nodes = (
(181,632,l),
(181,750,l),
(79,750,l),
(79,632,l)
);
},
{
closed = 1;
nodes = (
(181,-215,l),
(181,-97,l),
(79,-97,l),
(79,-215,l)
);
},
{
ref = idotless;
}
);
width = 260;
}
);
},
{
glyphname = ij;
kernLeft = KO_i;
lastChange = "2026-03-20 12:00:31 +0000";
layers = (
{
anchors = (
{
name = bottom;
pos = (507,-250);
},
{
name = center;
pos = (164,273);
},
{
name = ogonek;
pos = (262,0);
},
{
name = top;
pos = (496,753);
}
);
layerId = "0EDB233F-674C-46BF-8D38-84A6CD2C2EDF";
shapes = (
{
closed = 1;
nodes = (
(262,0,l),
(262,546,l),
(66,546,l),
(66,0,l)
);
},
{
closed = 1;
nodes = (
(273,618,l),
(273,750,l),
(56,750,l),
(56,618,l)
);
},
{
closed = 1;
nodes = (
(468,-222,o),
(594,-164,o),
(594,28,cs),
(594,546,l),
(398,546,l),
(398,28,ls),
(398,-16,o),
(373,-43,o),
(336,-49,c),
(379,-222,l)
);
},
{
closed = 1;
nodes = (
(605,618,l),
(605,750,l),
(388,750,l),
(388,618,l)
);
}
);
width = 660;
},
{
anchors = (
{
name = bottom;
pos = (320,-250);
},
{
name = center;
pos = (108,262);
},
{
name = ogonek;
pos = (126,0);
},
{
name = top;
pos = (327,709);
}
);
layerId = "9C56164D-AE66-4588-951C-3236F4A2688E";
shapes = (
{
closed = 1;
nodes = (
(126,0,l),
(126,524,l),
(91,524,l),
(91,0,l)
);
},
{
closed = 1;
nodes = (
(126,632,l),
(126,750,l),
(91,750,l),
(91,632,l)
);
},
{
closed = 1;
nodes = (
(312,-179,o),
(344,-117,o),
(344,2,cs),
(344,524,l),
(310,524,l),
(310,2,l),
(310,-101,o),
(286,-155,o),
(219,-188,c),
(233,-216,l)
);
},
{
closed = 1;
nodes = (
(344,632,l),
(344,750,l),
(310,750,l),
(310,632,l)
);
}
);
width = 436;
},
{
anchors = (
{
name = bottom;
pos = (403,-250);
},
{
name = center;
pos = (130,267);
},
{
name = ogonek;
pos = (181,0);
},
{
name = top;
pos = (405,746);
}
);
layerId = "0F6921E6-B6DE-4419-A3CD-177DEB844CC2";
shapes = (
{
closed = 1;
nodes = (
(181,0,l),
(181,535,l),
(79,535,l),
(79,0,l)
);
},
{
closed = 1;
nodes = (
(181,632,l),
(181,750,l),
(79,750,l),
(79,632,l)
);
},
{
closed = 1;
nodes = (
(381,-197,o),
(456,-131,o),
(456,8,cs),
(456,535,l),
(354,535,l),
(354,6,l),
(354,-73,o),
(319,-116,o),
(260,-134,c),
(289,-221,l)
);
},
{
closed = 1;
nodes = (
(456,632,l),
(456,750,l),
(354,750,l),
(354,632,l)
);
}
);
width = 535;
}
);
unicode = 307;
},
{
glyphname = jdotless;
lastChange = "2026-03-20 12:00:31 +0000";
layers = (
{
anchors = (
{
name = bottom;
pos = (175,-250);
},
{
name = top;
pos = (164,546);
}
);
background = {
shapes = (
{
ref = idotless;
}
);
};
layerId = "0EDB233F-674C-46BF-8D38-84A6CD2C2EDF";
shapes = (
{
closed = 1;
nodes = (
(136,-222,o),
(262,-164,o),
(262,28,cs),
(262,546,l),
(66,546,l),
(66,28,ls),
(66,-16,o),
(41,-43,o),
(4,-49,c),
(47,-222,l)
);
}
);
width = 328;
},
{
anchors = (
{
name = bottom;
pos = (103,-250);
},
{
name = top;
pos = (110,524);
}
);
layerId = "9C56164D-AE66-4588-951C-3236F4A2688E";
shapes = (
{
closed = 1;
nodes = (
(95,-179,o),
(127,-117,o),
(127,2,cs),
(127,524,l),
(93,524,l),
(93,2,l),
(93,-101,o),
(69,-155,o),
(2,-188,c),
(16,-216,l)
);
}
);
width = 219;
},
{
anchors = (
{
name = bottom;
pos = (141,-250);
},
{
name = top;
pos = (143,535);
}
);
layerId = "0F6921E6-B6DE-4419-A3CD-177DEB844CC2";
shapes = (
{
closed = 1;
nodes = (
(119,-197,o),
(194,-131,o),
(194,8,cs),
(194,535,l),
(92,535,l),
(92,6,l),
(92,-73,o),
(57,-116,o),
(-2,-134,c),
(27,-221,l)
);
}
);
width = 273;
}
);
metricRight = idotless;
unicode = 567;
},
{
glyphname = k;
kernLeft = KO_h;
kernRight = KO_k;
lastChange = "2026-03-20 12:00:31 +0000";
layers = (
{
anchors = (
{
name = bottom;
pos = (325,0);
},
{
name = center;
pos = (176,633);
},
{
name = top;
pos = (354,728);
}
);
layerId = "0EDB233F-674C-46BF-8D38-84A6CD2C2EDF";
shapes = (
{
closed = 1;
nodes = (
(262,0,l),
(262,222,l),
(311,222,l),
(413,0,l),
(622,0,l),
(471,315,l),
(599,546,l),
(392,546,l),
(304,382,l),
(262,382,l),
(262,750,l),
(66,750,l),
(66,0,l)
);
}
);
width = 644;
},
{
anchors = (
{
name = bottom;
pos = (247,0);
},
{
name = center;
pos = (111,611);
},
{
name = top;
pos = (254,706);
}
);
layerId = "9C56164D-AE66-4588-951C-3236F4A2688E";
shapes = (
{
closed = 1;
nodes = (
(127,0,l),
(127,280,l),
(234,280,l),
(441,0,l),
(482,0,l),
(261,299,l),
(453,524,l),
(411,524,l),
(231,312,l),
(127,312,l),
(127,750,l),
(91,750,l),
(91,0,l)
);
}
);
width = 507;
},
{
anchors = (
{
name = bottom;
pos = (276,0);
},
{
name = center;
pos = (131,630);
},
{
name = top;
pos = (287,717);
}
);
layerId = "0F6921E6-B6DE-4419-A3CD-177DEB844CC2";
shapes = (
{
closed = 1;
nodes = (
(181,0,l),
(181,252,l),
(258,252,l),
(412,0,l),
(525,0,l),
(334,313,l),
(504,535,l),
(389,535,l),
(241,340,l),
(181,340,l),
(181,750,l),
(79,750,l),
(79,0,l)
);
}
);
width = 550;
}
);
metricLeft = h;
unicode = 107;
userData = {
KernOnName = k;
com.schriftgestaltung.Glyphs.ColorIndex = 3;
com.schriftgestaltung.Glyphs.layer.leftMetricsKey = "==n";
com.schriftgestaltung.Glyphs.leftMetricsKey = n;
};
},
{
glyphname = kgreenlandic;
lastChange = "2026-03-20 12:00:31 +0000";
layers = (
{
background = {
shapes = (
{
ref = k;
}
);
};
layerId = "0EDB233F-674C-46BF-8D38-84A6CD2C2EDF";
shapes = (
{
closed = 1;
nodes = (
(262,0,l),
(262,222,l),
(311,222,l),
(413,0,l),
(622,0,l),
(471,316,l),
(599,546,l),
(392,546,l),
(304,382,l),
(262,382,l),
(262,546,l),
(66,546,l),
(66,0,l)
);
}
);
width = 644;
},
{
layerId = "9C56164D-AE66-4588-951C-3236F4A2688E";
shapes = (
{
closed = 1;
nodes = (
(126,0,l),
(126,280,l),
(234,280,l),
(440,0,l),
(482,0,l),
(260,299,l),
(453,524,l),
(411,524,l),
(231,312,l),
(126,312,l),
(126,524,l),
(91,524,l),
(91,0,l)
);
}
);
width = 507;
},
{
layerId = "0F6921E6-B6DE-4419-A3CD-177DEB844CC2";
shapes = (
{
closed = 1;
nodes = (
(180,0,l),
(180,252,l),
(257,252,l),
(411,0,l),
(524,0,l),
(333,313,l),
(503,535,l),
(388,535,l),
(240,340,l),
(180,340,l),
(180,535,l),
(79,535,l),
(79,0,l)
);
}
);
width = 549;
}
);
metricLeft = n;
metricRight = k;
unicode = 312;
},
{
glyphname = l;
kernLeft = KO_l;
kernRight = KO_l;
lastChange = "2026-03-20 12:00:31 +0000";
layers = (
{
anchors = (
{
name = bottom;
pos = (164,0);
},
{
name = center;
pos = (164,273);
},
{
name = top;
pos = (164,750);
},
{
name = topright;
pos = (341,750);
}
);
layerId = "0EDB233F-674C-46BF-8D38-84A6CD2C2EDF";
shapes = (
{
closed = 1;
nodes = (
(262,0,l),
(262,750,l),
(66,750,l),
(66,0,l)
);
}
);
width = 328;
},
{
anchors = (
{
name = bottom;
pos = (108,0);
},
{
name = center;
pos = (108,262);
},
{
name = top;
pos = (108,750);
},
{
name = topright;
pos = (229,750);
}
);
layerId = "9C56164D-AE66-4588-951C-3236F4A2688E";
shapes = (
{
closed = 1;
nodes = (
(126,0,l),
(126,750,l),
(91,750,l),
(91,0,l)
);
}
);
width = 217;
},
{
anchors = (
{
name = bottom;
pos = (129,0);
},
{
name = center;
pos = (129,267);
},
{
name = top;
pos = (129,750);
},
{
name = topright;
pos = (277,750);
}
);
layerId = "0F6921E6-B6DE-4419-A3CD-177DEB844CC2";
shapes = (
{
closed = 1;
nodes = (
(181,0,l),
(181,750,l),
(79,750,l),
(79,0,l)
);
}
);
width = 260;
}
);
metricLeft = h;
unicode = 108;
userData = {
KernOnName = l;
com.schriftgestaltung.Glyphs.ColorIndex = 3;
com.schriftgestaltung.Glyphs.layer.leftMetricsKey = "==h";
com.schriftgestaltung.Glyphs.leftMetricsKey = n;
com.typemytype.robofont.layerData = {
background = {
anchors = (
{
name = bottom;
x = 108;
y = 0;
},
{
name = top;
x = 108;
y = 500;
},
{
name = topright;
x = 204;
y = 500;
},
{
name = center;
x = 148;
y = 250;
}
);
components = (
);
contours = (
{
points = (
{
segmentType = line;
smooth = 0;
x = 95;
y = 750;
},
{
segmentType = line;
smooth = 0;
x = 95;
y = 61;
},
{
segmentType = line;
smooth = 0;
x = 148;
y = -11;
},
{
segmentType = line;
smooth = 0;
x = 215;
y = 31;
},
{
segmentType = line;
smooth = 0;
x = 175;
y = 90;
},
{
segmentType = line;
smooth = 0;
x = 175;
y = 750;
}
);
}
);
lib = {
};
name = l;
unicodes = (
);
width = 275;
};
};
};
},
{
glyphname = lj;
lastChange = "2026-03-20 12:00:31 +0000";
layers = (
{
anchors = (
{
name = bottom;
pos = (505,-250);
},
{
name = center;
pos = (164,273);
},
{
name = top;
pos = (494,753);
},
{
name = topright;
pos = (341,750);
}
);
layerId = "0EDB233F-674C-46BF-8D38-84A6CD2C2EDF";
shapes = (
{
closed = 1;
nodes = (
(262,0,l),
(262,750,l),
(66,750,l),
(66,0,l)
);
},
{
closed = 1;
nodes = (
(466,-222,o),
(592,-164,o),
(592,28,cs),
(592,546,l),
(396,546,l),
(396,28,ls),
(396,-16,o),
(371,-43,o),
(334,-49,c),
(377,-222,l)
);
},
{
closed = 1;
nodes = (
(603,618,l),
(603,750,l),
(386,750,l),
(386,618,l)
);
}
);
width = 658;
},
{
anchors = (
{
name = bottom;
pos = (320,-250);
},
{
name = center;
pos = (108,262);
},
{
name = top;
pos = (327,709);
},
{
name = topright;
pos = (229,750);
}
);
layerId = "9C56164D-AE66-4588-951C-3236F4A2688E";
shapes = (
{
closed = 1;
nodes = (
(126,0,l),
(126,750,l),
(91,750,l),
(91,0,l)
);
},
{
closed = 1;
nodes = (
(312,-179,o),
(344,-117,o),
(344,2,cs),
(344,524,l),
(310,524,l),
(310,2,l),
(310,-101,o),
(286,-155,o),
(219,-188,c),
(233,-216,l)
);
},
{
closed = 1;
nodes = (
(344,632,l),
(344,750,l),
(310,750,l),
(310,632,l)
);
}
);
width = 436;
},
{
anchors = (
{
name = bottom;
pos = (403,-250);
},
{
name = center;
pos = (129,267);
},
{
name = top;
pos = (405,746);
},
{
name = topright;
pos = (277,750);
}
);
layerId = "0F6921E6-B6DE-4419-A3CD-177DEB844CC2";
shapes = (
{
closed = 1;
nodes = (
(181,0,l),
(181,750,l),
(79,750,l),
(79,0,l)
);
},
{
closed = 1;
nodes = (
(381,-197,o),
(456,-131,o),
(456,8,cs),
(456,535,l),
(354,535,l),
(354,6,l),
(354,-73,o),
(319,-116,o),
(260,-134,c),
(289,-221,l)
);
},
{
closed = 1;
nodes = (
(456,632,l),
(456,750,l),
(354,750,l),
(354,632,l)
);
}
);
width = 535;
}
);
unicode = 457;
},
{
color = 9;
glyphname = lj.ss01;
lastChange = "2026-03-20 12:00:31 +0000";
layers = (
{
anchors = (
{
name = bottom;
pos = (505,-250);
},
{
name = center;
pos = (164,273);
},
{
name = top;
pos = (494,753);
},
{
name = topright;
pos = (341,750);
}
);
layerId = "0EDB233F-674C-46BF-8D38-84A6CD2C2EDF";
shapes = (
{
closed = 1;
nodes = (
(262,0,l),
(262,750,l),
(66,750,l),
(66,0,l)
);
},
{
closed = 1;
nodes = (
(466,-222,o),
(592,-164,o),
(592,28,cs),
(592,546,l),
(396,546,l),
(396,28,ls),
(396,-16,o),
(371,-43,o),
(334,-49,c),
(377,-222,l)
);
},
{
closed = 1;
nodes = (
(603,618,l),
(603,750,l),
(386,750,l),
(386,618,l)
);
}
);
width = 658;
},
{
anchors = (
{
name = bottom;
pos = (320,-250);
},
{
name = center;
pos = (108,262);
},
{
name = top;
pos = (327,709);
},
{
name = topright;
pos = (229,750);
}
);
layerId = "9C56164D-AE66-4588-951C-3236F4A2688E";
shapes = (
{
closed = 1;
nodes = (
(126,0,l),
(126,750,l),
(91,750,l),
(91,0,l)
);
},
{
closed = 1;
nodes = (
(312,-179,o),
(344,-117,o),
(344,2,cs),
(344,524,l),
(310,524,l),
(310,2,l),
(310,-101,o),
(286,-155,o),
(219,-188,c),
(233,-216,l)
);
},
{
closed = 1;
nodes = (
(344,632,l),
(344,750,l),
(310,750,l),
(310,632,l)
);
}
);
width = 436;
},
{
anchors = (
{
name = bottom;
pos = (403,-250);
},
{
name = center;
pos = (129,267);
},
{
name = top;
pos = (405,746);
},
{
name = topright;
pos = (277,750);
}
);
layerId = "0F6921E6-B6DE-4419-A3CD-177DEB844CC2";
shapes = (
{
closed = 1;
nodes = (
(181,0,l),
(181,750,l),
(79,750,l),
(79,0,l)
);
},
{
closed = 1;
nodes = (
(381,-197,o),
(456,-131,o),
(456,8,cs),
(456,535,l),
(354,535,l),
(354,6,l),
(354,-73,o),
(319,-116,o),
(260,-134,c),
(289,-221,l)
);
},
{
closed = 1;
nodes = (
(456,632,l),
(456,750,l),
(354,750,l),
(354,632,l)
);
}
);
width = 535;
}
);
},
{
glyphname = lslash;
lastChange = "2026-03-20 12:00:31 +0000";
layers = (
{
layerId = "0EDB233F-674C-46BF-8D38-84A6CD2C2EDF";
shapes = (
{
closed = 1;
nodes = (
(288,0,l),
(288,388,l),
(369,444,l),
(369,626,l),
(288,570,l),
(288,750,l),
(92,750,l),
(92,433,l),
(30,390,l),
(30,208,l),
(92,251,l),
(92,0,l)
);
}
);
width = 399;
},
{
layerId = "9C56164D-AE66-4588-951C-3236F4A2688E";
shapes = (
{
closed = 1;
nodes = (
(124,1,l),
(124,389,l),
(243,470,l),
(243,504,l),
(124,423,l),
(124,750,l),
(90,750,l),
(90,400,l),
(21,352,l),
(21,319,l),
(90,366,l),
(90,1,l)
);
}
);
width = 264;
},
{
layerId = "0F6921E6-B6DE-4419-A3CD-177DEB844CC2";
shapes = (
{
closed = 1;
nodes = (
(194,0,l),
(194,391,l),
(295,460,l),
(295,554,l),
(194,485,l),
(194,750,l),
(95,750,l),
(95,416,l),
(25,368,l),
(25,273,l),
(95,321,l),
(95,0,l)
);
}
);
width = 320;
}
);
metricLeft = t;
metricRight = "=|t";
unicode = 322;
},
{
glyphname = m;
kernLeft = KO_n;
kernRight = KO_n;
lastChange = "2026-03-20 12:00:31 +0000";
layers = (
{
anchors = (
{
name = bottom;
pos = (507,0);
},
{
name = top;
pos = (507,546);
},
{
name = topleft;
pos = (66,546);
}
);
background = {
shapes = (
{
pos = (-24,0);
ref = n;
}
);
};
layerId = "0EDB233F-674C-46BF-8D38-84A6CD2C2EDF";
shapes = (
{
closed = 1;
nodes = (
(262,0,l),
(262,320,ls),
(262,366,o),
(298,389,o),
(333,389,cs),
(370,389,o),
(409,367,o),
(409,320,cs),
(409,0,l),
(605,0,l),
(605,320,ls),
(605,366,o),
(641,389,o),
(676,389,cs),
(713,389,o),
(752,367,o),
(752,320,cs),
(752,0,l),
(948,0,l),
(948,361,ls),
(948,496,o),
(844,558,o),
(744,558,cs),
(666,558,o),
(618,534,o),
(580,494,cs),
(573,486,o),
(566,487,o),
(559,495,cs),
(521,538,o),
(465,558,o),
(411,558,cs),
(332,558,o),
(309,529,o),
(277,494,cs),
(271,488,o),
(262,493,o),
(262,500,cs),
(262,546,l),
(66,546,l),
(66,0,l)
);
}
);
width = 1009;
},
{
anchors = (
{
name = bottom;
pos = (461,0);
},
{
name = top;
pos = (461,524);
},
{
name = topleft;
pos = (91,524);
}
);
layerId = "9C56164D-AE66-4588-951C-3236F4A2688E";
shapes = (
{
closed = 1;
nodes = (
(126,0,l),
(126,331,ls),
(126,446,o),
(204,505,o),
(289,505,cs),
(375,505,o),
(444,449,o),
(444,340,cs),
(444,0,l),
(478,0,l),
(478,331,ls),
(478,446,o),
(557,505,o),
(642,505,cs),
(727,505,o),
(796,449,o),
(796,340,cs),
(796,0,l),
(831,0,l),
(831,341,ls),
(831,473,o),
(744,536,o),
(645,536,cs),
(572,536,o),
(505,493,o),
(476,424,cs),
(472,415,o),
(466,417,o),
(463,424,cs),
(432,500,o),
(368,536,o),
(294,536,cs),
(216,536,o),
(160,495,o),
(136,434,cs),
(133,426,o),
(126,429,o),
(126,436,cs),
(126,524,l),
(91,524,l),
(91,0,l)
);
}
);
width = 917;
},
{
anchors = (
{
name = bottom;
pos = (454,0);
},
{
name = top;
pos = (454,535);
},
{
name = topleft;
pos = (79,535);
}
);
layerId = "0F6921E6-B6DE-4419-A3CD-177DEB844CC2";
shapes = (
{
closed = 1;
nodes = (
(181,0,l),
(181,346,ls),
(181,414,o),
(231,457,o),
(298,457,cs),
(359,457,o),
(403,412,o),
(403,346,cs),
(403,0,l),
(505,0,l),
(505,346,ls),
(505,414,o),
(554,457,o),
(622,457,cs),
(682,457,o),
(727,412,o),
(727,346,cs),
(727,0,l),
(828,0,l),
(828,354,ls),
(828,485,o),
(734,547,o),
(641,547,cs),
(568,547,o),
(522,516,o),
(488,472,cs),
(481,464,o),
(473,464,o),
(467,472,cs),
(431,523,o),
(379,547,o),
(326,547,cs),
(259,547,o),
(223,518,o),
(195,478,cs),
(190,470,o),
(181,475,o),
(181,483,cs),
(181,535,l),
(79,535,l),
(79,0,l)
);
}
);
width = 902;
}
);
metricLeft = n;
metricRight = n;
unicode = 109;
userData = {
com.schriftgestaltung.Glyphs.ColorIndex = 3;
com.schriftgestaltung.Glyphs.layer.leftMetricsKey = "==n";
com.schriftgestaltung.Glyphs.layer.rightMetricsKey = "==n";
com.schriftgestaltung.Glyphs.leftMetricsKey = n;
com.schriftgestaltung.Glyphs.rightMetricsKey = n;
com.typemytype.robofont.layerData = {
background = {
anchors = (
);
components = (
);
contours = (
{
points = (
{
smooth = 0;
x = 283;
y = 512;
},
{
smooth = 0;
x = 266;
y = 510;
},
{
segmentType = curve;
smooth = 0;
x = 249;
y = 506;
},
{
segmentType = line;
smooth = 1;
x = 198;
y = 476;
},
{
smooth = 0;
x = 182;
y = 466;
},
{
smooth = 0;
x = 175;
y = 471;
},
{
segmentType = curve;
smooth = 1;
x = 175;
y = 484;
},
{
segmentType = line;
smooth = 0;
x = 175;
y = 500;
},
{
segmentType = line;
smooth = 0;
x = 95;
y = 500;
},
{
segmentType = line;
smooth = 0;
x = 95;
y = 0;
},
{
segmentType = line;
smooth = 0;
x = 175;
y = 0;
},
{
segmentType = line;
smooth = 1;
x = 175;
y = 348;
},
{
smooth = 0;
x = 175;
y = 404;
},
{
smooth = 0;
x = 205;
y = 440;
},
{
segmentType = curve;
smooth = 1;
x = 287;
y = 440;
},
{
smooth = 0;
x = 348;
y = 440;
},
{
smooth = 0;
x = 385;
y = 404;
},
{
segmentType = curve;
smooth = 1;
x = 385;
y = 348;
},
{
segmentType = line;
smooth = 0;
x = 385;
y = 0;
},
{
segmentType = line;
smooth = 0;
x = 465;
y = 0;
},
{
segmentType = line;
smooth = 1;
x = 465;
y = 348;
},
{
smooth = 0;
x = 465;
y = 404;
},
{
smooth = 0;
x = 491;
y = 440;
},
{
segmentType = curve;
smooth = 1;
x = 566;
y = 440;
},
{
smooth = 0;
x = 645;
y = 440;
},
{
smooth = 0;
x = 675;
y = 404;
},
{
segmentType = curve;
smooth = 1;
x = 675;
y = 348;
},
{
segmentType = line;
smooth = 0;
x = 675;
y = 0;
},
{
segmentType = line;
smooth = 0;
x = 755;
y = 0;
},
{
segmentType = line;
smooth = 1;
x = 755;
y = 357;
},
{
smooth = 0;
x = 755;
y = 449;
},
{
smooth = 0;
x = 699;
y = 512;
},
{
segmentType = curve;
smooth = 1;
x = 587;
y = 512;
},
{
smooth = 0;
x = 529;
y = 512;
},
{
smooth = 0;
x = 474;
y = 492;
},
{
segmentType = curve;
smooth = 0;
x = 437;
y = 451;
},
{
smooth = 0;
x = 410;
y = 489;
},
{
smooth = 0;
x = 360;
y = 512;
},
{
segmentType = curve;
smooth = 0;
x = 303;
y = 512;
}
);
}
);
lib = {
};
name = m;
unicodes = (
);
width = 825;
};
};
};
},
{
glyphname = n;
kernLeft = KO_n;
kernRight = KO_n;
lastChange = "2026-03-20 12:00:31 +0000";
layers = (
{
anchors = (
{
name = ascender;
pos = (66,546);
},
{
name = bottom;
pos = (340,0);
},
{
name = bottomright;
pos = (615,0);
},
{
name = part.hook;
pos = (66,0);
},
{
name = top;
pos = (340,546);
}
);
layerId = "0EDB233F-674C-46BF-8D38-84A6CD2C2EDF";
shapes = (
{
closed = 1;
nodes = (
(262,0,l),
(262,320,ls),
(262,366,o),
(301,389,o),
(338,389,cs),
(378,389,o),
(419,367,o),
(419,320,cs),
(419,0,l),
(615,0,l),
(615,361,ls),
(615,496,o),
(513,558,o),
(416,558,cs),
(335,558,o),
(311,529,o),
(278,494,cs),
(272,488,o),
(262,492,o),
(262,500,cs),
(262,546,l),
(66,546,l),
(66,0,l)
);
}
);
width = 676;
},
{
anchors = (
{
name = ascender;
pos = (91,524);
},
{
name = bottom;
pos = (290,0);
},
{
name = bottomright;
pos = (489,0);
},
{
name = part.hook;
pos = (91,0);
},
{
name = top;
pos = (290,524);
}
);
layerId = "9C56164D-AE66-4588-951C-3236F4A2688E";
shapes = (
{
closed = 1;
nodes = (
(126,0,l),
(126,330,ls),
(126,446,o),
(207,505,o),
(295,505,cs),
(384,505,o),
(455,449,o),
(455,339,cs),
(455,0,l),
(489,0,l),
(489,340,ls),
(489,473,o),
(401,536,o),
(300,536,cs),
(230,536,o),
(162,499,o),
(136,434,cs),
(133,427,o),
(126,429,o),
(126,436,cs),
(126,524,l),
(91,524,l),
(91,0,l)
);
}
);
width = 576;
},
{
anchors = (
{
name = ascender;
pos = (79,535);
},
{
name = bottom;
pos = (301,0);
},
{
name = bottomright;
pos = (524,0);
},
{
name = part.hook;
pos = (79,0);
},
{
name = top;
pos = (301,535);
}
);
layerId = "0F6921E6-B6DE-4419-A3CD-177DEB844CC2";
shapes = (
{
closed = 1;
nodes = (
(181,0,l),
(181,336,ls),
(181,410,o),
(234,457,o),
(308,457,cs),
(374,457,o),
(422,408,o),
(422,337,cs),
(422,0,l),
(524,0,l),
(524,345,ls),
(524,482,o),
(429,547,o),
(337,547,cs),
(271,547,o),
(229,519,o),
(195,478,cs),
(190,471,o),
(181,475,o),
(181,483,cs),
(181,535,l),
(79,535,l),
(79,0,l)
);
}
);
width = 598;
}
);
unicode = 110;
userData = {
KernOnName = n;
com.schriftgestaltung.Glyphs.ColorIndex = 3;
};
},
{
glyphname = nj;
lastChange = "2026-03-20 12:00:31 +0000";
layers = (
{
anchors = (
{
name = ascender;
pos = (66,546);
},
{
name = bottom;
pos = (851,-250);
},
{
name = bottomright;
pos = (615,0);
},
{
name = part.hook;
pos = (66,0);
},
{
name = top;
pos = (840,753);
}
);
layerId = "0EDB233F-674C-46BF-8D38-84A6CD2C2EDF";
shapes = (
{
closed = 1;
nodes = (
(262,0,l),
(262,320,ls),
(262,366,o),
(301,389,o),
(338,389,cs),
(378,389,o),
(419,367,o),
(419,320,cs),
(419,0,l),
(615,0,l),
(615,361,ls),
(615,496,o),
(513,558,o),
(416,558,cs),
(335,558,o),
(311,529,o),
(278,494,cs),
(272,488,o),
(262,492,o),
(262,500,cs),
(262,546,l),
(66,546,l),
(66,0,l)
);
},
{
closed = 1;
nodes = (
(812,-222,o),
(938,-164,o),
(938,28,cs),
(938,546,l),
(742,546,l),
(742,28,ls),
(742,-16,o),
(717,-43,o),
(680,-49,c),
(723,-222,l)
);
},
{
closed = 1;
nodes = (
(949,618,l),
(949,750,l),
(732,750,l),
(732,618,l)
);
}
);
width = 1004;
},
{
anchors = (
{
name = ascender;
pos = (91,524);
},
{
name = bottom;
pos = (679,-250);
},
{
name = bottomright;
pos = (489,0);
},
{
name = part.hook;
pos = (91,0);
},
{
name = top;
pos = (686,709);
}
);
layerId = "9C56164D-AE66-4588-951C-3236F4A2688E";
shapes = (
{
closed = 1;
nodes = (
(126,0,l),
(126,330,ls),
(126,446,o),
(207,505,o),
(295,505,cs),
(384,505,o),
(455,449,o),
(455,339,cs),
(455,0,l),
(489,0,l),
(489,340,ls),
(489,473,o),
(401,536,o),
(300,536,cs),
(230,536,o),
(162,499,o),
(136,434,cs),
(133,427,o),
(126,429,o),
(126,436,cs),
(126,524,l),
(91,524,l),
(91,0,l)
);
},
{
closed = 1;
nodes = (
(670,-179,o),
(703,-117,o),
(703,2,cs),
(703,524,l),
(668,524,l),
(668,2,l),
(668,-101,o),
(644,-155,o),
(577,-188,c),
(591,-216,l)
);
},
{
closed = 1;
nodes = (
(703,632,l),
(703,750,l),
(668,750,l),
(668,632,l)
);
}
);
width = 794;
},
{
anchors = (
{
name = ascender;
pos = (79,535);
},
{
name = bottom;
pos = (739,-250);
},
{
name = bottomright;
pos = (524,0);
},
{
name = part.hook;
pos = (79,0);
},
{
name = top;
pos = (741,746);
}
);
layerId = "0F6921E6-B6DE-4419-A3CD-177DEB844CC2";
shapes = (
{
closed = 1;
nodes = (
(181,0,l),
(181,336,ls),
(181,410,o),
(234,457,o),
(308,457,cs),
(374,457,o),
(422,408,o),
(422,337,cs),
(422,0,l),
(524,0,l),
(524,345,ls),
(524,482,o),
(429,547,o),
(337,547,cs),
(271,547,o),
(229,519,o),
(195,478,cs),
(190,471,o),
(181,475,o),
(181,483,cs),
(181,535,l),
(79,535,l),
(79,0,l)
);
},
{
closed = 1;
nodes = (
(717,-197,o),
(792,-131,o),
(792,8,cs),
(792,535,l),
(690,535,l),
(690,6,l),
(690,-73,o),
(655,-116,o),
(596,-134,c),
(625,-221,l)
);
},
{
closed = 1;
nodes = (
(792,632,l),
(792,750,l),
(690,750,l),
(690,632,l)
);
}
);
width = 871;
}
);
unicode = 460;
},
{
color = 9;
glyphname = nj.ss01;
lastChange = "2026-03-20 12:00:31 +0000";
layers = (
{
anchors = (
{
name = ascender;
pos = (66,546);
},
{
name = bottom;
pos = (851,-250);
},
{
name = bottomright;
pos = (615,0);
},
{
name = part.hook;
pos = (66,0);
},
{
name = top;
pos = (840,753);
}
);
layerId = "0EDB233F-674C-46BF-8D38-84A6CD2C2EDF";
shapes = (
{
closed = 1;
nodes = (
(262,0,l),
(262,320,ls),
(262,366,o),
(301,389,o),
(338,389,cs),
(378,389,o),
(419,367,o),
(419,320,cs),
(419,0,l),
(615,0,l),
(615,361,ls),
(615,496,o),
(513,558,o),
(416,558,cs),
(335,558,o),
(311,529,o),
(278,494,cs),
(272,488,o),
(262,492,o),
(262,500,cs),
(262,546,l),
(66,546,l),
(66,0,l)
);
},
{
closed = 1;
nodes = (
(812,-222,o),
(938,-164,o),
(938,28,cs),
(938,546,l),
(742,546,l),
(742,28,ls),
(742,-16,o),
(717,-43,o),
(680,-49,c),
(723,-222,l)
);
},
{
closed = 1;
nodes = (
(949,618,l),
(949,750,l),
(732,750,l),
(732,618,l)
);
}
);
width = 1004;
},
{
anchors = (
{
name = ascender;
pos = (91,524);
},
{
name = bottom;
pos = (679,-250);
},
{
name = bottomright;
pos = (489,0);
},
{
name = part.hook;
pos = (91,0);
},
{
name = top;
pos = (686,709);
}
);
layerId = "9C56164D-AE66-4588-951C-3236F4A2688E";
shapes = (
{
closed = 1;
nodes = (
(126,0,l),
(126,330,ls),
(126,446,o),
(207,505,o),
(295,505,cs),
(384,505,o),
(455,449,o),
(455,339,cs),
(455,0,l),
(489,0,l),
(489,340,ls),
(489,473,o),
(401,536,o),
(300,536,cs),
(230,536,o),
(162,499,o),
(136,434,cs),
(133,427,o),
(126,429,o),
(126,436,cs),
(126,524,l),
(91,524,l),
(91,0,l)
);
},
{
closed = 1;
nodes = (
(670,-179,o),
(703,-117,o),
(703,2,cs),
(703,524,l),
(668,524,l),
(668,2,l),
(668,-101,o),
(644,-155,o),
(577,-188,c),
(591,-216,l)
);
},
{
closed = 1;
nodes = (
(703,632,l),
(703,750,l),
(668,750,l),
(668,632,l)
);
}
);
width = 794;
},
{
anchors = (
{
name = ascender;
pos = (79,535);
},
{
name = bottom;
pos = (739,-250);
},
{
name = bottomright;
pos = (524,0);
},
{
name = part.hook;
pos = (79,0);
},
{
name = top;
pos = (741,746);
}
);
layerId = "0F6921E6-B6DE-4419-A3CD-177DEB844CC2";
shapes = (
{
closed = 1;
nodes = (
(181,0,l),
(181,336,ls),
(181,410,o),
(234,457,o),
(308,457,cs),
(374,457,o),
(422,408,o),
(422,337,cs),
(422,0,l),
(524,0,l),
(524,345,ls),
(524,482,o),
(429,547,o),
(337,547,cs),
(271,547,o),
(229,519,o),
(195,478,cs),
(190,471,o),
(181,475,o),
(181,483,cs),
(181,535,l),
(79,535,l),
(79,0,l)
);
},
{
closed = 1;
nodes = (
(717,-197,o),
(792,-131,o),
(792,8,cs),
(792,535,l),
(690,535,l),
(690,6,l),
(690,-73,o),
(655,-116,o),
(596,-134,c),
(625,-221,l)
);
},
{
closed = 1;
nodes = (
(792,632,l),
(792,750,l),
(690,750,l),
(690,632,l)
);
}
);
width = 871;
}
);
},
{
glyphname = eng;
kernLeft = KO_n;
kernRight = KO_n;
lastChange = "2026-03-20 12:00:31 +0000";
layers = (
{
background = {
shapes = (
{
closed = 1;
nodes = (
(460,-222,o),
(615,-193,o),
(615,0,c),
(419,22,l),
(419,-18,o),
(381,-49,o),
(307,-49,c),
(350,-222,l)
);
}
);
};
layerId = "0EDB233F-674C-46BF-8D38-84A6CD2C2EDF";
shapes = (
{
ref = n;
},
{
pos = (226,0);
ref = "_part.hook-cy";
}
);
width = 676;
},
{
layerId = "9C56164D-AE66-4588-951C-3236F4A2688E";
shapes = (
{
ref = n;
},
{
pos = (234,0);
ref = "_part.hook-cy";
}
);
width = 576;
},
{
layerId = "0F6921E6-B6DE-4419-A3CD-177DEB844CC2";
shapes = (
{
ref = n;
},
{
pos = (220,0);
ref = "_part.hook-cy";
}
);
width = 598;
}
);
metricLeft = n;
metricRight = n;
unicode = 331;
},
{
glyphname = o;
kernLeft = KO_o;
kernRight = KO_o;
lastChange = "2026-03-20 12:00:31 +0000";
layers = (
{
anchors = (
{
name = bottom;
pos = (340,0);
},
{
name = center;
pos = (350,273);
},
{
name = ogonek;
pos = (527,31);
},
{
name = top;
pos = (350,546);
},
{
name = topright;
pos = (522,546);
}
);
background = {
shapes = (
{
ref = n;
}
);
};
layerId = "0EDB233F-674C-46BF-8D38-84A6CD2C2EDF";
shapes = (
{
closed = 1;
nodes = (
(558,-12,o),
(660,122,o),
(660,273,cs),
(660,424,o),
(558,558,o),
(350,558,cs),
(142,558,o),
(40,424,o),
(40,273,cs),
(40,122,o),
(142,-12,o),
(350,-12,cs)
);
},
{
closed = 1;
nodes = (
(273,150,o),
(237,212,o),
(237,273,cs),
(237,335,o),
(273,396,o),
(350,396,cs),
(428,396,o),
(463,335,o),
(463,273,cs),
(463,212,o),
(428,150,o),
(350,150,cs)
);
}
);
width = 700;
},
{
anchors = (
{
name = bottom;
pos = (315,0);
},
{
name = center;
pos = (313,262);
},
{
name = ogonek;
pos = (453,28);
},
{
name = top;
pos = (313,524);
},
{
name = topright;
pos = (410,524);
}
);
layerId = "9C56164D-AE66-4588-951C-3236F4A2688E";
shapes = (
{
closed = 1;
nodes = (
(462,-12,o),
(564,101,o),
(564,262,cs),
(564,424,o),
(462,536,o),
(314,536,cs),
(166,536,o),
(63,424,o),
(63,262,cs),
(63,101,o),
(166,-12,o),
(314,-12,cs)
);
},
{
closed = 1;
nodes = (
(186,19,o),
(98,115,o),
(98,262,cs),
(98,410,o),
(186,505,o),
(314,505,cs),
(441,505,o),
(529,410,o),
(529,262,cs),
(529,115,o),
(441,19,o),
(314,19,cs)
);
}
);
width = 627;
},
{
anchors = (
{
name = bottom;
pos = (317,0);
},
{
name = center;
pos = (316,267);
},
{
name = ogonek;
pos = (469,31);
},
{
name = top;
pos = (316,535);
},
{
name = topright;
pos = (440,535);
}
);
layerId = "0F6921E6-B6DE-4419-A3CD-177DEB844CC2";
shapes = (
{
closed = 1;
nodes = (
(516,-12,o),
(580,150,o),
(580,267,cs),
(580,385,o),
(516,547,o),
(317,547,cs),
(118,547,o),
(52,385,o),
(52,267,cs),
(52,150,o),
(118,-12,o),
(317,-12,cs)
);
},
{
closed = 1;
nodes = (
(197,73,o),
(156,177,o),
(156,267,cs),
(156,358,o),
(197,462,o),
(317,462,cs),
(436,462,o),
(477,358,o),
(477,267,cs),
(477,177,o),
(436,73,o),
(317,73,cs)
);
}
);
width = 632;
}
);
unicode = 111;
userData = {
KernOnName = o;
com.schriftgestaltung.Glyphs.ColorIndex = 3;
com.typemytype.robofont.layerData = {
background = {
anchors = (
);
components = (
);
contours = (
{
points = (
{
smooth = 0;
x = 539;
y = 66;
},
{
smooth = 0;
x = 451;
y = -8;
},
{
segmentType = curve;
smooth = 1;
x = 332;
y = -8;
},
{
smooth = 0;
x = 213;
y = -8;
},
{
smooth = 0;
x = 125;
y = 66;
},
{
segmentType = curve;
smooth = 1;
x = 125;
y = 252;
},
{
smooth = 0;
x = 125;
y = 438;
},
{
smooth = 0;
x = 213;
y = 512;
},
{
segmentType = curve;
smooth = 1;
x = 332;
y = 512;
},
{
smooth = 0;
x = 451;
y = 512;
},
{
smooth = 0;
x = 539;
y = 438;
},
{
segmentType = curve;
smooth = 1;
x = 539;
y = 252;
}
);
},
{
points = (
{
smooth = 0;
x = 465;
y = 408;
},
{
smooth = 0;
x = 406;
y = 446;
},
{
segmentType = curve;
smooth = 1;
x = 332;
y = 446;
},
{
smooth = 0;
x = 259;
y = 446;
},
{
smooth = 0;
x = 199;
y = 406;
},
{
segmentType = curve;
smooth = 1;
x = 199;
y = 252;
},
{
smooth = 0;
x = 199;
y = 98;
},
{
smooth = 0;
x = 259;
y = 58;
},
{
segmentType = curve;
smooth = 1;
x = 332;
y = 58;
},
{
smooth = 0;
x = 406;
y = 58;
},
{
smooth = 0;
x = 465;
y = 96;
},
{
segmentType = curve;
smooth = 1;
x = 465;
y = 252;
}
);
}
);
lib = {
};
name = o;
unicodes = (
);
width = 510;
};
};
};
},
{
glyphname = ocircumflexdotbelow;
kernLeft = KO_o;
kernRight = KO_o;
lastChange = "2026-03-20 12:00:31 +0000";
layers = (
{
anchors = (
{
name = bottom;
pos = (340,-204);
},
{
name = center;
pos = (350,273);
},
{
name = ogonek;
pos = (527,31);
},
{
name = top;
pos = (350,766);
},
{
name = topright;
pos = (522,546);
}
);
layerId = "0EDB233F-674C-46BF-8D38-84A6CD2C2EDF";
shapes = (
{
closed = 1;
nodes = (
(448,-204,l),
(448,-72,l),
(231,-72,l),
(231,-204,l)
);
},
{
closed = 1;
nodes = (
(300,618,l),
(327,656,l),
(340,686,ls),
(343,694,o),
(355,694,o),
(358,686,cs),
(371,656,l),
(398,618,l),
(536,618,l),
(447,760,l),
(251,760,l),
(162,618,l)
);
},
{
ref = o;
}
);
width = 700;
},
{
anchors = (
{
name = bottom;
pos = (315,-226);
},
{
name = center;
pos = (313,262);
},
{
name = ogonek;
pos = (453,28);
},
{
name = top;
pos = (313,715);
},
{
name = topright;
pos = (410,524);
}
);
layerId = "9C56164D-AE66-4588-951C-3236F4A2688E";
shapes = (
{
closed = 1;
nodes = (
(333,-226,l),
(333,-108,l),
(298,-108,l),
(298,-226,l)
);
},
{
closed = 1;
nodes = (
(234,618,l),
(294,707,l),
(306,734,ls),
(309,740,o),
(317,740,o),
(320,734,cs),
(333,707,l),
(393,618,l),
(423,618,l),
(331,760,l),
(295,760,l),
(203,618,l)
);
},
{
ref = o;
}
);
width = 627;
},
{
anchors = (
{
name = bottom;
pos = (317,-215);
},
{
name = center;
pos = (316,267);
},
{
name = ogonek;
pos = (469,31);
},
{
name = top;
pos = (316,750);
},
{
name = topright;
pos = (440,535);
}
);
layerId = "0F6921E6-B6DE-4419-A3CD-177DEB844CC2";
shapes = (
{
closed = 1;
nodes = (
(368,-215,l),
(368,-97,l),
(266,-97,l),
(266,-215,l)
);
},
{
closed = 1;
nodes = (
(256,618,l),
(297,678,l),
(308,707,ls),
(312,715,o),
(318,715,o),
(322,707,cs),
(334,678,l),
(375,618,l),
(458,618,l),
(365,760,l),
(266,760,l),
(173,618,l)
);
},
{
ref = o;
}
);
width = 632;
}
);
unicode = 7897;
},
{
glyphname = ohorn;
kernLeft = KO_o;
lastChange = "2026-03-20 12:00:31 +0000";
layers = (
{
anchors = (
{
name = bottom;
pos = (340,0);
},
{
name = center;
pos = (350,273);
},
{
name = ogonek;
pos = (527,31);
},
{
name = top;
pos = (350,546);
},
{
name = topright;
pos = (684,640);
}
);
layerId = "0EDB233F-674C-46BF-8D38-84A6CD2C2EDF";
shapes = (
{
closed = 1;
nodes = (
(558,-12,o),
(660,122,o),
(660,273,cs),
(660,424,o),
(558,558,o),
(350,558,cs),
(142,558,o),
(40,424,o),
(40,273,cs),
(40,122,o),
(142,-12,o),
(350,-12,cs)
);
},
{
closed = 1;
nodes = (
(273,150,o),
(237,212,o),
(237,273,cs),
(237,335,o),
(273,396,o),
(350,396,cs),
(428,396,o),
(463,335,o),
(463,273,cs),
(463,212,o),
(428,150,o),
(350,150,cs)
);
},
{
closed = 1;
nodes = (
(603,458,o),
(684,498,o),
(684,640,c),
(554,640,l),
(554,560,o),
(540,546,o),
(522,546,c),
(442,546,l),
(442,458,l),
(522,458,l)
);
}
);
width = 700;
},
{
anchors = (
{
name = bottom;
pos = (315,0);
},
{
name = center;
pos = (313,262);
},
{
name = ogonek;
pos = (453,28);
},
{
name = top;
pos = (313,524);
},
{
name = topright;
pos = (503,609);
}
);
layerId = "9C56164D-AE66-4588-951C-3236F4A2688E";
shapes = (
{
closed = 1;
nodes = (
(462,-12,o),
(564,101,o),
(564,262,cs),
(564,424,o),
(462,536,o),
(314,536,cs),
(166,536,o),
(63,424,o),
(63,262,cs),
(63,101,o),
(166,-12,o),
(314,-12,cs)
);
},
{
closed = 1;
nodes = (
(186,19,o),
(98,115,o),
(98,262,cs),
(98,410,o),
(186,505,o),
(314,505,cs),
(441,505,o),
(529,410,o),
(529,262,cs),
(529,115,o),
(441,19,o),
(314,19,cs)
);
},
{
closed = 1;
nodes = (
(456,499,o),
(503,529,o),
(503,609,c),
(474,609,l),
(474,545,o),
(445,524,o),
(410,524,c),
(386,524,l),
(386,499,l),
(410,499,l)
);
}
);
width = 627;
},
{
anchors = (
{
name = bottom;
pos = (317,0);
},
{
name = center;
pos = (316,267);
},
{
name = ogonek;
pos = (469,31);
},
{
name = top;
pos = (316,535);
},
{
name = topright;
pos = (564,625);
}
);
layerId = "0F6921E6-B6DE-4419-A3CD-177DEB844CC2";
shapes = (
{
closed = 1;
nodes = (
(516,-12,o),
(580,150,o),
(580,267,cs),
(580,385,o),
(516,547,o),
(317,547,cs),
(118,547,o),
(52,385,o),
(52,267,cs),
(52,150,o),
(118,-12,o),
(317,-12,cs)
);
},
{
closed = 1;
nodes = (
(197,73,o),
(156,177,o),
(156,267,cs),
(156,358,o),
(197,462,o),
(317,462,cs),
(436,462,o),
(477,358,o),
(477,267,cs),
(477,177,o),
(436,73,o),
(317,73,cs)
);
},
{
closed = 1;
nodes = (
(502,478,o),
(564,511,o),
(564,625,c),
(493,625,l),
(493,550,o),
(470,535,o),
(440,535,c),
(394,535,l),
(394,478,l),
(440,478,l)
);
}
);
width = 632;
}
);
unicode = 417;
},
{
color = 2;
glyphname = ohornacute;
kernLeft = KO_o;
lastChange = "2026-03-20 12:00:31 +0000";
layers = (
{
anchors = (
{
name = bottom;
pos = (340,0);
},
{
name = center;
pos = (350,273);
},
{
name = ogonek;
pos = (527,31);
},
{
name = top;
pos = (172,665);
},
{
name = topright;
pos = (684,640);
}
);
layerId = "0EDB233F-674C-46BF-8D38-84A6CD2C2EDF";
shapes = (
{
closed = 1;
nodes = (
(558,-12,o),
(660,122,o),
(660,273,cs),
(660,424,o),
(558,558,o),
(350,558,cs),
(142,558,o),
(40,424,o),
(40,273,cs),
(40,122,o),
(142,-12,o),
(350,-12,cs)
);
},
{
closed = 1;
nodes = (
(273,150,o),
(237,212,o),
(237,273,cs),
(237,335,o),
(273,396,o),
(350,396,cs),
(428,396,o),
(463,335,o),
(463,273,cs),
(463,212,o),
(428,150,o),
(350,150,cs)
);
},
{
closed = 1;
nodes = (
(603,458,o),
(684,498,o),
(684,640,c),
(554,640,l),
(554,560,o),
(540,546,o),
(522,546,c),
(442,546,l),
(442,458,l),
(522,458,l)
);
},
{
closed = 1;
nodes = (
(418,618,l),
(516,760,l),
(340,760,l),
(271,618,l)
);
}
);
width = 700;
},
{
anchors = (
{
name = bottom;
pos = (315,0);
},
{
name = center;
pos = (313,262);
},
{
name = ogonek;
pos = (453,28);
},
{
name = top;
pos = (299,692);
},
{
name = topright;
pos = (503,609);
}
);
layerId = "9C56164D-AE66-4588-951C-3236F4A2688E";
shapes = (
{
closed = 1;
nodes = (
(462,-12,o),
(564,101,o),
(564,262,cs),
(564,424,o),
(462,536,o),
(314,536,cs),
(166,536,o),
(63,424,o),
(63,262,cs),
(63,101,o),
(166,-12,o),
(314,-12,cs)
);
},
{
closed = 1;
nodes = (
(186,19,o),
(98,115,o),
(98,262,cs),
(98,410,o),
(186,505,o),
(314,505,cs),
(441,505,o),
(529,410,o),
(529,262,cs),
(529,115,o),
(441,19,o),
(314,19,cs)
);
},
{
closed = 1;
nodes = (
(456,499,o),
(503,529,o),
(503,609,c),
(474,609,l),
(474,545,o),
(445,524,o),
(410,524,c),
(386,524,l),
(386,499,l),
(410,499,l)
);
},
{
closed = 1;
nodes = (
(327,618,l),
(428,760,l),
(390,760,l),
(299,618,l)
);
}
);
width = 627;
},
{
anchors = (
{
name = bottom;
pos = (317,0);
},
{
name = center;
pos = (316,267);
},
{
name = ogonek;
pos = (469,31);
},
{
name = top;
pos = (225,643);
},
{
name = topright;
pos = (564,625);
}
);
layerId = "0F6921E6-B6DE-4419-A3CD-177DEB844CC2";
shapes = (
{
closed = 1;
nodes = (
(516,-12,o),
(580,150,o),
(580,267,cs),
(580,385,o),
(516,547,o),
(317,547,cs),
(118,547,o),
(52,385,o),
(52,267,cs),
(52,150,o),
(118,-12,o),
(317,-12,cs)
);
},
{
closed = 1;
nodes = (
(197,73,o),
(156,177,o),
(156,267,cs),
(156,358,o),
(197,462,o),
(317,462,cs),
(436,462,o),
(477,358,o),
(477,267,cs),
(477,177,o),
(436,73,o),
(317,73,cs)
);
},
{
closed = 1;
nodes = (
(502,478,o),
(564,511,o),
(564,625,c),
(493,625,l),
(493,550,o),
(470,535,o),
(440,535,c),
(394,535,l),
(394,478,l),
(440,478,l)
);
},
{
closed = 1;
nodes = (
(354,618,l),
(446,760,l),
(350,760,l),
(276,618,l)
);
}
);
width = 632;
}
);
unicode = 7899;
},
{
glyphname = oslash;
lastChange = "2026-03-20 12:00:31 +0000";
layers = (
{
anchors = (
{
name = bottom;
pos = (340,0);
},
{
name = center;
pos = (340,273);
},
{
name = ogonek;
pos = (456,10);
},
{
name = top;
pos = (350,546);
},
{
name = topright;
pos = (522,546);
}
);
layerId = "0EDB233F-674C-46BF-8D38-84A6CD2C2EDF";
shapes = (
{
closed = 1;
nodes = (
(212,0,l),
(650,546,l),
(490,546,l),
(52,0,l)
);
},
{
closed = 1;
nodes = (
(558,-12,o),
(660,122,o),
(660,273,cs),
(660,424,o),
(558,558,o),
(350,558,cs),
(142,558,o),
(40,424,o),
(40,273,cs),
(40,122,o),
(142,-12,o),
(350,-12,cs)
);
},
{
closed = 1;
nodes = (
(256,134,o),
(212,204,o),
(212,273,cs),
(212,343,o),
(256,412,o),
(350,412,cs),
(445,412,o),
(488,343,o),
(488,273,cs),
(488,204,o),
(445,134,o),
(350,134,cs)
);
}
);
width = 700;
},
{
anchors = (
{
name = bottom;
pos = (305,0);
},
{
name = center;
pos = (305,262);
},
{
name = ogonek;
pos = (542,10);
},
{
name = top;
pos = (313,524);
},
{
name = topright;
pos = (410,524);
}
);
layerId = "9C56164D-AE66-4588-951C-3236F4A2688E";
shapes = (
{
closed = 1;
nodes = (
(119,0,l),
(546,524,l),
(508,524,l),
(81,0,l)
);
},
{
closed = 1;
nodes = (
(462,-12,o),
(564,101,o),
(564,262,cs),
(564,424,o),
(462,536,o),
(314,536,cs),
(166,536,o),
(63,424,o),
(63,262,cs),
(63,101,o),
(166,-12,o),
(314,-12,cs)
);
},
{
closed = 1;
nodes = (
(185,18,o),
(98,115,o),
(98,262,cs),
(98,410,o),
(185,506,o),
(314,506,cs),
(442,506,o),
(529,410,o),
(529,262,cs),
(529,115,o),
(442,18,o),
(314,18,cs)
);
}
);
width = 627;
},
{
anchors = (
{
name = bottom;
pos = (316,0);
},
{
name = center;
pos = (316,267);
},
{
name = ogonek;
pos = (567,10);
},
{
name = top;
pos = (316,535);
},
{
name = topright;
pos = (440,535);
}
);
layerId = "0F6921E6-B6DE-4419-A3CD-177DEB844CC2";
shapes = (
{
closed = 1;
nodes = (
(162,0,l),
(574,535,l),
(472,535,l),
(60,0,l)
);
},
{
closed = 1;
nodes = (
(516,-12,o),
(580,150,o),
(580,267,cs),
(580,385,o),
(516,547,o),
(317,547,cs),
(118,547,o),
(52,385,o),
(52,267,cs),
(52,150,o),
(118,-12,o),
(317,-12,cs)
);
},
{
closed = 1;
nodes = (
(194,68,o),
(152,175,o),
(152,267,cs),
(152,360,o),
(194,467,o),
(317,467,cs),
(438,467,o),
(481,360,o),
(481,267,cs),
(481,175,o),
(438,68,o),
(317,68,cs)
);
}
);
width = 632;
}
);
metricLeft = o;
metricRight = o;
unicode = 248;
},
{
glyphname = oe;
kernLeft = KO_o;
kernRight = KO_e;
lastChange = "2026-03-20 12:00:31 +0000";
layers = (
{
background = {
shapes = (
{
ref = o;
},
{
pos = (432,0);
ref = e;
}
);
};
layerId = "0EDB233F-674C-46BF-8D38-84A6CD2C2EDF";
shapes = (
{
closed = 1;
nodes = (
(432,-12,o),
(497,12,o),
(544,63,cs),
(553,73,o),
(562,73,o),
(572,62,cs),
(623,12,o),
(695,-11,o),
(790,-11,cs),
(855,-11,o),
(937,4,o),
(1000,33,c),
(981,167,l),
(922,146,o),
(865,136,o),
(811,136,cs),
(729,136,o),
(678,164,o),
(659,216,c),
(1017,216,l),
(1034,306,l),
(1033,457,o),
(938,558,o),
(768,558,cs),
(684,558,o),
(619,534,o),
(572,479,cs),
(562,467,o),
(552,467,o),
(542,479,cs),
(495,534,o),
(431,558,o),
(350,558,cs),
(142,558,o),
(40,424,o),
(40,273,cs),
(40,122,o),
(142,-12,o),
(350,-12,cs)
);
},
{
closed = 1;
nodes = (
(273,150,o),
(237,212,o),
(237,273,cs),
(237,335,o),
(273,396,o),
(350,396,cs),
(428,396,o),
(463,335,o),
(463,273,cs),
(463,212,o),
(428,150,o),
(350,150,cs)
);
},
{
closed = 1;
nodes = (
(672,377,o),
(704,408,o),
(768,408,cs),
(829,408,o),
(857,379,o),
(862,333,c),
(659,333,l)
);
}
);
width = 1069;
},
{
layerId = "9C56164D-AE66-4588-951C-3236F4A2688E";
shapes = (
{
closed = 1;
nodes = (
(410,-12,o),
(489,37,o),
(530,121,cs),
(539,140,o),
(548,140,o),
(555,121,cs),
(592,33,o),
(668,-12,o),
(771,-12,cs),
(834,-12,o),
(895,4,o),
(948,50,c),
(938,77,l),
(885,32,o),
(835,19,o),
(772,19,cs),
(656,19,o),
(565,82,o),
(564,250,c),
(975,250,l),
(984,276,l),
(981,398,o),
(949,536,o),
(765,536,cs),
(667,536,o),
(595,485,o),
(559,399,cs),
(550,378,o),
(541,379,o),
(532,398,cs),
(492,486,o),
(412,536,o),
(313,536,cs),
(166,536,o),
(63,424,o),
(63,262,cs),
(63,101,o),
(166,-12,o),
(313,-12,cs)
);
},
{
closed = 1;
nodes = (
(186,19,o),
(98,115,o),
(98,262,cs),
(98,410,o),
(186,505,o),
(314,505,cs),
(441,505,o),
(529,410,o),
(529,262,cs),
(529,115,o),
(441,19,o),
(314,19,cs)
);
},
{
closed = 1;
nodes = (
(573,421,o),
(647,505,o),
(765,505,cs),
(925,505,o),
(952,372,o),
(952,280,c),
(565,280,l)
);
}
);
width = 1042;
},
{
layerId = "0F6921E6-B6DE-4419-A3CD-177DEB844CC2";
shapes = (
{
closed = 1;
nodes = (
(405,-12,o),
(468,20,o),
(509,88,cs),
(518,103,o),
(528,103,o),
(538,86,cs),
(580,18,o),
(649,-12,o),
(752,-12,cs),
(818,-12,o),
(881,5,o),
(937,55,c),
(919,131,l),
(868,90,o),
(806,73,o),
(756,73,cs),
(650,73,o),
(591,121,o),
(582,232,c),
(961,232,l),
(972,281,l),
(972,414,o),
(925,547,o),
(736,547,cs),
(644,547,o),
(582,513,o),
(542,443,cs),
(533,426,o),
(523,426,o),
(513,443,cs),
(472,513,o),
(407,547,o),
(316,547,cs),
(118,547,o),
(52,385,o),
(52,267,cs),
(52,150,o),
(118,-12,o),
(316,-12,cs)
);
},
{
closed = 1;
nodes = (
(197,73,o),
(156,177,o),
(156,267,cs),
(156,358,o),
(197,462,o),
(317,462,cs),
(436,462,o),
(477,358,o),
(477,267,cs),
(477,177,o),
(436,73,o),
(317,73,cs)
);
},
{
closed = 1;
nodes = (
(598,407,o),
(651,463,o),
(736,463,cs),
(852,463,o),
(874,382,o),
(876,312,c),
(585,312,l)
);
}
);
width = 1018;
}
);
metricLeft = o;
metricRight = e;
unicode = 339;
userData = {
com.schriftgestaltung.Glyphs.leftMetricsKey = o;
com.schriftgestaltung.Glyphs.rightMetricsKey = e;
};
},
{
glyphname = r;
kernLeft = KO_r;
kernRight = KO_r;
lastChange = "2026-03-20 12:00:31 +0000";
layers = (
{
anchors = (
{
name = bottom;
pos = (161,0);
},
{
name = top;
pos = (253,546);
}
);
background = {
shapes = (
{
pos = (-7,0);
ref = n;
}
);
};
layerId = "0EDB233F-674C-46BF-8D38-84A6CD2C2EDF";
shapes = (
{
closed = 1;
nodes = (
(256,0,l),
(256,237,ls),
(256,335,o),
(304,382,o),
(393,381,cs),
(415,381,o),
(428,379,o),
(441,375,c),
(441,546,l),
(425,554,o),
(408,556,o),
(391,556,cs),
(332,556,o),
(297,538,o),
(270,498,cs),
(262,486,o),
(249,488,o),
(249,503,cs),
(249,546,l),
(66,546,l),
(66,0,l)
);
}
);
width = 471;
},
{
anchors = (
{
name = bottom;
pos = (108,0);
},
{
name = top;
pos = (215,524);
}
);
layerId = "9C56164D-AE66-4588-951C-3236F4A2688E";
shapes = (
{
closed = 1;
nodes = (
(125,0,l),
(125,325,ls),
(125,442,o),
(193,503,o),
(275,503,cs),
(298,503,o),
(320,499,o),
(339,492,c),
(339,524,l),
(319,532,o),
(298,536,o),
(276,536,cs),
(210,536,o),
(148,497,o),
(133,434,cs),
(131,427,o),
(122,429,o),
(122,437,cs),
(122,524,l),
(91,524,l),
(91,0,l)
);
}
);
width = 359;
},
{
anchors = (
{
name = bottom;
pos = (129,0);
},
{
name = top;
pos = (224,535);
}
);
layerId = "0F6921E6-B6DE-4419-A3CD-177DEB844CC2";
shapes = (
{
closed = 1;
nodes = (
(179,0,l),
(179,301,ls),
(179,387,o),
(215,444,o),
(306,444,cs),
(326,444,o),
(349,441,o),
(369,437,c),
(369,535,l),
(347,543,o),
(333,547,o),
(310,547,cs),
(259,547,o),
(211,520,o),
(193,480,cs),
(188,468,o),
(175,474,o),
(175,488,cs),
(175,535,l),
(79,535,l),
(79,0,l)
);
}
);
width = 394;
}
);
metricRight = "=|t";
unicode = 114;
userData = {
KernOnName = r;
com.schriftgestaltung.Glyphs.ColorIndex = 3;
};
},
